<svg xmlns="http://www.w3.org/2000/svg" xmlns:xlink="http://www.w3.org/1999/xlink" width="55" zoomAndPan="magnify" viewBox="0 0 41.25 41.250001" height="55" preserveAspectRatio="xMidYMid meet" version="1.2"><defs><clipPath id="75f9627e9d"><path d="M 3.320312 0.675781 L 37.203125 0.675781 L 37.203125 39.71875 L 3.320312 39.71875 Z M 3.320312 0.675781 "/></clipPath></defs><g id="857afbe21e"><g clip-rule="nonzero" clip-path="url(#75f9627e9d)"><path style=" stroke:none;fill-rule:evenodd;fill:#d9d9d9;fill-opacity:1;" d="M 20.757812 1.714844 L 20.757812 0.679688 L 37.082031 0.679688 L 37.082031 1.714844 L 35.703125 1.714844 C 34.140625 1.714844 33.011719 2.171875 32.300781 3.082031 C 31.851562 3.6875 31.621094 5.125 31.621094 7.402344 L 31.621094 26.046875 C 31.621094 28.914062 31.304688 31.242188 30.683594 33.011719 C 30.597656 33.257812 30.503906 33.496094 30.402344 33.730469 C 29.886719 33.554688 29.332031 33.476562 28.800781 33.460938 C 28.023438 33.433594 27.015625 33.546875 26.210938 33.839844 C 26.214844 33.707031 26.21875 33.566406 26.21875 33.425781 L 26.21875 7.402344 C 26.21875 5.476562 26.09375 4.203125 25.855469 3.589844 C 25.671875 3.121094 25.277344 2.71875 24.675781 2.382812 C 23.871094 1.933594 23.027344 1.714844 22.128906 1.714844 Z M 13.710938 31.648438 C 13.90625 31.761719 14.128906 31.820312 14.375 31.804688 C 13.566406 31.175781 13.082031 30.171875 12.863281 29.074219 C 12.648438 28.003906 12.683594 26.847656 12.914062 25.855469 C 13.058594 26.101562 13.273438 26.257812 13.582031 26.21875 C 13.582031 26.214844 13.03125 26.019531 13.101562 24.144531 C 13.113281 23.859375 13.167969 23.570312 13.253906 23.289062 C 13.335938 23.003906 13.453125 22.722656 13.585938 22.453125 C 13.996094 21.628906 14.5625 20.925781 14.910156 20.535156 C 15.164062 21.382812 16.046875 21.308594 16.457031 20.832031 C 16.253906 20.847656 15.480469 20.945312 15.34375 20.257812 C 15.273438 19.894531 15.347656 19.296875 15.726562 18.324219 C 16.644531 15.960938 15.699219 13.585938 15 12.300781 C 16.1875 13.148438 18.195312 14.804688 19.070312 16.875 C 19.84375 18.703125 19.921875 19.777344 19.566406 20.753906 C 20.003906 20.765625 20.441406 20.460938 20.859375 19.574219 C 22.109375 21.84375 21.875 23.808594 21.089844 25.117188 C 20.804688 25.59375 20.445312 25.984375 20.054688 26.269531 C 19.671875 26.546875 19.265625 26.726562 18.871094 26.785156 C 18.390625 26.855469 17.929688 26.742188 17.582031 26.402344 C 18.171875 26.21875 18.617188 25.898438 18.941406 25.492188 C 19.480469 24.828125 19.683594 23.949219 19.660156 23.113281 C 19.625 21.625 18.179688 19.0625 18.175781 19.054688 C 18.035156 20.042969 17.609375 21.378906 16.367188 22.238281 L 16.363281 22.238281 L 16.332031 22.261719 L 16.332031 22.265625 C 15.128906 23.121094 14.511719 25.066406 14.347656 27.015625 C 14.183594 28.949219 14.472656 30.910156 15.089844 31.804688 L 15.109375 31.828125 L 15.109375 31.832031 C 15.582031 32.492188 16 32.980469 16.351562 33.339844 C 16.929688 33.929688 17.347656 34.183594 17.496094 34.246094 C 17.621094 34.800781 17.824219 35.355469 18.125 35.859375 C 18.292969 36.144531 18.445312 36.433594 18.65625 36.6875 C 18.261719 36.507812 17.90625 36.15625 17.757812 35.734375 C 17.703125 35.890625 17.660156 36.042969 17.628906 36.191406 C 17.273438 36.003906 15.933594 35.066406 14.867188 33.742188 C 14.359375 33.113281 13.925781 32.402344 13.710938 31.648438 Z M 17.390625 33.609375 C 17.21875 33.484375 16.988281 33.289062 16.703125 32.996094 C 16.367188 32.648438 15.960938 32.175781 15.511719 31.546875 L 15.496094 31.523438 C 14.9375 30.71875 14.683594 28.890625 14.839844 27.054688 C 14.992188 25.230469 15.546875 23.429688 16.613281 22.664062 L 16.648438 22.640625 C 17.785156 21.855469 18.238281 21.046875 18.332031 20.285156 C 18.746094 21.242188 19.152344 22.367188 19.171875 23.125 C 19.191406 23.855469 19.015625 24.621094 18.558594 25.1875 C 18.1875 25.644531 17.625 25.976562 16.816406 26.058594 C 14.957031 28.683594 16.972656 31.65625 17.386719 32.25 C 17.335938 32.671875 17.335938 33.136719 17.390625 33.609375 Z M 31.136719 34.648438 C 29.414062 35.097656 27.566406 36.371094 27.230469 37.484375 C 26.683594 36.917969 26.148438 36.078125 26.015625 35.859375 L 25.945312 34.484375 C 27.027344 33.890625 29.75 33.5625 31.136719 34.648438 Z M 16.839844 38.558594 C 16.960938 38.464844 17.054688 38.335938 17.113281 38.148438 C 17.085938 38.167969 17.058594 38.183594 17.03125 38.199219 C 16.582031 38.417969 15.730469 38.214844 14.894531 37.832031 C 14.175781 37.5 13.480469 37.042969 13.054688 36.609375 C 13.394531 36.628906 13.699219 36.527344 13.910156 36.230469 C 13.90625 36.230469 12.375 36.503906 10.988281 34.914062 C 10.035156 33.816406 9.632812 32.855469 9.472656 32.335938 C 9.734375 32.433594 10.011719 32.4375 10.292969 32.289062 C 10.289062 32.285156 9.050781 31.957031 8.390625 30.492188 C 7.859375 29.316406 7.84375 28.308594 7.863281 27.917969 C 8.015625 27.949219 8.1875 27.953125 8.386719 27.925781 C 7.476562 27.535156 7.417969 26.738281 7.390625 25.863281 C 7.367188 25.042969 7.335938 24.078125 6.746094 23.011719 C 7.433594 22.925781 8.789062 22.839844 9.277344 23.445312 C 9.320312 22.003906 8.476562 21.726562 6.976562 21.664062 L 6.769531 21.65625 L 6.742188 21.65625 C 5.886719 21.601562 5.015625 20.800781 4.359375 19.792969 C 3.8125 18.957031 3.425781 17.984375 3.320312 17.175781 C 4.324219 17.921875 5.804688 18.117188 7.332031 18.316406 C 9.972656 18.660156 12.765625 19.027344 13.03125 22.480469 C 12.953125 22.652344 12.882812 22.832031 12.824219 23.011719 C 12.292969 21.589844 11.007812 20.734375 9.136719 20.640625 C 9.730469 21.421875 10.449219 22.074219 10.09375 23.160156 C 9.714844 24.304688 9.484375 26.472656 9.824219 28.671875 C 10.074219 30.277344 10.628906 31.90625 11.648438 33.171875 C 13.816406 35.855469 17.234375 37.6875 17.855469 38.011719 C 18.160156 38.574219 18.675781 39.050781 19.332031 39.464844 C 18.90625 39.449219 18.144531 39.269531 16.839844 38.558594 Z M 12.613281 24.082031 L 12.613281 24.125 C 12.605469 24.277344 12.605469 24.609375 12.652344 24.96875 C 12.257812 26.148438 12.105469 27.796875 12.382812 29.167969 C 12.433594 29.515625 12.652344 30.375 13.082031 31.015625 C 13.207031 32.09375 13.792969 33.199219 14.484375 34.050781 C 15.59375 35.421875 17.085938 36.410156 17.566406 36.660156 C 17.550781 36.890625 17.566406 37.109375 17.609375 37.316406 C 16.457031 36.679688 13.804688 35.0625 12.03125 32.863281 C 11.070312 31.671875 10.546875 30.125 10.308594 28.59375 C 9.984375 26.480469 10.199219 24.40625 10.558594 23.316406 C 10.894531 22.296875 10.535156 21.609375 10.050781 21.164062 C 11.074219 21.472656 12.390625 22.226562 12.613281 24.082031 Z M 26.945312 37.894531 C 26.414062 38.273438 25.023438 39.160156 23.367188 39.390625 C 23.554688 39.1875 23.691406 38.957031 23.765625 38.710938 C 23.875 38.359375 23.855469 37.980469 23.683594 37.621094 C 23.644531 37.53125 23.601562 37.449219 23.546875 37.367188 C 24.582031 37.230469 25.363281 36.648438 25.726562 36.320312 C 25.972656 36.699219 26.453125 37.402344 26.945312 37.894531 Z M 25.523438 35.839844 C 25.273438 36.089844 24.359375 36.90625 23.101562 36.90625 L 23.101562 36.914062 C 22.5625 36.527344 21.855469 36.496094 21.628906 37.214844 C 21.632812 37.214844 22.675781 36.667969 23.238281 37.835938 C 23.359375 38.078125 23.371094 38.328125 23.296875 38.566406 C 23.222656 38.816406 23.050781 39.050781 22.808594 39.234375 C 22.554688 39.429688 22.226562 39.570312 21.84375 39.625 C 21.21875 39.71875 20.449219 39.578125 19.632812 39.074219 C 18.15625 38.15625 17.929688 37.175781 17.957031 36.585938 C 18.234375 36.910156 18.699219 37.257812 19.445312 37.257812 L 19.453125 37.261719 L 19.453125 37.257812 L 19.457031 37.257812 L 19.433594 37.234375 C 18.265625 35.390625 17.429688 33.789062 18.023438 31.570312 C 18.289062 30.578125 18.792969 29.710938 19.46875 29.40625 C 19.492188 29.394531 19.515625 29.386719 19.539062 29.378906 C 20.332031 29.074219 20.808594 29.488281 21.066406 29.878906 C 20.667969 29.777344 20.304688 29.855469 20 30.050781 C 19.5625 30.339844 19.265625 30.882812 19.214844 31.5 C 19.167969 32.101562 19.355469 32.78125 19.867188 33.355469 C 20.703125 34.289062 22.421875 34.949219 25.453125 34.5 Z M 25.523438 35.839844 "/></g><g style="fill:#d9d9d9;fill-opacity:1;"><g transform="translate(27.81152, 19.71652)"><path style="stroke:none" d="M 0.046875 0.46875 C -0.015625 0.46875 -0.0664062 0.460938 -0.109375 0.453125 L -0.109375 0.3125 C -0.0664062 0.320312 -0.0195312 0.328125 0.03125 0.328125 C 0.0703125 0.328125 0.101562 0.3125 0.125 0.28125 C 0.15625 0.257812 0.171875 0.222656 0.171875 0.171875 L 0.171875 -1.046875 L 0.328125 -1.046875 L 0.328125 0.15625 C 0.328125 0.363281 0.234375 0.46875 0.046875 0.46875 Z M 0.15625 -1.328125 C 0.15625 -1.367188 0.160156 -1.394531 0.171875 -1.40625 C 0.191406 -1.425781 0.21875 -1.4375 0.25 -1.4375 C 0.269531 -1.4375 0.289062 -1.425781 0.3125 -1.40625 C 0.332031 -1.382812 0.34375 -1.359375 0.34375 -1.328125 C 0.34375 -1.296875 0.332031 -1.269531 0.3125 -1.25 C 0.289062 -1.226562 0.269531 -1.21875 0.25 -1.21875 C 0.21875 -1.21875 0.191406 -1.226562 0.171875 -1.25 C 0.160156 -1.269531 0.15625 -1.296875 0.15625 -1.328125 Z M 0.15625 -1.328125 "/></g></g></g></svg>