<svg xmlns="http://www.w3.org/2000/svg" xmlns:xlink="http://www.w3.org/1999/xlink" width="55" zoomAndPan="magnify" viewBox="0 0 41.25 41.250001" height="55" preserveAspectRatio="xMidYMid meet" version="1.2"><defs><clipPath id="8251f2d7ac"><path d="M 1.015625 5.128906 L 39.316406 5.128906 L 39.316406 35.328125 L 1.015625 35.328125 Z M 1.015625 5.128906 "/></clipPath></defs><g id="dc1fda5797"><g clip-rule="nonzero" clip-path="url(#8251f2d7ac)"><path style=" stroke:none;fill-rule:nonzero;fill:#d9d9d9;fill-opacity:1;" d="M 35.722656 19.246094 C 35.722656 19.246094 35.6875 19.21875 35.675781 19.203125 C 35.660156 19.199219 35.65625 19.183594 35.648438 19.179688 C 34.800781 18.417969 33.835938 17.835938 32.8125 17.460938 C 34.164062 16.558594 35.039062 15.027344 35.039062 13.277344 C 35.039062 10.492188 32.777344 8.226562 29.996094 8.226562 C 29.339844 8.226562 28.699219 8.371094 28.105469 8.613281 L 28.105469 6.496094 C 28.105469 5.738281 27.480469 5.121094 26.71875 5.121094 L 5.75 5.121094 C 4.988281 5.121094 4.367188 5.738281 4.367188 6.496094 L 4.367188 12.265625 C 4.367188 12.523438 4.441406 12.761719 4.5625 12.964844 C 4.441406 13.171875 4.367188 13.410156 4.367188 13.667969 L 4.367188 19.4375 C 4.367188 19.695312 4.441406 19.929688 4.5625 20.132812 C 4.441406 20.34375 4.367188 20.582031 4.367188 20.839844 L 4.367188 26.605469 C 4.367188 27.367188 4.988281 27.984375 5.75 27.984375 L 15.558594 27.984375 L 15.558594 30.804688 C 14.855469 31.03125 14.296875 31.578125 14.066406 32.292969 L 1.855469 32.292969 C 1.480469 32.292969 1.175781 32.597656 1.175781 32.96875 C 1.175781 33.34375 1.480469 33.648438 1.855469 33.648438 L 14.066406 33.648438 C 14.359375 34.578125 15.214844 35.265625 16.238281 35.265625 C 17.261719 35.265625 18.125 34.578125 18.410156 33.648438 L 30.621094 33.648438 C 30.992188 33.648438 31.300781 33.34375 31.300781 32.96875 C 31.300781 32.597656 30.992188 32.292969 30.621094 32.292969 L 18.410156 32.292969 C 18.183594 31.585938 17.628906 31.03125 16.917969 30.804688 L 16.917969 27.984375 L 21.351562 27.984375 C 21.40625 27.996094 21.460938 28.019531 21.523438 28.019531 L 38.484375 28.019531 C 38.855469 28.019531 39.164062 27.710938 39.164062 27.339844 C 39.164062 24.171875 37.914062 21.21875 35.730469 19.246094 Z M 34.101562 19.6875 L 32.335938 20.804688 L 32.121094 18.664062 C 32.820312 18.894531 33.476562 19.238281 34.09375 19.679688 Z M 27.824219 10.304688 C 28.457031 9.835938 29.210938 9.589844 29.996094 9.589844 C 32.023438 9.589844 33.679688 11.246094 33.679688 13.28125 C 33.679688 15.316406 32.113281 16.90625 30.097656 16.960938 L 29.875 16.960938 C 29.128906 16.9375 28.421875 16.695312 27.824219 16.246094 C 26.882812 15.5625 26.3125 14.449219 26.3125 13.28125 C 26.3125 13.199219 26.3125 13.121094 26.328125 13.019531 C 26.402344 11.9375 26.945312 10.949219 27.832031 10.3125 Z M 31.21875 23.199219 L 30.097656 24.496094 L 28.972656 23.199219 L 29.460938 18.34375 C 29.867188 18.308594 30.308594 18.324219 30.734375 18.363281 Z M 28.070312 18.609375 L 27.847656 20.8125 L 25.972656 19.617188 C 26.503906 19.253906 27.058594 18.945312 27.648438 18.738281 C 27.792969 18.6875 27.925781 18.648438 28.0625 18.609375 Z M 5.75 6.476562 L 26.746094 6.496094 L 26.746094 9.429688 C 25.871094 10.160156 25.28125 11.160156 25.058594 12.277344 L 5.722656 12.257812 L 5.75 6.472656 Z M 5.75 13.640625 L 24.976562 13.640625 C 25.039062 14.460938 25.296875 15.242188 25.722656 15.929688 C 25.640625 15.894531 25.554688 15.875 25.457031 15.875 L 23.503906 15.875 C 23.132812 15.875 22.824219 16.179688 22.824219 16.550781 C 22.824219 16.925781 23.132812 17.230469 23.503906 17.230469 L 25.457031 17.230469 C 25.832031 17.230469 26.136719 16.925781 26.136719 16.550781 C 26.136719 16.53125 26.128906 16.511719 26.121094 16.492188 C 26.386719 16.804688 26.6875 17.089844 27.019531 17.332031 C 27.078125 17.375 27.140625 17.40625 27.203125 17.449219 C 27.203125 17.449219 27.195312 17.449219 27.1875 17.449219 C 26.15625 17.828125 25.199219 18.40625 24.339844 19.164062 C 24.238281 19.257812 24.136719 19.355469 24.039062 19.449219 L 5.722656 19.429688 L 5.75 13.636719 Z M 17.160156 32.957031 C 17.160156 32.957031 17.160156 32.964844 17.160156 32.96875 C 17.160156 33.480469 16.746094 33.894531 16.230469 33.894531 C 15.714844 33.894531 15.300781 33.480469 15.300781 32.96875 C 15.300781 32.96875 15.300781 32.96875 15.300781 32.964844 C 15.300781 32.453125 15.722656 32.046875 16.230469 32.046875 C 16.738281 32.046875 17.148438 32.453125 17.160156 32.964844 Z M 19.996094 23.039062 C 19.625 23.039062 19.316406 23.34375 19.316406 23.714844 C 19.316406 24.089844 19.625 24.394531 19.996094 24.394531 L 21.222656 24.394531 C 21.035156 25.113281 20.917969 25.859375 20.871094 26.621094 L 5.722656 26.601562 L 5.75 20.804688 L 22.894531 20.804688 C 22.40625 21.492188 21.984375 22.238281 21.664062 23.039062 Z M 22.214844 26.65625 C 22.363281 24.335938 23.292969 22.15625 24.828125 20.582031 C 24.847656 20.5625 24.867188 20.542969 24.886719 20.519531 L 27.695312 22.3125 L 27.59375 23.34375 C 27.574219 23.527344 27.636719 23.714844 27.757812 23.859375 L 29.589844 25.96875 C 29.71875 26.117188 29.902344 26.199219 30.097656 26.199219 C 30.296875 26.199219 30.484375 26.113281 30.605469 25.960938 L 32.433594 23.851562 C 32.554688 23.710938 32.617188 23.527344 32.59375 23.34375 L 32.492188 22.3125 L 35.171875 20.609375 C 36.699219 22.167969 37.628906 24.320312 37.777344 26.65625 Z M 22.214844 26.65625 "/></g><path style=" stroke:none;fill-rule:nonzero;fill:#d9d9d9;fill-opacity:1;" d="M 10.75 6.890625 L 8.632812 6.890625 C 7.921875 6.890625 7.34375 7.46875 7.34375 8.179688 L 7.34375 10.574219 C 7.34375 11.289062 7.921875 11.863281 8.632812 11.863281 L 10.75 11.863281 C 11.460938 11.863281 12.039062 11.289062 12.039062 10.574219 L 12.039062 8.179688 C 12.039062 7.46875 11.460938 6.890625 10.75 6.890625 Z M 10.679688 10.507812 L 8.707031 10.507812 L 8.707031 8.25 L 10.679688 8.25 Z M 10.679688 10.507812 "/><path style=" stroke:none;fill-rule:nonzero;fill:#d9d9d9;fill-opacity:1;" d="M 18.441406 8.703125 L 16.488281 8.703125 C 16.117188 8.703125 15.8125 9.007812 15.8125 9.382812 C 15.8125 9.753906 16.117188 10.058594 16.488281 10.058594 L 18.441406 10.058594 C 18.816406 10.058594 19.121094 9.753906 19.121094 9.382812 C 19.121094 9.007812 18.816406 8.703125 18.441406 8.703125 Z M 18.441406 8.703125 "/><path style=" stroke:none;fill-rule:nonzero;fill:#d9d9d9;fill-opacity:1;" d="M 21.949219 8.703125 L 19.996094 8.703125 C 19.625 8.703125 19.316406 9.007812 19.316406 9.382812 C 19.316406 9.753906 19.625 10.058594 19.996094 10.058594 L 21.949219 10.058594 C 22.324219 10.058594 22.628906 9.753906 22.628906 9.382812 C 22.628906 9.007812 22.324219 8.703125 21.949219 8.703125 Z M 21.949219 8.703125 "/><path style=" stroke:none;fill-rule:nonzero;fill:#d9d9d9;fill-opacity:1;" d="M 26.136719 9.382812 C 26.136719 9.007812 25.832031 8.703125 25.457031 8.703125 L 23.503906 8.703125 C 23.132812 8.703125 22.824219 9.007812 22.824219 9.382812 C 22.824219 9.753906 23.132812 10.058594 23.503906 10.058594 L 25.457031 10.058594 C 25.832031 10.058594 26.136719 9.753906 26.136719 9.382812 Z M 26.136719 9.382812 "/><path style=" stroke:none;fill-rule:nonzero;fill:#d9d9d9;fill-opacity:1;" d="M 10.75 14.0625 L 8.640625 14.0625 C 7.925781 14.0625 7.351562 14.640625 7.351562 15.351562 L 7.351562 17.753906 C 7.351562 18.457031 7.925781 19.035156 8.640625 19.035156 L 10.75 19.035156 C 11.460938 19.035156 12.039062 18.457031 12.039062 17.753906 L 12.039062 15.351562 C 12.039062 14.640625 11.460938 14.0625 10.75 14.0625 Z M 10.679688 17.679688 L 8.707031 17.679688 L 8.707031 15.417969 L 10.679688 15.417969 Z M 10.679688 17.679688 "/><path style=" stroke:none;fill-rule:nonzero;fill:#d9d9d9;fill-opacity:1;" d="M 18.441406 15.875 L 16.488281 15.875 C 16.117188 15.875 15.8125 16.179688 15.8125 16.550781 C 15.8125 16.925781 16.117188 17.230469 16.488281 17.230469 L 18.441406 17.230469 C 18.816406 17.230469 19.121094 16.925781 19.121094 16.550781 C 19.121094 16.179688 18.816406 15.875 18.441406 15.875 Z M 18.441406 15.875 "/><path style=" stroke:none;fill-rule:nonzero;fill:#d9d9d9;fill-opacity:1;" d="M 21.949219 15.875 L 19.996094 15.875 C 19.625 15.875 19.316406 16.179688 19.316406 16.550781 C 19.316406 16.925781 19.625 17.230469 19.996094 17.230469 L 21.949219 17.230469 C 22.324219 17.230469 22.628906 16.925781 22.628906 16.550781 C 22.628906 16.179688 22.324219 15.875 21.949219 15.875 Z M 21.949219 15.875 "/><path style=" stroke:none;fill-rule:nonzero;fill:#d9d9d9;fill-opacity:1;" d="M 10.75 21.234375 L 8.632812 21.234375 C 7.921875 21.234375 7.34375 21.808594 7.34375 22.523438 L 7.34375 24.917969 C 7.34375 25.628906 7.921875 26.207031 8.632812 26.207031 L 10.75 26.207031 C 11.460938 26.207031 12.039062 25.628906 12.039062 24.917969 L 12.039062 22.523438 C 12.039062 21.808594 11.460938 21.234375 10.75 21.234375 Z M 10.679688 24.851562 L 8.707031 24.851562 L 8.707031 22.589844 L 10.679688 22.589844 Z M 10.679688 24.851562 "/><path style=" stroke:none;fill-rule:nonzero;fill:#d9d9d9;fill-opacity:1;" d="M 18.441406 23.046875 L 16.488281 23.046875 C 16.117188 23.046875 15.8125 23.351562 15.8125 23.722656 C 15.8125 24.097656 16.117188 24.402344 16.488281 24.402344 L 18.441406 24.402344 C 18.816406 24.402344 19.121094 24.097656 19.121094 23.722656 C 19.121094 23.351562 18.816406 23.046875 18.441406 23.046875 Z M 18.441406 23.046875 "/><g style="fill:#d9d9d9;fill-opacity:1;"><g transform="translate(25.571776, 14.584824)"><path style="stroke:none" d="M 0.5 -0.109375 C 0.53125 -0.109375 0.554688 -0.109375 0.578125 -0.109375 C 0.609375 -0.117188 0.632812 -0.125 0.65625 -0.125 L 0.65625 -0.015625 C 0.632812 -0.00390625 0.601562 0 0.5625 0 C 0.53125 0.0078125 0.503906 0.015625 0.484375 0.015625 C 0.273438 0.015625 0.171875 -0.0859375 0.171875 -0.296875 L 0.171875 -0.921875 L 0.03125 -0.921875 L 0.03125 -1 L 0.171875 -1.0625 L 0.25 -1.28125 L 0.34375 -1.28125 L 0.34375 -1.046875 L 0.640625 -1.046875 L 0.640625 -0.921875 L 0.34375 -0.921875 L 0.34375 -0.3125 C 0.34375 -0.25 0.351562 -0.195312 0.375 -0.15625 C 0.40625 -0.125 0.445312 -0.109375 0.5 -0.109375 Z M 0.5 -0.109375 "/></g></g></g></svg>