<svg xmlns="http://www.w3.org/2000/svg" xmlns:xlink="http://www.w3.org/1999/xlink" width="55" zoomAndPan="magnify" viewBox="0 0 41.25 41.250001" height="55" preserveAspectRatio="xMidYMid meet" version="1.2"><defs><clipPath id="3b29e5efea"><path d="M 2.933594 1.425781 L 37.554688 1.425781 L 37.554688 38.992188 L 2.933594 38.992188 Z M 2.933594 1.425781 "/></clipPath></defs><g id="e330088609"><g clip-rule="nonzero" clip-path="url(#3b29e5efea)"><path style=" stroke:none;fill-rule:nonzero;fill:#d9d9d9;fill-opacity:1;" d="M 7.054688 13.851562 C 8.191406 13.851562 9.117188 12.925781 9.117188 11.789062 C 9.117188 10.652344 8.191406 9.726562 7.054688 9.726562 C 5.917969 9.726562 4.992188 10.652344 4.992188 11.789062 C 4.992188 12.925781 5.917969 13.851562 7.054688 13.851562 Z M 7.054688 10.9375 C 7.523438 10.9375 7.90625 11.320312 7.90625 11.789062 C 7.90625 12.257812 7.523438 12.640625 7.054688 12.640625 C 6.585938 12.640625 6.203125 12.257812 6.203125 11.789062 C 6.203125 11.320312 6.585938 10.9375 7.054688 10.9375 Z M 7.054688 21.214844 C 8.191406 21.214844 9.117188 20.289062 9.117188 19.152344 C 9.117188 18.015625 8.191406 17.089844 7.054688 17.089844 C 5.917969 17.089844 4.992188 18.015625 4.992188 19.152344 C 4.992188 20.289062 5.917969 21.214844 7.054688 21.214844 Z M 7.054688 18.300781 C 7.523438 18.300781 7.90625 18.683594 7.90625 19.152344 C 7.90625 19.621094 7.523438 20 7.054688 20 C 6.585938 20 6.203125 19.621094 6.203125 19.152344 C 6.203125 18.683594 6.585938 18.300781 7.054688 18.300781 Z M 7.054688 24.453125 C 5.917969 24.453125 4.992188 25.378906 4.992188 26.515625 C 4.992188 27.652344 5.917969 28.574219 7.054688 28.574219 C 8.191406 28.574219 9.117188 27.652344 9.117188 26.515625 C 9.117188 25.378906 8.191406 24.453125 7.054688 24.453125 Z M 7.054688 27.363281 C 6.585938 27.363281 6.203125 26.984375 6.203125 26.515625 C 6.203125 26.046875 6.585938 25.664062 7.054688 25.664062 C 7.523438 25.664062 7.90625 26.046875 7.90625 26.515625 C 7.90625 26.984375 7.523438 27.363281 7.054688 27.363281 Z M 37.109375 25.535156 L 35.609375 24.957031 C 35.390625 24.15625 35.070312 23.390625 34.660156 22.667969 L 35.3125 21.199219 C 35.414062 20.96875 35.363281 20.699219 35.1875 20.523438 L 33.117188 18.453125 C 32.941406 18.277344 32.671875 18.226562 32.441406 18.328125 L 30.972656 18.980469 C 30.25 18.570312 29.484375 18.25 28.683594 18.03125 L 28.105469 16.53125 C 28.015625 16.296875 27.789062 16.144531 27.539062 16.144531 L 26.683594 16.144531 L 26.683594 5.628906 C 26.683594 4.367188 25.394531 3.289062 22.960938 2.515625 C 20.773438 1.820312 17.878906 1.4375 14.808594 1.4375 C 11.738281 1.4375 8.84375 1.820312 6.65625 2.515625 C 4.222656 3.289062 2.9375 4.367188 2.9375 5.628906 L 2.9375 27.492188 C 2.9375 28.753906 4.222656 29.828125 6.65625 30.605469 C 8.84375 31.300781 11.738281 31.683594 14.808594 31.683594 C 15.566406 31.683594 16.324219 31.660156 17.0625 31.613281 C 17.191406 31.902344 17.335938 32.183594 17.492188 32.460938 L 16.839844 33.929688 C 16.738281 34.160156 16.789062 34.425781 16.964844 34.605469 L 19.035156 36.675781 C 19.210938 36.851562 19.480469 36.902344 19.710938 36.800781 L 21.179688 36.148438 C 21.902344 36.558594 22.667969 36.878906 23.46875 37.097656 L 24.046875 38.597656 C 24.136719 38.832031 24.363281 38.984375 24.613281 38.984375 L 27.539062 38.984375 C 27.789062 38.984375 28.015625 38.832031 28.105469 38.597656 L 28.683594 37.097656 C 29.484375 36.878906 30.25 36.558594 30.972656 36.148438 L 32.441406 36.800781 C 32.671875 36.902344 32.941406 36.851562 33.117188 36.675781 L 35.1875 34.605469 C 35.363281 34.425781 35.414062 34.160156 35.3125 33.929688 L 34.660156 32.460938 C 35.070312 31.738281 35.390625 30.972656 35.609375 30.171875 L 37.109375 29.59375 C 37.34375 29.503906 37.496094 29.277344 37.496094 29.027344 L 37.496094 26.101562 C 37.496094 25.851562 37.34375 25.625 37.109375 25.535156 Z M 7.023438 3.667969 C 9.09375 3.011719 11.859375 2.648438 14.808594 2.648438 C 17.757812 2.648438 20.523438 3.011719 22.59375 3.667969 C 24.714844 4.34375 25.472656 5.125 25.472656 5.628906 C 25.472656 6.132812 24.714844 6.910156 22.59375 7.585938 C 20.523438 8.246094 17.757812 8.609375 14.808594 8.609375 C 11.859375 8.609375 9.09375 8.246094 7.023438 7.585938 C 4.902344 6.910156 4.148438 6.132812 4.148438 5.628906 C 4.148438 5.125 4.902344 4.34375 7.023438 3.667969 Z M 4.148438 7.570312 C 4.761719 8.011719 5.601562 8.402344 6.65625 8.742188 C 8.84375 9.4375 11.738281 9.820312 14.808594 9.820312 C 17.878906 9.820312 20.773438 9.4375 22.960938 8.742188 C 24.015625 8.402344 24.859375 8.011719 25.46875 7.570312 L 25.46875 12.914062 C 25.46875 13.417969 24.714844 14.199219 22.59375 14.875 C 20.523438 15.535156 17.757812 15.894531 14.808594 15.894531 C 11.859375 15.894531 9.09375 15.535156 7.023438 14.875 C 4.902344 14.199219 4.148438 13.417969 4.148438 12.914062 Z M 4.148438 14.859375 C 4.761719 15.296875 5.601562 15.691406 6.65625 16.027344 C 8.84375 16.722656 11.738281 17.109375 14.808594 17.109375 C 17.878906 17.109375 20.773438 16.722656 22.960938 16.027344 C 24.015625 15.691406 24.859375 15.296875 25.472656 14.859375 L 25.472656 16.144531 L 24.613281 16.144531 C 24.363281 16.144531 24.136719 16.296875 24.046875 16.53125 L 23.46875 18.03125 C 22.667969 18.25 21.902344 18.570312 21.179688 18.980469 L 19.710938 18.328125 C 19.480469 18.226562 19.210938 18.277344 19.035156 18.453125 L 16.964844 20.523438 C 16.789062 20.699219 16.738281 20.96875 16.839844 21.199219 L 17.492188 22.667969 C 17.414062 22.808594 17.335938 22.953125 17.265625 23.09375 C 16.460938 23.152344 15.640625 23.183594 14.808594 23.183594 C 11.859375 23.183594 9.097656 22.820312 7.027344 22.164062 C 4.902344 21.488281 4.148438 20.707031 4.148438 20.203125 Z M 14.808594 30.472656 C 11.859375 30.472656 9.09375 30.109375 7.023438 29.449219 C 4.902344 28.773438 4.148438 27.996094 4.148438 27.492188 L 4.148438 22.144531 C 4.761719 22.585938 5.601562 22.980469 6.65625 23.316406 C 8.84375 24.011719 11.738281 24.394531 14.808594 24.394531 C 15.457031 24.394531 16.101562 24.375 16.734375 24.34375 C 16.664062 24.546875 16.601562 24.75 16.542969 24.957031 L 15.042969 25.535156 C 14.808594 25.625 14.65625 25.851562 14.65625 26.101562 L 14.65625 29.027344 C 14.65625 29.277344 14.808594 29.503906 15.042969 29.59375 L 16.542969 30.171875 C 16.566406 30.253906 16.59375 30.339844 16.617188 30.425781 C 16.023438 30.457031 15.417969 30.472656 14.808594 30.472656 Z M 36.285156 28.613281 L 34.882812 29.152344 C 34.695312 29.222656 34.554688 29.382812 34.511719 29.578125 C 34.296875 30.46875 33.945312 31.320312 33.464844 32.101562 C 33.359375 32.273438 33.34375 32.484375 33.425781 32.667969 L 34.035156 34.042969 L 32.554688 35.523438 L 31.179688 34.914062 C 30.996094 34.832031 30.785156 34.847656 30.617188 34.949219 C 29.832031 35.433594 28.980469 35.785156 28.089844 36 C 27.894531 36.042969 27.734375 36.183594 27.664062 36.371094 L 27.125 37.773438 L 25.027344 37.773438 L 24.488281 36.371094 C 24.417969 36.183594 24.257812 36.042969 24.0625 35.996094 C 23.171875 35.785156 22.320312 35.433594 21.539062 34.949219 C 21.367188 34.847656 21.15625 34.832031 20.972656 34.914062 L 19.597656 35.523438 L 18.117188 34.042969 L 18.726562 32.667969 C 18.808594 32.484375 18.792969 32.273438 18.6875 32.101562 C 18.207031 31.320312 17.855469 30.46875 17.640625 29.578125 C 17.597656 29.382812 17.457031 29.222656 17.269531 29.152344 L 15.867188 28.613281 L 15.867188 26.515625 L 17.269531 25.976562 C 17.457031 25.902344 17.597656 25.746094 17.640625 25.550781 C 17.855469 24.660156 18.207031 23.808594 18.691406 23.027344 C 18.792969 22.855469 18.808594 22.644531 18.726562 22.460938 L 18.117188 21.085938 L 19.597656 19.605469 L 20.972656 20.214844 C 21.15625 20.296875 21.367188 20.28125 21.539062 20.175781 C 22.320312 19.695312 23.171875 19.34375 24.0625 19.128906 C 24.257812 19.085938 24.417969 18.945312 24.488281 18.757812 L 25.027344 17.355469 L 27.125 17.355469 L 27.664062 18.757812 C 27.734375 18.945312 27.894531 19.085938 28.089844 19.128906 C 28.980469 19.34375 29.832031 19.695312 30.613281 20.175781 C 30.785156 20.28125 30.996094 20.296875 31.179688 20.214844 L 32.554688 19.605469 L 34.035156 21.085938 L 33.425781 22.460938 C 33.34375 22.644531 33.359375 22.855469 33.464844 23.023438 C 33.945312 23.808594 34.296875 24.65625 34.511719 25.550781 C 34.558594 25.746094 34.695312 25.90625 34.882812 25.976562 L 36.285156 26.515625 Z M 26.078125 20.835938 C 22.367188 20.835938 19.351562 23.855469 19.351562 27.5625 C 19.351562 31.273438 22.367188 34.289062 26.078125 34.289062 C 29.785156 34.289062 32.800781 31.273438 32.800781 27.5625 C 32.800781 23.855469 29.785156 20.835938 26.078125 20.835938 Z M 26.078125 33.078125 C 23.035156 33.078125 20.5625 30.605469 20.5625 27.5625 C 20.5625 24.523438 23.035156 22.050781 26.078125 22.050781 C 29.117188 22.050781 31.589844 24.523438 31.589844 27.5625 C 31.589844 30.605469 29.117188 33.078125 26.078125 33.078125 Z M 27.363281 30.027344 C 27.449219 30.351562 27.257812 30.683594 26.933594 30.769531 C 26.882812 30.785156 26.828125 30.789062 26.777344 30.789062 C 26.511719 30.789062 26.265625 30.613281 26.195312 30.339844 L 24.789062 25.101562 C 24.703125 24.777344 24.894531 24.445312 25.21875 24.359375 C 25.539062 24.273438 25.871094 24.464844 25.960938 24.785156 Z M 28.542969 25.171875 L 30.832031 27.101562 C 30.96875 27.214844 31.046875 27.386719 31.046875 27.5625 C 31.046875 27.742188 30.96875 27.914062 30.832031 28.027344 L 28.542969 29.957031 C 28.429688 30.050781 28.292969 30.097656 28.152344 30.097656 C 27.980469 30.097656 27.808594 30.023438 27.691406 29.882812 C 27.472656 29.625 27.507812 29.246094 27.761719 29.027344 L 29.5 27.5625 L 27.761719 26.097656 C 27.507812 25.882812 27.472656 25.5 27.691406 25.246094 C 27.90625 24.988281 28.289062 24.957031 28.542969 25.171875 Z M 24.390625 26.097656 L 22.652344 27.5625 L 24.390625 29.027344 C 24.644531 29.246094 24.679688 29.625 24.460938 29.882812 C 24.34375 30.023438 24.171875 30.097656 24 30.097656 C 23.863281 30.097656 23.722656 30.050781 23.609375 29.957031 L 21.320312 28.027344 C 21.183594 27.914062 21.105469 27.742188 21.105469 27.5625 C 21.105469 27.386719 21.183594 27.214844 21.320312 27.101562 L 23.609375 25.171875 C 23.863281 24.957031 24.246094 24.988281 24.460938 25.246094 C 24.679688 25.5 24.644531 25.882812 24.390625 26.097656 Z M 24.390625 26.097656 "/></g><g style="fill:#d9d9d9;fill-opacity:1;"><g transform="translate(25.571776, 14.584824)"><path style="stroke:none" d="M 0.5 -0.109375 C 0.53125 -0.109375 0.554688 -0.109375 0.578125 -0.109375 C 0.609375 -0.117188 0.632812 -0.125 0.65625 -0.125 L 0.65625 -0.015625 C 0.632812 -0.00390625 0.601562 0 0.5625 0 C 0.53125 0.0078125 0.503906 0.015625 0.484375 0.015625 C 0.273438 0.015625 0.171875 -0.0859375 0.171875 -0.296875 L 0.171875 -0.921875 L 0.03125 -0.921875 L 0.03125 -1 L 0.171875 -1.0625 L 0.25 -1.28125 L 0.34375 -1.28125 L 0.34375 -1.046875 L 0.640625 -1.046875 L 0.640625 -0.921875 L 0.34375 -0.921875 L 0.34375 -0.3125 C 0.34375 -0.25 0.351562 -0.195312 0.375 -0.15625 C 0.40625 -0.125 0.445312 -0.109375 0.5 -0.109375 Z M 0.5 -0.109375 "/></g></g></g></svg>