<svg xmlns="http://www.w3.org/2000/svg" xmlns:xlink="http://www.w3.org/1999/xlink" width="55" zoomAndPan="magnify" viewBox="0 0 41.25 41.250001" height="55" preserveAspectRatio="xMidYMid meet" version="1.2"><defs><clipPath id="ead011d71d"><path d="M 2.289062 0.671875 L 38.382812 0.671875 L 38.382812 39.714844 L 2.289062 39.714844 Z M 2.289062 0.671875 "/></clipPath></defs><g id="96b05a0d9e"><g clip-rule="nonzero" clip-path="url(#ead011d71d)"><path style=" stroke:none;fill-rule:nonzero;fill:#d9d9d9;fill-opacity:1;" d="M 37.886719 0.941406 C 37.730469 0.769531 37.511719 0.671875 37.28125 0.671875 L 3.121094 0.671875 C 2.890625 0.671875 2.671875 0.769531 2.519531 0.941406 C 2.363281 1.109375 2.289062 1.339844 2.3125 1.570312 L 5.566406 34.101562 C 5.597656 34.417969 5.8125 34.691406 6.117188 34.792969 L 20.757812 39.671875 C 20.839844 39.699219 20.929688 39.714844 21.015625 39.714844 C 21.113281 39.714844 21.207031 39.695312 21.300781 39.660156 L 34.316406 34.78125 C 34.605469 34.675781 34.808594 34.410156 34.839844 34.101562 L 38.09375 1.570312 C 38.117188 1.339844 38.039062 1.109375 37.886719 0.941406 Z M 33.269531 33.4375 L 21 38.039062 L 7.128906 33.414062 L 4.019531 2.300781 L 36.382812 2.300781 Z M 33.269531 33.4375 "/></g><path style=" stroke:none;fill-rule:nonzero;fill:#d9d9d9;fill-opacity:1;" d="M 11.253906 10.433594 L 29.808594 10.433594 L 28.675781 16.941406 L 12.066406 16.941406 C 11.617188 16.941406 11.253906 17.304688 11.253906 17.753906 C 11.253906 18.203125 11.617188 18.566406 12.066406 18.566406 L 28.394531 18.566406 L 26.800781 27.730469 L 21 29.90625 L 14.398438 27.703125 L 13.679688 24.101562 C 13.59375 23.660156 13.167969 23.375 12.722656 23.464844 C 12.28125 23.550781 11.996094 23.980469 12.085938 24.417969 L 12.898438 28.488281 C 12.953125 28.773438 13.160156 29.003906 13.4375 29.097656 L 20.757812 31.539062 C 20.839844 31.566406 20.929688 31.582031 21.015625 31.582031 C 21.113281 31.582031 21.207031 31.5625 21.300781 31.53125 L 27.808594 29.089844 C 28.078125 28.988281 28.273438 28.75 28.324219 28.46875 L 31.578125 9.761719 C 31.617188 9.523438 31.550781 9.28125 31.398438 9.097656 C 31.242188 8.914062 31.011719 8.808594 30.773438 8.808594 L 11.253906 8.808594 C 10.804688 8.808594 10.441406 9.171875 10.441406 9.621094 C 10.441406 10.070312 10.804688 10.433594 11.253906 10.433594 Z M 11.253906 10.433594 "/><g style="fill:#d9d9d9;fill-opacity:1;"><g transform="translate(3.429827, 5.328127)"><path style="stroke:none" d="M 0.046875 0.46875 C -0.015625 0.46875 -0.0664062 0.460938 -0.109375 0.453125 L -0.109375 0.3125 C -0.0664062 0.320312 -0.0195312 0.328125 0.03125 0.328125 C 0.0703125 0.328125 0.101562 0.3125 0.125 0.28125 C 0.15625 0.257812 0.171875 0.222656 0.171875 0.171875 L 0.171875 -1.046875 L 0.328125 -1.046875 L 0.328125 0.15625 C 0.328125 0.363281 0.234375 0.46875 0.046875 0.46875 Z M 0.15625 -1.328125 C 0.15625 -1.367188 0.160156 -1.394531 0.171875 -1.40625 C 0.191406 -1.425781 0.21875 -1.4375 0.25 -1.4375 C 0.269531 -1.4375 0.289062 -1.425781 0.3125 -1.40625 C 0.332031 -1.382812 0.34375 -1.359375 0.34375 -1.328125 C 0.34375 -1.296875 0.332031 -1.269531 0.3125 -1.25 C 0.289062 -1.226562 0.269531 -1.21875 0.25 -1.21875 C 0.21875 -1.21875 0.191406 -1.226562 0.171875 -1.25 C 0.160156 -1.269531 0.15625 -1.296875 0.15625 -1.328125 Z M 0.15625 -1.328125 "/></g></g></g></svg>