<svg xmlns="http://www.w3.org/2000/svg" xmlns:xlink="http://www.w3.org/1999/xlink" width="55" zoomAndPan="magnify" viewBox="0 0 41.25 41.250001" height="55" preserveAspectRatio="xMidYMid meet" version="1.2"><defs><clipPath id="7c1b853fc2"><path d="M 4.300781 0.96875 L 35.972656 0.96875 L 35.972656 39.269531 L 4.300781 39.269531 Z M 4.300781 0.96875 "/></clipPath></defs><g id="c37955549e"><g clip-rule="nonzero" clip-path="url(#7c1b853fc2)"><path style=" stroke:none;fill-rule:nonzero;fill:#d9d9d9;fill-opacity:1;" d="M 4.449219 0.960938 L 4.449219 39.253906 L 35.820312 39.253906 L 35.820312 0.960938 Z M 34.5 37.933594 L 5.769531 37.933594 L 5.769531 2.28125 L 34.5 2.28125 Z M 34.5 37.933594 "/></g><path style=" stroke:none;fill-rule:nonzero;fill:#d9d9d9;fill-opacity:1;" d="M 12.183594 14.644531 C 15.25 14.644531 17.742188 12.148438 17.742188 9.085938 C 17.742188 6.019531 15.25 3.527344 12.183594 3.527344 C 9.121094 3.527344 6.628906 6.019531 6.628906 9.085938 C 6.628906 12.148438 9.121094 14.644531 12.183594 14.644531 Z M 12.183594 4.847656 C 14.523438 4.847656 16.421875 6.746094 16.421875 9.085938 C 16.421875 11.421875 14.523438 13.324219 12.183594 13.324219 C 9.847656 13.324219 7.949219 11.421875 7.949219 9.085938 C 7.949219 6.746094 9.847656 4.847656 12.183594 4.847656 Z M 12.183594 4.847656 "/><path style=" stroke:none;fill-rule:nonzero;fill:#d9d9d9;fill-opacity:1;" d="M 14.667969 10.621094 C 14.667969 9.84375 14.296875 9.15625 13.734375 8.699219 C 14.003906 8.363281 14.171875 7.9375 14.171875 7.472656 C 14.171875 6.378906 13.28125 5.488281 12.183594 5.488281 C 11.089844 5.488281 10.199219 6.378906 10.199219 7.472656 C 10.199219 7.9375 10.367188 8.363281 10.632812 8.699219 C 10.070312 9.15625 9.703125 9.84375 9.703125 10.621094 L 9.703125 12.132812 L 14.667969 12.132812 Z M 11.519531 7.472656 C 11.519531 7.105469 11.816406 6.808594 12.183594 6.808594 C 12.550781 6.808594 12.847656 7.105469 12.847656 7.472656 C 12.847656 7.839844 12.550781 8.140625 12.183594 8.140625 C 11.816406 8.140625 11.519531 7.84375 11.519531 7.472656 Z M 13.347656 10.8125 L 11.023438 10.8125 L 11.023438 10.621094 C 11.023438 9.984375 11.542969 9.460938 12.183594 9.460938 C 12.824219 9.460938 13.34375 9.984375 13.34375 10.621094 L 13.34375 10.8125 Z M 13.347656 10.8125 "/><path style=" stroke:none;fill-rule:nonzero;fill:#d9d9d9;fill-opacity:1;" d="M 20.136719 5.488281 L 32.539062 5.488281 L 32.539062 6.808594 L 20.136719 6.808594 Z M 20.136719 5.488281 "/><path style=" stroke:none;fill-rule:nonzero;fill:#d9d9d9;fill-opacity:1;" d="M 20.136719 8.425781 L 32.539062 8.425781 L 32.539062 9.746094 L 20.136719 9.746094 Z M 20.136719 8.425781 "/><path style=" stroke:none;fill-rule:nonzero;fill:#d9d9d9;fill-opacity:1;" d="M 20.136719 11.363281 L 32.539062 11.363281 L 32.539062 12.683594 L 20.136719 12.683594 Z M 20.136719 11.363281 "/><path style=" stroke:none;fill-rule:nonzero;fill:#d9d9d9;fill-opacity:1;" d="M 6.933594 17.707031 L 9.492188 17.707031 L 9.492188 19.027344 L 6.933594 19.027344 Z M 6.933594 17.707031 "/><path style=" stroke:none;fill-rule:nonzero;fill:#d9d9d9;fill-opacity:1;" d="M 6.933594 20.394531 L 9.492188 20.394531 L 9.492188 21.714844 L 6.933594 21.714844 Z M 6.933594 20.394531 "/><path style=" stroke:none;fill-rule:nonzero;fill:#d9d9d9;fill-opacity:1;" d="M 6.933594 23.082031 L 9.492188 23.082031 L 9.492188 24.402344 L 6.933594 24.402344 Z M 6.933594 23.082031 "/><path style=" stroke:none;fill-rule:nonzero;fill:#d9d9d9;fill-opacity:1;" d="M 6.933594 25.773438 L 9.492188 25.773438 L 9.492188 27.09375 L 6.933594 27.09375 Z M 6.933594 25.773438 "/><path style=" stroke:none;fill-rule:nonzero;fill:#d9d9d9;fill-opacity:1;" d="M 6.933594 28.460938 L 9.492188 28.460938 L 9.492188 29.78125 L 6.933594 29.78125 Z M 6.933594 28.460938 "/><path style=" stroke:none;fill-rule:nonzero;fill:#d9d9d9;fill-opacity:1;" d="M 6.933594 31.148438 L 9.492188 31.148438 L 9.492188 32.46875 L 6.933594 32.46875 Z M 6.933594 31.148438 "/><path style=" stroke:none;fill-rule:nonzero;fill:#d9d9d9;fill-opacity:1;" d="M 10.871094 17.707031 L 18.15625 17.707031 L 18.15625 19.027344 L 10.871094 19.027344 Z M 10.871094 17.707031 "/><path style=" stroke:none;fill-rule:nonzero;fill:#d9d9d9;fill-opacity:1;" d="M 10.871094 20.394531 L 18.15625 20.394531 L 18.15625 21.714844 L 10.871094 21.714844 Z M 10.871094 20.394531 "/><path style=" stroke:none;fill-rule:nonzero;fill:#d9d9d9;fill-opacity:1;" d="M 10.871094 23.082031 L 18.15625 23.082031 L 18.15625 24.402344 L 10.871094 24.402344 Z M 10.871094 23.082031 "/><path style=" stroke:none;fill-rule:nonzero;fill:#d9d9d9;fill-opacity:1;" d="M 10.871094 25.773438 L 18.15625 25.773438 L 18.15625 27.09375 L 10.871094 27.09375 Z M 10.871094 25.773438 "/><path style=" stroke:none;fill-rule:nonzero;fill:#d9d9d9;fill-opacity:1;" d="M 10.871094 28.460938 L 18.15625 28.460938 L 18.15625 29.78125 L 10.871094 29.78125 Z M 10.871094 28.460938 "/><path style=" stroke:none;fill-rule:nonzero;fill:#d9d9d9;fill-opacity:1;" d="M 10.871094 31.148438 L 18.15625 31.148438 L 18.15625 32.46875 L 10.871094 32.46875 Z M 10.871094 31.148438 "/><path style=" stroke:none;fill-rule:nonzero;fill:#d9d9d9;fill-opacity:1;" d="M 19.167969 34.753906 L 25.820312 34.753906 L 25.820312 36.074219 L 19.167969 36.074219 Z M 19.167969 34.753906 "/><path style=" stroke:none;fill-rule:nonzero;fill:#d9d9d9;fill-opacity:1;" d="M 26.878906 34.753906 L 32.609375 34.753906 L 32.609375 36.074219 L 26.878906 36.074219 Z M 26.878906 34.753906 "/><path style=" stroke:none;fill-rule:nonzero;fill:#d9d9d9;fill-opacity:1;" d="M 20.492188 17.703125 L 20.492188 29.785156 L 33.273438 29.785156 L 33.273438 17.703125 Z M 21.8125 28.464844 L 21.8125 25.863281 L 23.621094 24.054688 L 28.03125 28.464844 Z M 31.953125 28.464844 L 29.894531 28.464844 L 27.832031 26.390625 L 29.878906 24.34375 L 31.953125 26.433594 Z M 31.953125 24.558594 L 29.878906 22.484375 L 26.898438 25.46875 L 23.621094 22.179688 L 21.8125 23.988281 L 21.8125 19.023438 L 31.953125 19.023438 Z M 31.953125 24.558594 "/><path style=" stroke:none;fill-rule:nonzero;fill:#d9d9d9;fill-opacity:1;" d="M 28.324219 21.96875 C 28.324219 22.761719 27.675781 23.394531 26.898438 23.394531 C 26.117188 23.394531 25.46875 22.761719 25.46875 21.96875 C 25.46875 21.191406 26.117188 20.554688 26.898438 20.554688 C 27.675781 20.554688 28.324219 21.191406 28.324219 21.96875 Z M 28.324219 21.96875 "/><g style="fill:#d9d9d9;fill-opacity:1;"><g transform="translate(5.151004, 9.600448)"><path style="stroke:none" d="M 0.046875 0.46875 C -0.015625 0.46875 -0.0664062 0.460938 -0.109375 0.453125 L -0.109375 0.3125 C -0.0664062 0.320312 -0.0195312 0.328125 0.03125 0.328125 C 0.0703125 0.328125 0.101562 0.3125 0.125 0.28125 C 0.15625 0.257812 0.171875 0.222656 0.171875 0.171875 L 0.171875 -1.046875 L 0.328125 -1.046875 L 0.328125 0.15625 C 0.328125 0.363281 0.234375 0.46875 0.046875 0.46875 Z M 0.15625 -1.328125 C 0.15625 -1.367188 0.160156 -1.394531 0.171875 -1.40625 C 0.191406 -1.425781 0.21875 -1.4375 0.25 -1.4375 C 0.269531 -1.4375 0.289062 -1.425781 0.3125 -1.40625 C 0.332031 -1.382812 0.34375 -1.359375 0.34375 -1.328125 C 0.34375 -1.296875 0.332031 -1.269531 0.3125 -1.25 C 0.289062 -1.226562 0.269531 -1.21875 0.25 -1.21875 C 0.21875 -1.21875 0.191406 -1.226562 0.171875 -1.25 C 0.160156 -1.269531 0.15625 -1.296875 0.15625 -1.328125 Z M 0.15625 -1.328125 "/></g></g></g></svg>