<svg xmlns="http://www.w3.org/2000/svg" xmlns:xlink="http://www.w3.org/1999/xlink" width="55" zoomAndPan="magnify" viewBox="0 0 41.25 41.250001" height="55" preserveAspectRatio="xMidYMid meet" version="1.2"><defs><clipPath id="4fbb65e4db"><path d="M 1.046875 6.351562 L 39.347656 6.351562 L 39.347656 34.34375 L 1.046875 34.34375 Z M 1.046875 6.351562 "/></clipPath></defs><g id="de64e7a588"><g clip-rule="nonzero" clip-path="url(#4fbb65e4db)"><path style=" stroke:none;fill-rule:nonzero;fill:#d9d9d9;fill-opacity:1;" d="M 24.085938 12.515625 C 25.242188 12.515625 26.183594 11.578125 26.183594 10.421875 L 26.183594 8.628906 C 26.183594 7.472656 25.242188 6.53125 24.085938 6.53125 C 22.929688 6.53125 21.992188 7.472656 21.992188 8.628906 L 21.992188 10.421875 C 21.992188 11.578125 22.929688 12.515625 24.085938 12.515625 Z M 23.191406 8.628906 C 23.191406 8.132812 23.59375 7.730469 24.085938 7.730469 C 24.578125 7.730469 24.984375 8.132812 24.984375 8.628906 L 24.984375 10.421875 C 24.984375 10.914062 24.578125 11.316406 24.085938 11.316406 C 23.59375 11.316406 23.191406 10.914062 23.191406 10.421875 Z M 28.574219 10.125 L 29.769531 10.125 C 30.753906 10.125 31.5625 9.316406 31.5625 8.332031 C 31.5625 7.339844 30.753906 6.539062 29.769531 6.539062 L 27.375 6.539062 L 27.375 12.515625 L 28.574219 12.515625 Z M 28.574219 7.730469 L 29.769531 7.730469 C 30.097656 7.730469 30.367188 8.003906 30.367188 8.332031 C 30.367188 8.660156 30.097656 8.929688 29.769531 8.929688 L 28.574219 8.929688 Z M 34.554688 12.515625 L 32.761719 12.515625 L 32.761719 11.324219 L 34.554688 11.324219 C 34.882812 11.324219 35.152344 11.050781 35.152344 10.722656 C 35.152344 10.394531 34.882812 10.125 34.554688 10.125 C 33.5625 10.125 32.761719 9.316406 32.761719 8.332031 C 32.761719 7.339844 33.566406 6.539062 34.554688 6.539062 L 36.347656 6.539062 L 36.347656 7.738281 L 34.554688 7.738281 C 34.222656 7.738281 33.953125 8.007812 33.953125 8.335938 C 33.953125 8.664062 34.222656 8.9375 34.554688 8.9375 C 35.546875 8.9375 36.347656 9.742188 36.347656 10.730469 C 36.347656 11.710938 35.546875 12.515625 34.554688 12.515625 Z M 15.609375 11.636719 L 14.058594 6.746094 L 15.199219 6.382812 L 16.304688 9.878906 L 17.40625 6.382812 L 18.546875 6.746094 L 17 11.640625 C 16.957031 11.785156 16.929688 11.890625 16.914062 11.960938 C 16.800781 12.449219 16.480469 12.515625 16.296875 12.515625 C 16.117188 12.515625 15.800781 12.441406 15.6875 11.960938 C 15.683594 11.890625 15.65625 11.78125 15.609375 11.636719 Z M 13.019531 12.515625 L 9.429688 12.515625 L 9.429688 6.539062 L 13.019531 6.539062 L 13.019531 7.738281 L 10.628906 7.738281 L 10.628906 8.929688 L 13.019531 8.929688 L 13.019531 10.125 L 10.628906 10.125 L 10.628906 11.324219 L 13.019531 11.324219 Z M 8.234375 10.125 L 8.234375 8.929688 C 8.234375 7.609375 7.164062 6.539062 5.839844 6.539062 L 4.046875 6.539062 L 4.046875 12.515625 L 5.839844 12.515625 C 7.164062 12.515625 8.234375 11.441406 8.234375 10.125 Z M 5.242188 7.730469 L 5.839844 7.730469 C 6.5 7.730469 7.035156 8.265625 7.035156 8.925781 L 7.035156 10.117188 C 7.035156 10.777344 6.5 11.316406 5.839844 11.316406 L 5.242188 11.316406 Z M 39.339844 24.480469 C 39.339844 22.023438 38.351562 19.726562 36.546875 17.945312 L 36.5625 17.929688 L 36.082031 17.507812 L 35.664062 17.144531 L 35.652344 17.152344 C 33.792969 15.699219 31.476562 14.910156 29.058594 14.910156 C 27.152344 14.910156 25.09375 15.742188 22.929688 17.390625 L 22.925781 17.386719 L 22.503906 17.726562 L 21.984375 18.144531 L 21.996094 18.15625 C 21.390625 18.675781 20.792969 19.242188 20.199219 19.863281 C 19.601562 19.242188 19.003906 18.675781 18.398438 18.15625 L 18.410156 18.144531 L 17.890625 17.726562 L 17.472656 17.386719 L 17.464844 17.390625 C 15.304688 15.742188 13.242188 14.910156 11.339844 14.910156 C 8.917969 14.910156 6.601562 15.707031 4.742188 17.152344 L 4.734375 17.144531 L 4.3125 17.507812 L 3.832031 17.929688 L 3.847656 17.945312 C 2.042969 19.726562 1.054688 22.023438 1.054688 24.480469 C 1.054688 26.9375 2.042969 29.234375 3.847656 31.015625 L 3.832031 31.03125 L 4.3125 31.449219 L 4.734375 31.816406 L 4.742188 31.804688 C 6.59375 33.253906 8.917969 34.050781 11.339844 34.050781 C 13.242188 34.050781 15.304688 33.21875 17.464844 31.566406 L 17.472656 31.574219 L 17.890625 31.234375 L 18.410156 30.8125 L 18.398438 30.804688 C 19.003906 30.285156 19.601562 29.714844 20.199219 29.09375 C 20.792969 29.714844 21.390625 30.289062 21.996094 30.804688 L 21.984375 30.8125 L 22.503906 31.234375 L 22.925781 31.574219 L 22.929688 31.566406 C 25.09375 33.21875 27.152344 34.050781 29.058594 34.050781 C 31.476562 34.050781 33.792969 33.253906 35.652344 31.804688 L 35.664062 31.816406 L 36.082031 31.449219 L 36.5625 31.03125 L 36.546875 31.015625 C 38.351562 29.226562 39.339844 26.929688 39.339844 24.480469 Z M 29.058594 32.851562 C 27.457031 32.851562 25.683594 32.128906 23.785156 30.714844 L 25.03125 29.46875 L 26.351562 28.140625 C 27.414062 28.882812 28.320312 29.261719 29.058594 29.261719 C 30.191406 29.261719 31.300781 28.945312 32.230469 28.378906 L 34.804688 30.953125 C 33.175781 32.183594 31.15625 32.851562 29.058594 32.851562 Z M 19.757812 27.824219 C 19.03125 28.613281 18.292969 29.328125 17.554688 29.960938 L 15 27.402344 C 15.695312 26.824219 16.421875 26.136719 17.121094 25.375 C 17.148438 25.351562 17.171875 25.324219 17.195312 25.296875 C 17.214844 25.269531 17.242188 25.242188 17.265625 25.21875 C 17.464844 24.996094 17.667969 24.75 17.921875 24.433594 C 18.023438 24.304688 18.148438 24.140625 18.296875 23.960938 C 18.972656 23.109375 20.03125 21.796875 20.632812 21.144531 C 20.636719 21.136719 20.636719 21.136719 20.644531 21.132812 C 21.363281 20.34375 22.109375 19.625 22.84375 19 L 25.402344 21.558594 C 24.707031 22.136719 23.984375 22.824219 23.28125 23.582031 C 23.253906 23.609375 23.226562 23.636719 23.207031 23.664062 C 23.183594 23.691406 23.15625 23.714844 23.136719 23.738281 C 22.933594 23.960938 22.726562 24.203125 22.480469 24.523438 C 22.335938 24.703125 22.144531 24.941406 21.925781 25.21875 C 21.910156 25.234375 21.902344 25.253906 21.882812 25.269531 C 21.851562 25.308594 21.828125 25.34375 21.792969 25.382812 C 21.753906 25.433594 21.710938 25.488281 21.660156 25.546875 C 21.03125 26.335938 20.257812 27.277344 19.773438 27.804688 C 19.773438 27.804688 19.761719 27.816406 19.757812 27.824219 Z M 5.597656 30.953125 L 8.171875 28.378906 C 9.097656 28.953125 10.203125 29.261719 11.34375 29.261719 C 12.070312 29.261719 12.976562 28.882812 14.042969 28.136719 L 16.617188 30.707031 C 14.71875 32.128906 12.945312 32.847656 11.34375 32.847656 C 9.238281 32.851562 7.222656 32.183594 5.597656 30.953125 Z M 11.339844 16.101562 C 12.941406 16.101562 14.710938 16.824219 16.609375 18.242188 L 15.289062 19.566406 L 14.042969 20.8125 C 12.984375 20.070312 12.074219 19.695312 11.339844 19.695312 C 10.203125 19.695312 9.09375 20.007812 8.164062 20.574219 L 5.59375 18.003906 C 7.222656 16.777344 9.238281 16.101562 11.339844 16.101562 Z M 11.339844 28.066406 C 10.277344 28.066406 9.253906 27.730469 8.457031 27.132812 C 7.554688 26.449219 7.035156 25.484375 7.035156 24.480469 C 7.035156 23.476562 7.554688 22.511719 8.457031 21.828125 C 9.253906 21.222656 10.277344 20.886719 11.339844 20.886719 C 11.65625 20.886719 12.386719 21.042969 13.742188 22.078125 L 13.75 22.082031 C 14.5625 22.703125 15.464844 23.539062 16.320312 24.480469 C 16.320312 24.480469 16.3125 24.484375 16.3125 24.484375 C 15.453125 25.417969 14.5625 26.246094 13.742188 26.878906 L 13.710938 26.898438 C 12.367188 27.914062 11.652344 28.066406 11.339844 28.066406 Z M 17.613281 22.898438 C 17.414062 23.148438 17.230469 23.375 17.09375 23.550781 C 16.40625 22.804688 15.683594 22.121094 15.003906 21.550781 L 17.554688 19 C 18.171875 19.523438 18.785156 20.109375 19.390625 20.738281 C 18.851562 21.359375 18.160156 22.214844 17.613281 22.898438 Z M 5.09375 19.191406 L 7.222656 21.316406 C 6.339844 22.1875 5.839844 23.308594 5.839844 24.480469 C 5.839844 25.648438 6.335938 26.773438 7.222656 27.640625 L 4.691406 30.171875 C 3.113281 28.617188 2.253906 26.613281 2.253906 24.484375 C 2.253906 22.351562 3.113281 20.351562 4.691406 18.796875 Z M 34.796875 18.003906 L 32.222656 20.574219 C 31.296875 20.003906 30.191406 19.695312 29.050781 19.695312 C 28.324219 19.695312 27.417969 20.070312 26.351562 20.820312 L 23.777344 18.246094 C 25.679688 16.824219 27.449219 16.109375 29.050781 16.109375 C 31.15625 16.101562 33.175781 16.777344 34.796875 18.003906 Z M 29.058594 28.066406 C 28.738281 28.066406 28 27.914062 26.652344 26.882812 L 26.644531 26.878906 C 25.832031 26.257812 24.929688 25.417969 24.074219 24.480469 C 24.074219 24.480469 24.082031 24.476562 24.082031 24.476562 C 24.941406 23.535156 25.832031 22.714844 26.652344 22.082031 L 26.675781 22.066406 C 28.023438 21.046875 28.746094 20.894531 29.050781 20.894531 C 30.113281 20.894531 31.136719 21.226562 31.933594 21.832031 C 32.835938 22.515625 33.355469 23.484375 33.355469 24.484375 C 33.355469 25.488281 32.835938 26.453125 31.933594 27.136719 C 31.140625 27.738281 30.117188 28.066406 29.058594 28.066406 Z M 22.53125 26.367188 C 22.542969 26.359375 22.554688 26.34375 22.5625 26.332031 C 22.632812 26.246094 22.703125 26.15625 22.769531 26.078125 C 22.976562 25.820312 23.164062 25.589844 23.304688 25.402344 C 23.996094 26.144531 24.71875 26.835938 25.398438 27.402344 L 22.84375 29.953125 C 22.230469 29.429688 21.613281 28.851562 21.007812 28.214844 C 21.464844 27.691406 22.03125 26.988281 22.53125 26.367188 Z M 35.554688 30.019531 L 33.175781 27.636719 C 34.054688 26.765625 34.554688 25.648438 34.554688 24.476562 C 34.554688 23.308594 34.058594 22.183594 33.175781 21.3125 L 35.703125 18.78125 C 37.28125 20.335938 38.140625 22.335938 38.140625 24.46875 C 38.140625 26.601562 37.28125 28.601562 35.703125 30.15625 Z M 35.554688 30.019531 "/></g><g style="fill:#d9d9d9;fill-opacity:1;"><g transform="translate(15.848562, 11.638394)"><path style="stroke:none" d="M 0.5 -0.109375 C 0.53125 -0.109375 0.554688 -0.109375 0.578125 -0.109375 C 0.609375 -0.117188 0.632812 -0.125 0.65625 -0.125 L 0.65625 -0.015625 C 0.632812 -0.00390625 0.601562 0 0.5625 0 C 0.53125 0.0078125 0.503906 0.015625 0.484375 0.015625 C 0.273438 0.015625 0.171875 -0.0859375 0.171875 -0.296875 L 0.171875 -0.921875 L 0.03125 -0.921875 L 0.03125 -1 L 0.171875 -1.0625 L 0.25 -1.28125 L 0.34375 -1.28125 L 0.34375 -1.046875 L 0.640625 -1.046875 L 0.640625 -0.921875 L 0.34375 -0.921875 L 0.34375 -0.3125 C 0.34375 -0.25 0.351562 -0.195312 0.375 -0.15625 C 0.40625 -0.125 0.445312 -0.109375 0.5 -0.109375 Z M 0.5 -0.109375 "/></g></g></g></svg>