<svg xmlns="http://www.w3.org/2000/svg" xmlns:xlink="http://www.w3.org/1999/xlink" width="55" zoomAndPan="magnify" viewBox="0 0 41.25 41.250001" height="55" preserveAspectRatio="xMidYMid meet" version="1.2"><defs><clipPath id="958fe25ab6"><path d="M 0 10 L 40.511719 10 L 40.511719 33.746094 L 0 33.746094 Z M 0 10 "/></clipPath><clipPath id="8dd384237a"><path d="M 18 5.015625 L 23 5.015625 L 23 9 L 18 9 Z M 18 5.015625 "/></clipPath></defs><g id="128a9d950b"><path style=" stroke:none;fill-rule:nonzero;fill:#d9d9d9;fill-opacity:1;" d="M 3.453125 18.085938 L 7.601562 18.085938 L 7.601562 14.3125 L 3.453125 14.3125 Z M 3.453125 18.085938 "/><g clip-rule="nonzero" clip-path="url(#958fe25ab6)"><path style=" stroke:none;fill-rule:nonzero;fill:#d9d9d9;fill-opacity:1;" d="M 39.980469 17.734375 C 40.074219 17.578125 40.394531 16.898438 40.511719 16.648438 L 39.679688 16.082031 L 39.679688 16.085938 C 38.777344 15.46875 36.691406 15.246094 35.089844 15.550781 C 34.882812 14.027344 34.042969 12.699219 32.511719 11.503906 L 31.632812 10.914062 L 31.046875 11.800781 C 29.894531 13.570312 29.578125 16.476562 30.816406 18.394531 C 30.269531 18.691406 29.199219 19.101562 27.777344 19.074219 L 0.492188 19.074219 C -0.0546875 22.300781 0.855469 26.492188 3.253906 29.371094 C 5.578125 32.160156 9.070312 33.574219 13.632812 33.574219 C 23.515625 33.574219 30.828125 28.972656 34.25 20.605469 C 35.589844 20.632812 38.492188 20.613281 39.980469 17.734375 Z M 39.980469 17.734375 "/></g><path style=" stroke:none;fill-rule:nonzero;fill:#d9d9d9;fill-opacity:1;" d="M 8.347656 14.3125 L 12.496094 14.3125 L 12.496094 18.085938 L 8.347656 18.085938 Z M 8.347656 14.3125 "/><path style=" stroke:none;fill-rule:nonzero;fill:#d9d9d9;fill-opacity:1;" d="M 13.253906 14.3125 L 17.402344 14.3125 L 17.402344 18.085938 L 13.253906 18.085938 Z M 13.253906 14.3125 "/><path style=" stroke:none;fill-rule:nonzero;fill:#d9d9d9;fill-opacity:1;" d="M 23.0625 14.3125 L 27.210938 14.3125 L 27.210938 18.085938 L 23.0625 18.085938 Z M 23.0625 14.3125 "/><path style=" stroke:none;fill-rule:nonzero;fill:#d9d9d9;fill-opacity:1;" d="M 8.347656 9.734375 L 12.496094 9.734375 L 12.496094 13.550781 L 8.347656 13.550781 Z M 8.347656 9.734375 "/><path style=" stroke:none;fill-rule:nonzero;fill:#d9d9d9;fill-opacity:1;" d="M 18.152344 14.320312 L 22.300781 14.320312 L 22.300781 18.09375 L 18.152344 18.09375 Z M 18.152344 14.320312 "/><path style=" stroke:none;fill-rule:nonzero;fill:#d9d9d9;fill-opacity:1;" d="M 18.152344 9.734375 L 22.300781 9.734375 L 22.300781 13.550781 L 18.152344 13.550781 Z M 18.152344 9.734375 "/><g clip-rule="nonzero" clip-path="url(#8dd384237a)"><path style=" stroke:none;fill-rule:nonzero;fill:#d9d9d9;fill-opacity:1;" d="M 18.152344 5.117188 L 22.300781 5.117188 L 22.300781 8.972656 L 18.152344 8.972656 Z M 18.152344 5.117188 "/></g><path style=" stroke:none;fill-rule:nonzero;fill:#d9d9d9;fill-opacity:1;" d="M 13.253906 9.734375 L 17.402344 9.734375 L 17.402344 13.550781 L 13.253906 13.550781 Z M 13.253906 9.734375 "/><g style="fill:#d9d9d9;fill-opacity:1;"><g transform="translate(19.635183, 24.455359)"><path style="stroke:none" d="M 0.328125 0 L 0.171875 0 L 0.171875 -1.046875 L 0.328125 -1.046875 Z M 0.15625 -1.328125 C 0.15625 -1.367188 0.160156 -1.394531 0.171875 -1.40625 C 0.191406 -1.425781 0.21875 -1.4375 0.25 -1.4375 C 0.269531 -1.4375 0.289062 -1.425781 0.3125 -1.40625 C 0.332031 -1.382812 0.34375 -1.359375 0.34375 -1.328125 C 0.34375 -1.296875 0.332031 -1.269531 0.3125 -1.25 C 0.289062 -1.226562 0.269531 -1.21875 0.25 -1.21875 C 0.21875 -1.21875 0.191406 -1.226562 0.171875 -1.25 C 0.160156 -1.269531 0.15625 -1.296875 0.15625 -1.328125 Z M 0.15625 -1.328125 "/></g></g></g></svg>