<svg xmlns="http://www.w3.org/2000/svg" xmlns:xlink="http://www.w3.org/1999/xlink" width="55" zoomAndPan="magnify" viewBox="0 0 41.25 41.250001" height="55" preserveAspectRatio="xMidYMid meet" version="1.2"><defs><clipPath id="a074c627fc"><path d="M 3.476562 1.078125 L 37 1.078125 L 37 39.382812 L 3.476562 39.382812 Z M 3.476562 1.078125 "/></clipPath></defs><g id="9668ba8427"><path style=" stroke:none;fill-rule:nonzero;fill:#d9d9d9;fill-opacity:1;" d="M 12.027344 34.378906 C 11.363281 34.378906 10.699219 34.210938 10.089844 33.871094 L 9.257812 33.40625 C 8.6875 33.085938 8.480469 32.359375 8.800781 31.78125 C 9.121094 31.210938 9.847656 31.003906 10.425781 31.324219 L 11.253906 31.789062 C 11.757812 32.066406 12.332031 32.0625 12.832031 31.769531 C 13.332031 31.476562 13.621094 30.972656 13.621094 30.386719 L 13.621094 13.3125 C 13.621094 12.65625 14.15625 12.121094 14.8125 12.121094 C 15.472656 12.121094 16.003906 12.65625 16.003906 13.3125 L 16.003906 30.386719 C 16.003906 31.816406 15.269531 33.101562 14.035156 33.828125 C 13.410156 34.195312 12.71875 34.378906 12.027344 34.378906 Z M 12.027344 34.378906 "/><g clip-rule="nonzero" clip-path="url(#a074c627fc)"><path style=" stroke:none;fill-rule:nonzero;fill:#d9d9d9;fill-opacity:1;" d="M 20.238281 39.378906 C 19.742188 39.378906 19.242188 39.25 18.800781 38.992188 L 14.984375 36.753906 C 14.414062 36.421875 14.222656 35.691406 14.554688 35.125 C 14.886719 34.554688 15.617188 34.367188 16.1875 34.695312 L 20.003906 36.933594 C 20.148438 37.019531 20.320312 37.019531 20.46875 36.933594 L 34.296875 28.835938 C 34.445312 28.75 34.539062 28.585938 34.539062 28.398438 L 34.539062 12.210938 C 34.539062 12.03125 34.445312 11.863281 34.292969 11.773438 L 20.472656 3.683594 C 20.328125 3.601562 20.152344 3.597656 20.011719 3.683594 L 6.171875 11.777344 C 6.023438 11.863281 5.929688 12.03125 5.929688 12.210938 L 5.929688 28.398438 C 5.929688 28.578125 6.027344 28.75 6.171875 28.835938 L 10.445312 31.335938 C 11.011719 31.667969 11.203125 32.398438 10.871094 32.964844 C 10.539062 33.53125 9.808594 33.722656 9.242188 33.394531 L 4.96875 30.890625 C 4.09375 30.378906 3.546875 29.421875 3.546875 28.398438 L 3.546875 12.210938 C 3.542969 11.191406 4.089844 10.234375 4.964844 9.71875 L 18.800781 1.628906 C 19.6875 1.109375 20.789062 1.105469 21.675781 1.625 L 35.5 9.71875 C 36.378906 10.234375 36.925781 11.191406 36.925781 12.210938 L 36.925781 28.402344 C 36.921875 29.425781 36.378906 30.375 35.503906 30.890625 L 21.675781 38.992188 C 21.230469 39.25 20.734375 39.378906 20.238281 39.378906 Z M 20.238281 39.378906 "/></g><path style=" stroke:none;fill-rule:nonzero;fill:#d9d9d9;fill-opacity:1;" d="M 24.109375 28.496094 C 20.539062 28.496094 16.71875 27.265625 16.71875 23.808594 C 16.71875 23.148438 17.253906 22.613281 17.910156 22.613281 C 18.570312 22.613281 19.105469 23.148438 19.105469 23.808594 C 19.105469 25.628906 22.25 26.113281 24.109375 26.113281 C 27.433594 26.113281 29.117188 25.753906 29.117188 23.808594 C 29.117188 22.828125 27.921875 22.445312 24.984375 21.746094 L 23.824219 21.464844 C 23.464844 21.375 23.089844 21.292969 22.703125 21.207031 C 20.179688 20.652344 16.71875 19.890625 16.71875 16.808594 C 16.71875 13.351562 20.535156 12.117188 24.109375 12.117188 C 27.683594 12.117188 31.5 13.351562 31.5 16.808594 C 31.5 17.46875 30.964844 18 30.308594 18 C 29.648438 18 29.117188 17.46875 29.117188 16.808594 C 29.117188 14.988281 25.96875 14.503906 24.109375 14.503906 C 22.25 14.503906 19.101562 14.988281 19.101562 16.808594 C 19.101562 17.886719 20.886719 18.363281 23.21875 18.878906 C 23.625 18.96875 24.023438 19.058594 24.398438 19.152344 L 25.539062 19.425781 C 28.605469 20.15625 31.5 20.847656 31.5 23.808594 C 31.5 28.496094 26.507812 28.496094 24.109375 28.496094 Z M 24.109375 28.496094 "/><g style="fill:#d9d9d9;fill-opacity:1;"><g transform="translate(12.975795, 7.071431)"><path style="stroke:none" d="M 0.5 -0.109375 C 0.53125 -0.109375 0.554688 -0.109375 0.578125 -0.109375 C 0.609375 -0.117188 0.632812 -0.125 0.65625 -0.125 L 0.65625 -0.015625 C 0.632812 -0.00390625 0.601562 0 0.5625 0 C 0.53125 0.0078125 0.503906 0.015625 0.484375 0.015625 C 0.273438 0.015625 0.171875 -0.0859375 0.171875 -0.296875 L 0.171875 -0.921875 L 0.03125 -0.921875 L 0.03125 -1 L 0.171875 -1.0625 L 0.25 -1.28125 L 0.34375 -1.28125 L 0.34375 -1.046875 L 0.640625 -1.046875 L 0.640625 -0.921875 L 0.34375 -0.921875 L 0.34375 -0.3125 C 0.34375 -0.25 0.351562 -0.195312 0.375 -0.15625 C 0.40625 -0.125 0.445312 -0.109375 0.5 -0.109375 Z M 0.5 -0.109375 "/></g></g></g></svg>