<svg xmlns="http://www.w3.org/2000/svg" xmlns:xlink="http://www.w3.org/1999/xlink" width="55" zoomAndPan="magnify" viewBox="0 0 41.25 41.250001" height="55" preserveAspectRatio="xMidYMid meet" version="1.2"><defs><clipPath id="ae042ed3c4"><path d="M 10.023438 0 L 30.648438 0 L 30.648438 40.511719 L 10.023438 40.511719 Z M 10.023438 0 "/></clipPath><clipPath id="94d49582e7"><path d="M 22.9375 40.515625 L 14.957031 40.515625 L 14.957031 19.988281 L 10.023438 19.988281 L 10.023438 13.21875 L 14.957031 13.21875 L 14.957031 11.042969 C 14.957031 7.40625 15.792969 4.660156 17.464844 2.796875 C 19.15625 0.933594 21.867188 0.00390625 25.609375 0.00390625 C 26.289062 0.00390625 27.117188 0.046875 28.089844 0.136719 C 29.078125 0.207031 29.875 0.289062 30.488281 0.378906 L 30.488281 7.066406 C 30.199219 7.03125 29.769531 6.996094 29.195312 6.960938 C 28.636719 6.90625 28.203125 6.878906 27.898438 6.878906 C 26.136719 6.878906 24.871094 7.238281 24.097656 7.953125 C 23.324219 8.671875 22.9375 9.90625 22.9375 11.660156 L 22.9375 13.21875 L 30.324219 13.21875 L 29.4375 19.988281 L 22.9375 19.988281 Z M 22.9375 40.515625 "/></clipPath></defs><g id="97b0f3310e"><g clip-rule="nonzero" clip-path="url(#ae042ed3c4)"><g clip-rule="nonzero" clip-path="url(#94d49582e7)"><path style=" stroke:none;fill-rule:nonzero;fill:#d9d9d9;fill-opacity:1;" d="M 10.023438 0.00390625 L 10.023438 40.511719 L 30.488281 40.511719 L 30.488281 0.00390625 Z M 10.023438 0.00390625 "/></g></g></g></svg>