<svg xmlns="http://www.w3.org/2000/svg" xmlns:xlink="http://www.w3.org/1999/xlink" width="55" zoomAndPan="magnify" viewBox="0 0 41.25 41.250001" height="55" preserveAspectRatio="xMidYMid meet" version="1.2"><defs><clipPath id="d167e28efd"><path d="M 7 1.554688 L 33 1.554688 L 33 25 L 7 25 Z M 7 1.554688 "/></clipPath><clipPath id="b002efcedf"><path d="M 2.582031 7 L 37.941406 7 L 37.941406 32 L 2.582031 32 Z M 2.582031 7 "/></clipPath><clipPath id="a0b56d974c"><path d="M 2.582031 25 L 37.941406 25 L 37.941406 27 L 2.582031 27 Z M 2.582031 25 "/></clipPath></defs><g id="024b2dd95d"><g clip-rule="nonzero" clip-path="url(#d167e28efd)"><path style=" stroke:none;fill-rule:nonzero;fill:#d9d9d9;fill-opacity:1;" d="M 30.523438 24.195312 L 9.988281 24.195312 C 8.652344 24.195312 7.566406 23.109375 7.566406 21.773438 L 7.566406 3.976562 C 7.566406 2.640625 8.652344 1.558594 9.988281 1.558594 L 30.523438 1.558594 C 31.859375 1.558594 32.945312 2.644531 32.945312 3.976562 L 32.945312 21.773438 C 32.945312 23.109375 31.859375 24.195312 30.523438 24.195312 Z M 9.988281 2.527344 C 9.1875 2.527344 8.539062 3.179688 8.539062 3.976562 L 8.539062 21.773438 C 8.539062 22.574219 9.1875 23.222656 9.988281 23.222656 L 30.523438 23.222656 C 31.324219 23.222656 31.972656 22.574219 31.972656 21.773438 L 31.972656 3.976562 C 31.972656 3.179688 31.324219 2.527344 30.523438 2.527344 Z M 9.988281 2.527344 "/></g><path style=" stroke:none;fill-rule:nonzero;fill:#d9d9d9;fill-opacity:1;" d="M 32.460938 7.484375 L 8.054688 7.484375 C 7.785156 7.484375 7.566406 7.265625 7.566406 7 C 7.566406 6.730469 7.785156 6.511719 8.054688 6.511719 L 32.460938 6.511719 C 32.730469 6.511719 32.945312 6.730469 32.945312 7 C 32.945312 7.265625 32.730469 7.484375 32.460938 7.484375 Z M 32.460938 7.484375 "/><path style=" stroke:none;fill-rule:nonzero;fill:#d9d9d9;fill-opacity:1;" d="M 12.289062 5.84375 L 10.296875 5.84375 C 10.027344 5.84375 9.808594 5.625 9.808594 5.355469 L 9.808594 3.683594 C 9.808594 3.414062 10.027344 3.199219 10.296875 3.199219 L 12.289062 3.199219 C 12.558594 3.199219 12.777344 3.414062 12.777344 3.683594 L 12.777344 5.355469 C 12.773438 5.625 12.558594 5.84375 12.289062 5.84375 Z M 10.78125 4.871094 L 11.804688 4.871094 L 11.804688 4.167969 L 10.78125 4.167969 Z M 10.78125 4.871094 "/><path style=" stroke:none;fill-rule:nonzero;fill:#d9d9d9;fill-opacity:1;" d="M 15.9375 5.84375 L 13.945312 5.84375 C 13.675781 5.84375 13.457031 5.625 13.457031 5.355469 L 13.457031 3.683594 C 13.457031 3.414062 13.675781 3.199219 13.945312 3.199219 L 15.9375 3.199219 C 16.207031 3.199219 16.425781 3.414062 16.425781 3.683594 L 16.425781 5.355469 C 16.425781 5.625 16.207031 5.84375 15.9375 5.84375 Z M 14.429688 4.871094 L 15.453125 4.871094 L 15.453125 4.167969 L 14.429688 4.167969 Z M 14.429688 4.871094 "/><path style=" stroke:none;fill-rule:nonzero;fill:#d9d9d9;fill-opacity:1;" d="M 19.589844 5.84375 L 17.59375 5.84375 C 17.324219 5.84375 17.109375 5.625 17.109375 5.355469 L 17.109375 3.683594 C 17.109375 3.414062 17.324219 3.199219 17.59375 3.199219 L 19.589844 3.199219 C 19.855469 3.199219 20.074219 3.414062 20.074219 3.683594 L 20.074219 5.355469 C 20.074219 5.625 19.855469 5.84375 19.589844 5.84375 Z M 18.078125 4.871094 L 19.101562 4.871094 L 19.101562 4.167969 L 18.078125 4.167969 Z M 18.078125 4.871094 "/><path style=" stroke:none;fill-rule:nonzero;fill:#d9d9d9;fill-opacity:1;" d="M 30.21875 5.84375 L 23.554688 5.84375 C 23.289062 5.84375 23.070312 5.625 23.070312 5.355469 L 23.070312 3.683594 C 23.070312 3.414062 23.289062 3.199219 23.554688 3.199219 L 30.21875 3.199219 C 30.484375 3.199219 30.703125 3.414062 30.703125 3.683594 L 30.703125 5.355469 C 30.703125 5.625 30.484375 5.84375 30.21875 5.84375 Z M 24.042969 4.871094 L 29.730469 4.871094 L 29.730469 4.167969 L 24.042969 4.167969 Z M 24.042969 4.871094 "/><g clip-rule="nonzero" clip-path="url(#b002efcedf)"><path style=" stroke:none;fill-rule:nonzero;fill:#d9d9d9;fill-opacity:1;" d="M 34.625 31.347656 L 5.886719 31.347656 C 4.066406 31.347656 2.582031 29.867188 2.582031 28.042969 L 2.582031 10.5625 C 2.582031 8.738281 4.066406 7.257812 5.886719 7.257812 L 8.050781 7.257812 C 8.320312 7.257812 8.539062 7.472656 8.539062 7.742188 L 8.539062 21.773438 C 8.539062 22.574219 9.1875 23.222656 9.988281 23.222656 L 30.523438 23.222656 C 31.324219 23.222656 31.972656 22.574219 31.972656 21.773438 L 31.972656 7.742188 C 31.972656 7.472656 32.191406 7.257812 32.460938 7.257812 L 34.625 7.257812 C 36.445312 7.257812 37.929688 8.738281 37.929688 10.5625 L 37.929688 28.042969 C 37.929688 29.867188 36.449219 31.347656 34.625 31.347656 Z M 5.886719 8.226562 C 4.601562 8.226562 3.554688 9.273438 3.554688 10.5625 L 3.554688 28.042969 C 3.554688 29.328125 4.601562 30.378906 5.886719 30.378906 L 34.625 30.378906 C 35.910156 30.378906 36.957031 29.332031 36.957031 28.042969 L 36.957031 10.5625 C 36.957031 9.273438 35.910156 8.226562 34.625 8.226562 L 32.945312 8.226562 L 32.945312 21.773438 C 32.945312 23.109375 31.859375 24.195312 30.523438 24.195312 L 9.988281 24.195312 C 8.652344 24.195312 7.566406 23.109375 7.566406 21.773438 L 7.566406 8.226562 Z M 5.886719 8.226562 "/></g><path style=" stroke:none;fill-rule:nonzero;fill:#d9d9d9;fill-opacity:1;" d="M 17.128906 36.28125 C 17.050781 36.28125 16.972656 36.261719 16.898438 36.226562 C 16.664062 36.097656 16.574219 35.804688 16.699219 35.566406 C 18.046875 33.054688 16.914062 31.203125 16.863281 31.125 C 16.722656 30.898438 16.789062 30.597656 17.011719 30.457031 C 17.238281 30.3125 17.535156 30.375 17.683594 30.601562 C 17.746094 30.695312 19.179688 32.988281 17.558594 36.027344 C 17.46875 36.1875 17.300781 36.28125 17.128906 36.28125 Z M 17.128906 36.28125 "/><path style=" stroke:none;fill-rule:nonzero;fill:#d9d9d9;fill-opacity:1;" d="M 23.382812 36.28125 C 23.210938 36.28125 23.042969 36.1875 22.957031 36.027344 C 21.332031 32.992188 22.769531 30.699219 22.832031 30.601562 C 22.976562 30.375 23.277344 30.308594 23.503906 30.457031 C 23.726562 30.601562 23.792969 30.898438 23.648438 31.125 C 23.597656 31.207031 22.46875 33.058594 23.8125 35.566406 C 23.9375 35.804688 23.851562 36.097656 23.613281 36.226562 C 23.539062 36.261719 23.460938 36.28125 23.382812 36.28125 Z M 23.382812 36.28125 "/><path style=" stroke:none;fill-rule:nonzero;fill:#d9d9d9;fill-opacity:1;" d="M 25.925781 38.945312 L 14.589844 38.945312 C 14.320312 38.945312 14.101562 38.726562 14.101562 38.457031 L 14.101562 36.953125 C 14.101562 36.046875 14.839844 35.3125 15.746094 35.3125 L 24.765625 35.3125 C 25.671875 35.3125 26.410156 36.046875 26.410156 36.953125 L 26.410156 38.457031 C 26.410156 38.726562 26.191406 38.945312 25.925781 38.945312 Z M 15.074219 37.972656 L 25.4375 37.972656 L 25.4375 36.953125 C 25.4375 36.582031 25.136719 36.28125 24.765625 36.28125 L 15.746094 36.28125 C 15.375 36.28125 15.074219 36.582031 15.074219 36.953125 Z M 15.074219 37.972656 "/><g clip-rule="nonzero" clip-path="url(#a0b56d974c)"><path style=" stroke:none;fill-rule:nonzero;fill:#d9d9d9;fill-opacity:1;" d="M 37.445312 26.96875 L 3.066406 26.96875 C 2.800781 26.96875 2.582031 26.75 2.582031 26.480469 C 2.582031 26.214844 2.800781 25.996094 3.066406 25.996094 L 37.445312 25.996094 C 37.710938 25.996094 37.929688 26.214844 37.929688 26.480469 C 37.929688 26.75 37.710938 26.96875 37.445312 26.96875 Z M 37.445312 26.96875 "/></g><path style=" stroke:none;fill-rule:nonzero;fill:#d9d9d9;fill-opacity:1;" d="M 6.585938 29.15625 L 5.5625 29.15625 C 5.292969 29.15625 5.074219 28.941406 5.074219 28.671875 C 5.074219 28.40625 5.292969 28.1875 5.5625 28.1875 L 6.585938 28.1875 C 6.855469 28.1875 7.074219 28.40625 7.074219 28.671875 C 7.074219 28.941406 6.855469 29.15625 6.585938 29.15625 Z M 6.585938 29.15625 "/><path style=" stroke:none;fill-rule:nonzero;fill:#d9d9d9;fill-opacity:1;" d="M 9.785156 29.15625 L 8.757812 29.15625 C 8.492188 29.15625 8.273438 28.941406 8.273438 28.671875 C 8.273438 28.40625 8.492188 28.1875 8.757812 28.1875 L 9.785156 28.1875 C 10.050781 28.1875 10.269531 28.40625 10.269531 28.671875 C 10.269531 28.941406 10.050781 29.15625 9.785156 29.15625 Z M 9.785156 29.15625 "/><path style=" stroke:none;fill-rule:nonzero;fill:#d9d9d9;fill-opacity:1;" d="M 12.980469 29.15625 L 11.957031 29.15625 C 11.6875 29.15625 11.472656 28.941406 11.472656 28.671875 C 11.472656 28.40625 11.6875 28.1875 11.957031 28.1875 L 12.980469 28.1875 C 13.25 28.1875 13.46875 28.40625 13.46875 28.671875 C 13.46875 28.941406 13.25 29.15625 12.980469 29.15625 Z M 12.980469 29.15625 "/><path style=" stroke:none;fill-rule:nonzero;fill:#d9d9d9;fill-opacity:1;" d="M 14.425781 15.140625 C 13.34375 15.140625 12.464844 14.257812 12.464844 13.175781 C 12.464844 12.09375 13.34375 11.214844 14.425781 11.214844 C 15.507812 11.214844 16.386719 12.09375 16.386719 13.175781 C 16.386719 14.257812 15.507812 15.140625 14.425781 15.140625 Z M 14.425781 12.1875 C 13.878906 12.1875 13.433594 12.628906 13.433594 13.175781 C 13.433594 13.722656 13.878906 14.167969 14.425781 14.167969 C 14.972656 14.167969 15.417969 13.722656 15.417969 13.175781 C 15.417969 12.628906 14.972656 12.1875 14.425781 12.1875 Z M 14.425781 12.1875 "/><path style=" stroke:none;fill-rule:nonzero;fill:#d9d9d9;fill-opacity:1;" d="M 14.425781 18.398438 C 11.929688 18.398438 9.894531 16.363281 9.894531 13.867188 C 9.894531 11.371094 11.929688 9.335938 14.425781 9.335938 C 16.921875 9.335938 18.957031 11.371094 18.957031 13.867188 C 18.957031 16.363281 16.925781 18.398438 14.425781 18.398438 Z M 14.425781 10.308594 C 12.464844 10.308594 10.867188 11.90625 10.867188 13.867188 C 10.867188 15.828125 12.464844 17.425781 14.425781 17.425781 C 16.386719 17.425781 17.984375 15.828125 17.984375 13.867188 C 17.984375 11.90625 16.386719 10.308594 14.425781 10.308594 Z M 14.425781 10.308594 "/><path style=" stroke:none;fill-rule:nonzero;fill:#d9d9d9;fill-opacity:1;" d="M 14.425781 18.398438 C 13.300781 18.398438 12.222656 17.984375 11.390625 17.230469 C 11.277344 17.128906 11.21875 16.980469 11.230469 16.832031 C 11.339844 15.496094 12.285156 14.355469 13.582031 14 C 13.703125 13.96875 13.832031 13.984375 13.945312 14.042969 C 14.238281 14.207031 14.613281 14.207031 14.90625 14.042969 C 15.019531 13.984375 15.148438 13.96875 15.273438 14 C 16.566406 14.355469 17.511719 15.496094 17.621094 16.832031 C 17.632812 16.980469 17.574219 17.128906 17.460938 17.230469 C 16.628906 17.984375 15.550781 18.398438 14.425781 18.398438 Z M 12.230469 16.671875 C 12.855469 17.160156 13.625 17.425781 14.425781 17.425781 C 15.226562 17.425781 15.996094 17.160156 16.617188 16.671875 C 16.46875 15.902344 15.921875 15.257812 15.179688 14.988281 C 14.703125 15.1875 14.148438 15.1875 13.671875 14.988281 C 12.929688 15.257812 12.382812 15.902344 12.230469 16.671875 Z M 12.230469 16.671875 "/><path style=" stroke:none;fill-rule:nonzero;fill:#d9d9d9;fill-opacity:1;" d="M 32.460938 14.097656 L 18.460938 14.097656 C 18.195312 14.097656 17.976562 13.882812 17.976562 13.613281 C 17.976562 13.34375 18.195312 13.128906 18.460938 13.128906 L 32.460938 13.128906 C 32.726562 13.128906 32.945312 13.34375 32.945312 13.613281 C 32.945312 13.882812 32.730469 14.097656 32.460938 14.097656 Z M 10.390625 14.097656 L 8.050781 14.097656 C 7.785156 14.097656 7.566406 13.882812 7.566406 13.613281 C 7.566406 13.34375 7.785156 13.128906 8.050781 13.128906 L 10.390625 13.128906 C 10.65625 13.128906 10.875 13.34375 10.875 13.613281 C 10.875 13.882812 10.660156 14.097656 10.390625 14.097656 Z M 10.390625 14.097656 "/><path style=" stroke:none;fill-rule:nonzero;fill:#d9d9d9;fill-opacity:1;" d="M 18.371094 20.210938 L 10.480469 20.210938 C 10.210938 20.210938 9.996094 19.992188 9.996094 19.722656 C 9.996094 19.457031 10.210938 19.238281 10.480469 19.238281 L 18.371094 19.238281 C 18.640625 19.238281 18.855469 19.457031 18.855469 19.722656 C 18.855469 19.992188 18.640625 20.210938 18.371094 20.210938 Z M 18.371094 20.210938 "/><path style=" stroke:none;fill-rule:nonzero;fill:#d9d9d9;fill-opacity:1;" d="M 18.371094 22.382812 L 10.480469 22.382812 C 10.210938 22.382812 9.996094 22.164062 9.996094 21.898438 C 9.996094 21.628906 10.210938 21.410156 10.480469 21.410156 L 18.371094 21.410156 C 18.640625 21.410156 18.855469 21.628906 18.855469 21.898438 C 18.855469 22.164062 18.640625 22.382812 18.371094 22.382812 Z M 18.371094 22.382812 "/><path style=" stroke:none;fill-rule:nonzero;fill:#d9d9d9;fill-opacity:1;" d="M 29.5 22.382812 L 21.671875 22.382812 C 21.402344 22.382812 21.183594 22.164062 21.183594 21.898438 L 21.183594 19.722656 C 21.183594 19.453125 21.402344 19.238281 21.671875 19.238281 L 29.5 19.238281 C 29.769531 19.238281 29.984375 19.453125 29.984375 19.722656 L 29.984375 21.898438 C 29.984375 22.167969 29.769531 22.382812 29.5 22.382812 Z M 22.15625 21.414062 L 29.015625 21.414062 L 29.015625 20.210938 L 22.15625 20.210938 Z M 22.15625 21.414062 "/><path style=" stroke:none;fill-rule:nonzero;fill:#d9d9d9;fill-opacity:1;" d="M 29.53125 16.019531 L 21.640625 16.019531 C 21.371094 16.019531 21.15625 15.804688 21.15625 15.535156 C 21.15625 15.265625 21.371094 15.050781 21.640625 15.050781 L 29.53125 15.050781 C 29.796875 15.050781 30.015625 15.265625 30.015625 15.535156 C 30.015625 15.804688 29.796875 16.019531 29.53125 16.019531 Z M 29.53125 16.019531 "/><path style=" stroke:none;fill-rule:nonzero;fill:#d9d9d9;fill-opacity:1;" d="M 29.53125 18.195312 L 21.640625 18.195312 C 21.371094 18.195312 21.15625 17.976562 21.15625 17.707031 C 21.15625 17.441406 21.371094 17.222656 21.640625 17.222656 L 29.53125 17.222656 C 29.796875 17.222656 30.015625 17.441406 30.015625 17.707031 C 30.015625 17.976562 29.796875 18.195312 29.53125 18.195312 Z M 29.53125 18.195312 "/><g style="fill:#d9d9d9;fill-opacity:1;"><g transform="translate(18.058384, 12.669645)"><path style="stroke:none" d="M 0.5 -0.109375 C 0.53125 -0.109375 0.554688 -0.109375 0.578125 -0.109375 C 0.609375 -0.117188 0.632812 -0.125 0.65625 -0.125 L 0.65625 -0.015625 C 0.632812 -0.00390625 0.601562 0 0.5625 0 C 0.53125 0.0078125 0.503906 0.015625 0.484375 0.015625 C 0.273438 0.015625 0.171875 -0.0859375 0.171875 -0.296875 L 0.171875 -0.921875 L 0.03125 -0.921875 L 0.03125 -1 L 0.171875 -1.0625 L 0.25 -1.28125 L 0.34375 -1.28125 L 0.34375 -1.046875 L 0.640625 -1.046875 L 0.640625 -0.921875 L 0.34375 -0.921875 L 0.34375 -0.3125 C 0.34375 -0.25 0.351562 -0.195312 0.375 -0.15625 C 0.40625 -0.125 0.445312 -0.109375 0.5 -0.109375 Z M 0.5 -0.109375 "/></g></g></g></svg>