<svg xmlns="http://www.w3.org/2000/svg" xmlns:xlink="http://www.w3.org/1999/xlink" width="55" zoomAndPan="magnify" viewBox="0 0 41.25 41.250001" height="55" preserveAspectRatio="xMidYMid meet" version="1.2"><g id="08b12429a9"><path style=" stroke:none;fill-rule:nonzero;fill:#d9d9d9;fill-opacity:1;" d="M 31.8125 20.59375 C 31.8125 21.101562 31.714844 21.589844 31.519531 22.058594 C 31.324219 22.53125 31.046875 22.945312 30.6875 23.304688 C 30.328125 23.664062 29.914062 23.941406 29.441406 24.136719 C 28.972656 24.332031 28.484375 24.425781 27.976562 24.425781 C 27.464844 24.425781 26.976562 24.332031 26.507812 24.136719 C 26.039062 23.941406 25.621094 23.664062 25.261719 23.304688 C 24.902344 22.945312 24.625 22.53125 24.433594 22.058594 C 24.238281 21.589844 24.140625 21.101562 24.140625 20.59375 C 24.140625 20.082031 24.238281 19.59375 24.433594 19.125 C 24.625 18.65625 24.902344 18.238281 25.261719 17.878906 C 25.621094 17.519531 26.039062 17.242188 26.507812 17.050781 C 26.976562 16.855469 27.464844 16.757812 27.976562 16.757812 C 28.484375 16.757812 28.972656 16.855469 29.441406 17.050781 C 29.914062 17.242188 30.328125 17.519531 30.6875 17.878906 C 31.046875 18.238281 31.324219 18.65625 31.519531 19.125 C 31.714844 19.59375 31.8125 20.082031 31.8125 20.59375 Z M 31.8125 20.59375 "/><path style=" stroke:none;fill-rule:nonzero;fill:#d9d9d9;fill-opacity:1;" d="M 24.140625 12.921875 C 24.140625 13.429688 24.042969 13.917969 23.847656 14.390625 C 23.652344 14.859375 23.375 15.273438 23.015625 15.632812 C 22.65625 15.992188 22.242188 16.269531 21.773438 16.464844 C 21.300781 16.660156 20.8125 16.757812 20.304688 16.757812 C 19.796875 16.757812 19.308594 16.660156 18.835938 16.464844 C 18.367188 16.269531 17.953125 15.992188 17.59375 15.632812 C 17.234375 15.273438 16.957031 14.859375 16.761719 14.390625 C 16.566406 13.917969 16.46875 13.429688 16.46875 12.921875 C 16.46875 12.414062 16.566406 11.921875 16.761719 11.453125 C 16.957031 10.984375 17.234375 10.570312 17.59375 10.210938 C 17.953125 9.851562 18.367188 9.574219 18.835938 9.378906 C 19.308594 9.183594 19.796875 9.085938 20.304688 9.085938 C 20.8125 9.085938 21.300781 9.183594 21.773438 9.378906 C 22.242188 9.574219 22.65625 9.851562 23.015625 10.210938 C 23.375 10.570312 23.652344 10.984375 23.847656 11.453125 C 24.042969 11.921875 24.140625 12.414062 24.140625 12.921875 Z M 24.140625 12.921875 "/><path style=" stroke:none;fill-rule:nonzero;fill:#d9d9d9;fill-opacity:1;" d="M 24.140625 28.261719 C 24.140625 28.773438 24.042969 29.261719 23.847656 29.730469 C 23.652344 30.199219 23.375 30.617188 23.015625 30.976562 C 22.65625 31.335938 22.242188 31.613281 21.773438 31.804688 C 21.300781 32 20.8125 32.097656 20.304688 32.097656 C 19.796875 32.097656 19.308594 32 18.835938 31.804688 C 18.367188 31.613281 17.953125 31.335938 17.59375 30.976562 C 17.234375 30.617188 16.957031 30.199219 16.761719 29.730469 C 16.566406 29.261719 16.46875 28.773438 16.46875 28.261719 C 16.46875 27.753906 16.566406 27.265625 16.761719 26.796875 C 16.957031 26.324219 17.234375 25.910156 17.59375 25.550781 C 17.953125 25.191406 18.367188 24.914062 18.835938 24.71875 C 19.308594 24.523438 19.796875 24.425781 20.304688 24.425781 C 20.8125 24.425781 21.300781 24.523438 21.773438 24.71875 C 22.242188 24.914062 22.65625 25.191406 23.015625 25.550781 C 23.375 25.910156 23.652344 26.324219 23.847656 26.796875 C 24.042969 27.265625 24.140625 27.753906 24.140625 28.261719 Z M 24.140625 28.261719 "/><path style=" stroke:none;fill-rule:nonzero;fill:#d9d9d9;fill-opacity:1;" d="M 20.304688 28.261719 C 20.050781 28.261719 19.804688 28.214844 19.570312 28.117188 C 19.335938 28.019531 19.128906 27.882812 18.949219 27.703125 C 18.769531 27.523438 18.628906 27.3125 18.53125 27.078125 C 18.4375 26.84375 18.386719 26.601562 18.386719 26.34375 L 18.386719 14.839844 C 18.386719 14.585938 18.4375 14.339844 18.53125 14.105469 C 18.628906 13.871094 18.769531 13.664062 18.949219 13.484375 C 19.128906 13.304688 19.335938 13.164062 19.570312 13.066406 C 19.804688 12.96875 20.050781 12.921875 20.304688 12.921875 C 20.558594 12.921875 20.804688 12.96875 21.039062 13.066406 C 21.273438 13.164062 21.480469 13.304688 21.660156 13.484375 C 21.839844 13.664062 21.980469 13.871094 22.078125 14.105469 C 22.171875 14.339844 22.222656 14.585938 22.222656 14.839844 L 22.222656 26.34375 C 22.222656 26.601562 22.171875 26.84375 22.078125 27.078125 C 21.980469 27.3125 21.839844 27.523438 21.660156 27.703125 C 21.480469 27.882812 21.273438 28.019531 21.039062 28.117188 C 20.804688 28.214844 20.558594 28.261719 20.304688 28.261719 Z M 20.304688 28.261719 "/><path style=" stroke:none;fill-rule:nonzero;fill:#d9d9d9;fill-opacity:1;" d="M 26.058594 20.59375 C 25.527344 20.59375 25.074219 20.40625 24.703125 20.03125 L 20.867188 16.195312 C 20.691406 16.015625 20.558594 15.808594 20.464844 15.574219 C 20.371094 15.339844 20.324219 15.097656 20.328125 14.847656 C 20.332031 14.59375 20.378906 14.351562 20.476562 14.121094 C 20.574219 13.890625 20.710938 13.683594 20.890625 13.507812 C 21.066406 13.328125 21.273438 13.191406 21.503906 13.09375 C 21.734375 12.996094 21.976562 12.949219 22.230469 12.945312 C 22.480469 12.941406 22.722656 12.988281 22.957031 13.082031 C 23.191406 13.175781 23.398438 13.308594 23.578125 13.484375 L 27.414062 17.320312 C 27.6875 17.59375 27.863281 17.921875 27.9375 18.300781 C 28.015625 18.679688 27.976562 19.050781 27.828125 19.410156 C 27.679688 19.765625 27.445312 20.054688 27.121094 20.269531 C 26.800781 20.484375 26.445312 20.59375 26.058594 20.59375 Z M 26.058594 20.59375 "/><path style=" stroke:none;fill-rule:nonzero;fill:#d9d9d9;fill-opacity:1;" d="M 18.386719 12.921875 C 17.855469 12.921875 17.40625 12.734375 17.03125 12.359375 L 13.386719 8.714844 C 13.210938 8.535156 13.078125 8.328125 12.984375 8.09375 C 12.894531 7.859375 12.847656 7.617188 12.847656 7.367188 C 12.851562 7.117188 12.902344 6.875 13 6.640625 C 13.09375 6.410156 13.234375 6.207031 13.410156 6.027344 C 13.589844 5.851562 13.792969 5.710938 14.023438 5.617188 C 14.257812 5.519531 14.5 5.46875 14.75 5.464844 C 15 5.464844 15.242188 5.507812 15.476562 5.601562 C 15.710938 5.695312 15.917969 5.828125 16.097656 6.003906 L 19.742188 9.648438 C 20.015625 9.921875 20.191406 10.25 20.265625 10.628906 C 20.34375 11.011719 20.308594 11.378906 20.160156 11.738281 C 20.011719 12.097656 19.773438 12.382812 19.453125 12.597656 C 19.128906 12.8125 18.773438 12.921875 18.386719 12.921875 Z M 18.386719 12.921875 "/><path style=" stroke:none;fill-rule:nonzero;fill:#d9d9d9;fill-opacity:1;" d="M 20.304688 39.742188 C 19.515625 39.75 18.753906 39.609375 18.023438 39.316406 C 17.289062 39.023438 16.640625 38.605469 16.074219 38.058594 L 2.839844 24.824219 C 2.570312 24.542969 2.332031 24.234375 2.125 23.90625 C 1.914062 23.578125 1.738281 23.230469 1.59375 22.871094 C 1.449219 22.507812 1.339844 22.136719 1.265625 21.75 C 1.191406 21.367188 1.15625 20.980469 1.15625 20.59375 C 1.15625 20.203125 1.191406 19.816406 1.265625 19.433594 C 1.339844 19.050781 1.449219 18.675781 1.59375 18.316406 C 1.738281 17.953125 1.914062 17.605469 2.125 17.277344 C 2.332031 16.949219 2.570312 16.644531 2.839844 16.359375 L 16.074219 3.128906 C 16.355469 2.859375 16.660156 2.621094 16.992188 2.410156 C 17.320312 2.199219 17.664062 2.023438 18.027344 1.878906 C 18.390625 1.734375 18.761719 1.625 19.144531 1.550781 C 19.527344 1.480469 19.914062 1.441406 20.304688 1.441406 C 20.695312 1.441406 21.082031 1.480469 21.464844 1.550781 C 21.847656 1.625 22.222656 1.734375 22.582031 1.878906 C 22.945312 2.023438 23.292969 2.199219 23.621094 2.410156 C 23.949219 2.621094 24.253906 2.859375 24.539062 3.128906 L 37.769531 16.359375 C 38.039062 16.644531 38.277344 16.949219 38.488281 17.277344 C 38.695312 17.605469 38.875 17.953125 39.019531 18.316406 C 39.164062 18.675781 39.269531 19.050781 39.34375 19.433594 C 39.417969 19.816406 39.453125 20.203125 39.453125 20.59375 C 39.453125 20.980469 39.417969 21.367188 39.34375 21.75 C 39.269531 22.136719 39.164062 22.507812 39.019531 22.871094 C 38.875 23.230469 38.695312 23.578125 38.488281 23.90625 C 38.277344 24.234375 38.039062 24.542969 37.769531 24.824219 L 24.539062 38.058594 C 23.972656 38.605469 23.320312 39.023438 22.585938 39.316406 C 21.855469 39.609375 21.09375 39.75 20.304688 39.742188 Z M 20.304688 5.277344 C 19.722656 5.257812 19.214844 5.445312 18.785156 5.839844 L 5.554688 19.070312 C 5.371094 19.285156 5.234375 19.519531 5.136719 19.78125 C 5.039062 20.042969 4.992188 20.3125 4.992188 20.59375 C 4.992188 20.871094 5.039062 21.140625 5.136719 21.402344 C 5.234375 21.664062 5.371094 21.902344 5.554688 22.113281 L 18.785156 35.34375 C 19 35.519531 19.238281 35.652344 19.5 35.742188 C 19.757812 35.835938 20.027344 35.878906 20.304688 35.878906 C 20.582031 35.878906 20.847656 35.835938 21.109375 35.742188 C 21.371094 35.652344 21.609375 35.519531 21.824219 35.34375 L 35.054688 22.113281 C 35.238281 21.902344 35.375 21.664062 35.472656 21.402344 C 35.570312 21.140625 35.617188 20.871094 35.617188 20.59375 C 35.617188 20.3125 35.570312 20.042969 35.472656 19.78125 C 35.375 19.519531 35.238281 19.285156 35.054688 19.070312 L 21.824219 5.839844 C 21.394531 5.445312 20.886719 5.257812 20.304688 5.277344 Z M 20.304688 5.277344 "/></g></svg>