<svg xmlns="http://www.w3.org/2000/svg" xmlns:xlink="http://www.w3.org/1999/xlink" width="55" zoomAndPan="magnify" viewBox="0 0 41.25 41.250001" height="55" preserveAspectRatio="xMidYMid meet" version="1.2"><defs><clipPath id="dc05d6084d"><path d="M 4 2 L 38 2 L 38 38.765625 L 4 38.765625 Z M 4 2 "/></clipPath><clipPath id="40d407a21b"><path d="M 1.097656 26 L 17 26 L 17 38.765625 L 1.097656 38.765625 Z M 1.097656 26 "/></clipPath></defs><g id="ba7ef01ca3"><g clip-rule="nonzero" clip-path="url(#dc05d6084d)"><path style=" stroke:none;fill-rule:nonzero;fill:#d9d9d9;fill-opacity:1;" d="M 5.933594 5.757812 C 6.035156 4.074219 6.472656 3.34375 7.726562 2.757812 C 9.074219 2.125 11.199219 2.417969 13.699219 3.582031 C 14.777344 4.085938 14.886719 4.09375 16.777344 3.871094 C 19.285156 3.578125 22.519531 3.578125 24.835938 3.875 C 26.585938 4.101562 26.703125 4.089844 27.78125 3.585938 C 31.332031 1.933594 34.136719 2.039062 35.152344 3.871094 C 35.660156 4.785156 35.753906 7.15625 35.359375 9.109375 C 35.144531 10.195312 35.164062 10.328125 35.691406 11.042969 C 39.382812 16.046875 36.722656 24.160156 30.394531 27.1875 C 29.910156 27.417969 29.503906 27.5625 29.171875 27.679688 C 28.148438 28.039062 27.839844 28.144531 28.214844 29.796875 C 28.394531 30.589844 28.613281 32.566406 28.699219 34.183594 C 28.855469 37.109375 28.851562 37.132812 28.292969 37.726562 C 27.535156 38.539062 26.4375 38.554688 25.699219 37.761719 C 25.214844 37.242188 25.167969 37 25.167969 35.003906 C 25.167969 32.050781 24.816406 30.09375 23.984375 28.410156 C 22.996094 26.414062 23.730469 25.667969 25.988281 25.21875 C 29.128906 24.597656 31.578125 22.816406 32.945312 20.164062 C 34.246094 17.640625 34.441406 14.152344 32.09375 12.03125 C 31.421875 11.304688 31.378906 10.640625 31.855469 8.648438 C 32.03125 7.902344 32.183594 6.941406 32.1875 6.507812 C 32.191406 5.828125 32.125 5.726562 31.671875 5.726562 C 31.382812 5.726562 30.289062 6.109375 29.234375 6.582031 L 27.554688 7.328125 C 27.402344 7.398438 27.230469 7.425781 27.0625 7.40625 C 22.785156 6.957031 18.726562 6.949219 14.429688 7.410156 C 14.261719 7.425781 14.089844 7.402344 13.9375 7.332031 L 12.253906 6.582031 C 11.203125 6.113281 10.105469 5.726562 9.816406 5.726562 C 9.15625 5.726562 9.144531 6.179688 9.75 8.855469 C 10.117188 10.492188 10.367188 10.855469 9.300781 12.160156 C 7.699219 14.121094 7.296875 16.554688 8.15625 19.113281 C 9.238281 22.335938 11.886719 24.511719 15.613281 25.238281 C 17.859375 25.675781 18.445312 26.246094 17.589844 28.613281 C 16.914062 30.480469 16.488281 30.960938 15.507812 30.960938 C 14.1875 30.960938 13.359375 29.90625 13.816406 28.808594 C 14.015625 28.324219 13.953125 28.269531 12.71875 27.855469 C 8.945312 26.589844 6.058594 23.753906 4.738281 20.011719 C 3.71875 17.121094 4.167969 13.355469 5.800781 11.082031 C 6.359375 10.308594 6.367188 10.242188 6.109375 8.757812 C 5.960938 7.921875 5.882812 6.570312 5.933594 5.757812 Z M 5.933594 5.757812 "/></g><g clip-rule="nonzero" clip-path="url(#40d407a21b)"><path style=" stroke:none;fill-rule:nonzero;fill:#d9d9d9;fill-opacity:1;" d="M 4.613281 26.910156 C 4.070312 26.160156 2.96875 25.957031 2.152344 26.457031 C 1.335938 26.957031 1.117188 27.96875 1.660156 28.71875 C 2.0625 29.273438 2.542969 29.730469 2.949219 30.105469 C 3.023438 30.171875 3.097656 30.242188 3.167969 30.304688 C 3.511719 30.617188 3.8125 30.894531 4.113281 31.222656 C 4.785156 31.945312 5.453125 32.917969 5.835938 34.667969 C 6.003906 35.445312 6.613281 35.863281 6.949219 36.046875 C 7.316406 36.246094 7.714844 36.363281 8.042969 36.441406 C 8.714844 36.597656 9.53125 36.675781 10.304688 36.726562 C 11.15625 36.777344 12.078125 36.792969 12.902344 36.796875 C 12.902344 37.699219 13.695312 38.429688 14.675781 38.429688 C 15.65625 38.429688 16.453125 37.699219 16.453125 36.796875 L 16.453125 35.164062 C 16.453125 34.261719 15.65625 33.53125 14.675781 33.53125 C 14.511719 33.53125 14.328125 33.53125 14.136719 33.535156 C 13.09375 33.535156 11.738281 33.539062 10.542969 33.46875 C 9.964844 33.433594 9.492188 33.382812 9.140625 33.320312 C 8.605469 31.386719 7.742188 30.101562 6.820312 29.105469 C 6.410156 28.664062 5.988281 28.28125 5.644531 27.964844 C 5.582031 27.90625 5.519531 27.851562 5.460938 27.796875 C 5.0625 27.429688 4.804688 27.171875 4.613281 26.910156 Z M 4.613281 26.910156 "/></g><g style="fill:#d9d9d9;fill-opacity:1;"><g transform="translate(4.062849, 18.562502)"><path style="stroke:none" d="M 0.5 -0.109375 C 0.53125 -0.109375 0.554688 -0.109375 0.578125 -0.109375 C 0.609375 -0.117188 0.632812 -0.125 0.65625 -0.125 L 0.65625 -0.015625 C 0.632812 -0.00390625 0.601562 0 0.5625 0 C 0.53125 0.0078125 0.503906 0.015625 0.484375 0.015625 C 0.273438 0.015625 0.171875 -0.0859375 0.171875 -0.296875 L 0.171875 -0.921875 L 0.03125 -0.921875 L 0.03125 -1 L 0.171875 -1.0625 L 0.25 -1.28125 L 0.34375 -1.28125 L 0.34375 -1.046875 L 0.640625 -1.046875 L 0.640625 -0.921875 L 0.34375 -0.921875 L 0.34375 -0.3125 C 0.34375 -0.25 0.351562 -0.195312 0.375 -0.15625 C 0.40625 -0.125 0.445312 -0.109375 0.5 -0.109375 Z M 0.5 -0.109375 "/></g></g></g></svg>