<svg xmlns="http://www.w3.org/2000/svg" xmlns:xlink="http://www.w3.org/1999/xlink" width="55" zoomAndPan="magnify" viewBox="0 0 41.25 41.250001" height="55" preserveAspectRatio="xMidYMid meet" version="1.2"><defs><clipPath id="33fdc0066c"><path d="M 3.089844 1 L 37.710938 1 L 37.710938 39.300781 L 3.089844 39.300781 Z M 3.089844 1 "/></clipPath></defs><g id="255c1c448c"><g clip-rule="nonzero" clip-path="url(#33fdc0066c)"><path style=" stroke:none;fill-rule:nonzero;fill:#d9d9d9;fill-opacity:1;" d="M 37.039062 1.3125 C 36.882812 1.140625 36.660156 1.042969 36.425781 1.042969 L 3.972656 1.042969 C 3.742188 1.042969 3.519531 1.140625 3.359375 1.3125 C 3.203125 1.484375 3.125 1.714844 3.148438 1.949219 L 6.070312 34.695312 C 6.101562 35.039062 6.339844 35.328125 6.671875 35.421875 L 19.96875 39.21875 C 20.042969 39.242188 20.121094 39.25 20.195312 39.25 C 20.273438 39.25 20.351562 39.242188 20.425781 39.21875 L 33.734375 35.421875 C 34.0625 35.328125 34.300781 35.039062 34.332031 34.695312 L 37.253906 1.949219 C 37.273438 1.714844 37.199219 1.484375 37.039062 1.3125 Z M 30.039062 12.605469 L 14.417969 12.605469 L 14.789062 16.832031 L 29.664062 16.832031 L 28.550781 29.324219 L 20.195312 31.851562 L 20.113281 31.824219 L 11.855469 29.324219 L 11.40625 24.230469 L 15.449219 24.230469 L 15.628906 26.210938 L 20.242188 27.175781 L 24.773438 26.207031 L 25.257812 20.863281 L 11.101562 20.863281 L 10.003906 8.5625 L 30.402344 8.5625 Z M 30.039062 12.605469 "/></g><g style="fill:#d9d9d9;fill-opacity:1;"><g transform="translate(11.900809, 5.328127)"><path style="stroke:none" d="M 0.046875 0.46875 C -0.015625 0.46875 -0.0664062 0.460938 -0.109375 0.453125 L -0.109375 0.3125 C -0.0664062 0.320312 -0.0195312 0.328125 0.03125 0.328125 C 0.0703125 0.328125 0.101562 0.3125 0.125 0.28125 C 0.15625 0.257812 0.171875 0.222656 0.171875 0.171875 L 0.171875 -1.046875 L 0.328125 -1.046875 L 0.328125 0.15625 C 0.328125 0.363281 0.234375 0.46875 0.046875 0.46875 Z M 0.15625 -1.328125 C 0.15625 -1.367188 0.160156 -1.394531 0.171875 -1.40625 C 0.191406 -1.425781 0.21875 -1.4375 0.25 -1.4375 C 0.269531 -1.4375 0.289062 -1.425781 0.3125 -1.40625 C 0.332031 -1.382812 0.34375 -1.359375 0.34375 -1.328125 C 0.34375 -1.296875 0.332031 -1.269531 0.3125 -1.25 C 0.289062 -1.226562 0.269531 -1.21875 0.25 -1.21875 C 0.21875 -1.21875 0.191406 -1.226562 0.171875 -1.25 C 0.160156 -1.269531 0.15625 -1.296875 0.15625 -1.328125 Z M 0.15625 -1.328125 "/></g></g></g></svg>