<svg xmlns="http://www.w3.org/2000/svg" xmlns:xlink="http://www.w3.org/1999/xlink" width="55" zoomAndPan="magnify" viewBox="0 0 41.25 41.250001" height="55" preserveAspectRatio="xMidYMid meet" version="1.2"><defs><clipPath id="407dc7dead"><path d="M 1.253906 1.472656 L 39.554688 1.472656 L 39.554688 39.777344 L 1.253906 39.777344 Z M 1.253906 1.472656 "/></clipPath></defs><g id="21df116f8d"><g clip-rule="nonzero" clip-path="url(#407dc7dead)"><path style=" stroke:none;fill-rule:nonzero;fill:#d9d9d9;fill-opacity:1;" d="M 36.085938 7.3125 C 36.085938 7.980469 35.839844 8.589844 35.433594 9.054688 C 37.832031 12.238281 39.257812 16.191406 39.257812 20.476562 C 39.257812 30.953125 30.730469 39.476562 20.253906 39.476562 C 9.777344 39.476562 1.253906 30.953125 1.253906 20.476562 C 1.253906 9.996094 9.777344 1.472656 20.253906 1.472656 C 24.535156 1.472656 28.492188 2.898438 31.671875 5.296875 C 32.140625 4.890625 32.75 4.644531 33.417969 4.644531 C 34.890625 4.644531 36.085938 5.835938 36.085938 7.3125 Z M 20.253906 38.839844 C 30.378906 38.839844 38.617188 30.601562 38.617188 20.476562 C 38.617188 16.359375 37.253906 12.554688 34.957031 9.488281 C 34.523438 9.796875 33.992188 9.976562 33.417969 9.976562 C 31.945312 9.976562 30.75 8.785156 30.75 7.3125 C 30.75 6.738281 30.933594 6.207031 31.242188 5.773438 C 28.175781 3.472656 24.371094 2.113281 20.253906 2.113281 C 10.128906 2.113281 1.890625 10.351562 1.890625 20.476562 C 1.890625 30.601562 10.128906 38.839844 20.253906 38.839844 Z M 20.253906 28.234375 C 15.96875 28.234375 12.496094 24.761719 12.496094 20.476562 C 12.496094 16.191406 15.96875 12.71875 20.253906 12.71875 C 24.539062 12.71875 28.011719 16.191406 28.011719 20.476562 C 28.011719 24.761719 24.539062 28.234375 20.253906 28.234375 Z M 20.253906 28.234375 "/></g><g style="fill:#d9d9d9;fill-opacity:1;"><g transform="translate(20.003487, 20.625002)"><path style="stroke:none" d="M 0.328125 0 L 0.171875 0 L 0.171875 -1.046875 L 0.328125 -1.046875 Z M 0.15625 -1.328125 C 0.15625 -1.367188 0.160156 -1.394531 0.171875 -1.40625 C 0.191406 -1.425781 0.21875 -1.4375 0.25 -1.4375 C 0.269531 -1.4375 0.289062 -1.425781 0.3125 -1.40625 C 0.332031 -1.382812 0.34375 -1.359375 0.34375 -1.328125 C 0.34375 -1.296875 0.332031 -1.269531 0.3125 -1.25 C 0.289062 -1.226562 0.269531 -1.21875 0.25 -1.21875 C 0.21875 -1.21875 0.191406 -1.226562 0.171875 -1.25 C 0.160156 -1.269531 0.15625 -1.296875 0.15625 -1.328125 Z M 0.15625 -1.328125 "/></g></g></g></svg>