<svg xmlns="http://www.w3.org/2000/svg" xmlns:xlink="http://www.w3.org/1999/xlink" width="55" zoomAndPan="magnify" viewBox="0 0 41.25 41.250001" height="55" preserveAspectRatio="xMidYMid meet" version="1.2"><defs><clipPath id="3c70ad9095"><path d="M 15 1.011719 L 29 1.011719 L 29 24 L 15 24 Z M 15 1.011719 "/></clipPath></defs><g id="e407c4cbeb"><path style=" stroke:none;fill-rule:nonzero;fill:#d9d9d9;fill-opacity:1;" d="M 15.332031 30.351562 C 15.332031 30.351562 13.875 31.238281 16.347656 31.492188 C 19.324219 31.871094 20.910156 31.808594 24.203125 31.175781 C 24.867188 31.582031 25.5625 31.917969 26.292969 32.1875 C 18.882812 35.359375 9.5 32 15.332031 30.351562 Z M 14.382812 26.234375 C 14.382812 26.234375 12.800781 27.4375 15.269531 27.691406 C 18.503906 28.007812 21.035156 28.070312 25.410156 27.183594 C 25.839844 27.621094 26.347656 27.9375 26.929688 28.136719 C 17.996094 30.796875 7.984375 28.386719 14.382812 26.234375 Z M 31.871094 33.453125 C 31.871094 33.453125 32.949219 34.339844 30.667969 35.039062 C 26.421875 36.308594 12.863281 36.6875 9.0625 35.039062 C 7.730469 34.46875 10.265625 33.644531 11.078125 33.519531 C 11.902344 33.328125 12.347656 33.328125 12.347656 33.328125 C 10.886719 32.316406 2.652344 35.417969 8.164062 36.304688 C 23.308594 38.777344 35.792969 35.230469 31.863281 33.453125 Z M 16.019531 21.921875 C 16.019531 21.921875 9.113281 23.570312 13.546875 24.140625 C 15.449219 24.394531 19.1875 24.332031 22.671875 24.078125 C 25.523438 23.824219 28.375 23.320312 28.375 23.320312 C 28.375 23.320312 27.359375 23.761719 26.664062 24.207031 C 19.632812 26.042969 6.132812 25.21875 10 23.320312 C 13.292969 21.734375 16.019531 21.925781 16.019531 21.925781 Z M 28.375 28.828125 C 35.472656 25.152344 32.175781 21.609375 29.894531 22.050781 C 29.324219 22.175781 29.070312 22.304688 29.070312 22.304688 C 29.070312 22.304688 29.261719 21.925781 29.703125 21.796875 C 34.203125 20.214844 37.75 26.550781 28.246094 29.019531 C 28.246094 29.019531 28.308594 28.957031 28.371094 28.828125 Z M 16.71875 38.839844 C 23.558594 39.285156 34.015625 38.585938 34.269531 35.355469 C 34.269531 35.355469 33.761719 36.625 28.628906 37.570312 C 22.800781 38.648438 15.578125 38.519531 11.332031 37.824219 C 11.332031 37.824219 12.21875 38.585938 16.71875 38.839844 Z M 16.71875 38.839844 "/><g clip-rule="nonzero" clip-path="url(#3c70ad9095)"><path style=" stroke:none;fill-rule:nonzero;fill:#d9d9d9;fill-opacity:1;" d="M 24.078125 1.015625 C 24.078125 1.015625 28.007812 5.003906 20.339844 11.023438 C 14.191406 15.902344 18.945312 18.691406 20.339844 21.859375 C 16.726562 18.628906 14.128906 15.777344 15.90625 13.117188 C 18.5 9.1875 25.660156 7.296875 24.078125 1.015625 Z M 22.0625 19.199219 C 23.898438 21.289062 21.554688 23.191406 21.554688 23.191406 C 21.554688 23.191406 26.242188 20.785156 24.089844 17.804688 C 22.125 14.953125 20.601562 13.558594 28.839844 8.808594 C 28.839844 8.808594 15.851562 12.039062 22.0625 19.199219 Z M 22.0625 19.199219 "/></g></g></svg>