<svg xmlns="http://www.w3.org/2000/svg" xmlns:xlink="http://www.w3.org/1999/xlink" width="55" zoomAndPan="magnify" viewBox="0 0 41.25 41.250001" height="55" preserveAspectRatio="xMidYMid meet" version="1.2"><defs><clipPath id="17393af1b8"><path d="M 2 2 L 38.738281 2 L 38.738281 39 L 2 39 Z M 2 2 "/></clipPath></defs><g id="6e7ecebe38"><g clip-rule="nonzero" clip-path="url(#17393af1b8)"><path style=" stroke:none;fill-rule:nonzero;fill:#d9d9d9;fill-opacity:1;" d="M 38.355469 32.035156 L 32.664062 28.03125 C 34.90625 25.316406 36.3125 21.4375 36.3125 17.136719 C 36.3125 8.945312 31.210938 2.277344 24.933594 2.277344 C 24.316406 2.28125 23.707031 2.34375 23.105469 2.472656 C 23.058594 2.453125 23.007812 2.4375 22.957031 2.429688 C 16.550781 1.585938 13.597656 4.472656 12.941406 5.234375 C 10.167969 5.941406 9.304688 8.136719 9.203125 9.433594 C 9.078125 9.46875 8.972656 9.496094 8.894531 9.519531 C 5.324219 10.738281 6.921875 16.398438 7.097656 16.980469 C 6.558594 17.914062 6.296875 18.917969 6.304688 19.996094 C 6.304688 22.671875 7.941406 24.851562 9.957031 24.851562 C 10.023438 24.851562 10.089844 24.847656 10.15625 24.84375 C 10.523438 26.050781 11.039062 27.195312 11.703125 28.273438 L 2.425781 34.085938 C 2.226562 34.210938 2.101562 34.386719 2.046875 34.613281 C 1.992188 34.839844 2.019531 35.054688 2.136719 35.257812 L 4.105469 38.574219 C 4.21875 38.761719 4.382812 38.855469 4.597656 38.855469 L 10.308594 38.855469 C 10.539062 38.855469 10.707031 38.75 10.8125 38.546875 C 10.921875 38.34375 10.90625 38.144531 10.773438 37.957031 L 7.003906 32.566406 L 9.453125 31.03125 C 9.992188 31.851562 10.625 32.589844 11.347656 33.25 C 12.074219 33.910156 12.867188 34.472656 13.730469 34.9375 C 14.597656 35.398438 15.503906 35.746094 16.457031 35.984375 C 17.410156 36.21875 18.375 36.332031 19.355469 36.328125 C 19.460938 36.328125 19.570312 36.328125 19.679688 36.324219 C 19.703125 36.320312 19.722656 36.320312 19.742188 36.316406 L 19.738281 37.722656 C 19.738281 38.140625 19.914062 38.460938 20.273438 38.679688 C 20.636719 38.910156 21.011719 38.925781 21.394531 38.734375 L 24.40625 37.230469 C 24.777344 37.5625 25.214844 37.742188 25.710938 37.769531 C 25.75 37.769531 25.792969 37.769531 25.832031 37.769531 C 26.375 37.773438 26.847656 37.59375 27.25 37.238281 C 27.300781 37.195312 27.34375 37.148438 27.386719 37.105469 L 30.65625 38.734375 C 31.039062 38.925781 31.414062 38.910156 31.777344 38.679688 C 32.136719 38.460938 32.3125 38.140625 32.3125 37.722656 L 32.308594 35.964844 C 33.226562 35.613281 34.023438 35.078125 34.695312 34.359375 C 35.367188 33.640625 35.847656 32.8125 36.140625 31.875 L 37.335938 32.714844 L 35.300781 38.082031 C 35.265625 38.167969 35.253906 38.257812 35.265625 38.351562 C 35.277344 38.445312 35.3125 38.53125 35.363281 38.609375 C 35.417969 38.683594 35.484375 38.746094 35.570312 38.789062 C 35.652344 38.832031 35.742188 38.855469 35.835938 38.855469 C 36.066406 38.855469 38.601562 38.855469 38.601562 38.855469 L 38.601562 32.710938 C 38.601562 32.335938 38.570312 32.183594 38.355469 32.035156 Z M 19.746094 35.1875 C 19.714844 35.183594 19.683594 35.179688 19.652344 35.179688 C 19.554688 35.183594 19.457031 35.183594 19.359375 35.183594 C 18.472656 35.191406 17.601562 35.089844 16.746094 34.875 C 15.886719 34.664062 15.066406 34.351562 14.285156 33.9375 C 13.507812 33.519531 12.789062 33.015625 12.136719 32.421875 C 11.480469 31.828125 10.910156 31.160156 10.421875 30.425781 L 12.34375 29.21875 C 13.820312 31.207031 16.140625 33.125 19.691406 33.421875 C 19.707031 33.425781 19.722656 33.425781 19.738281 33.425781 C 19.742188 33.425781 19.746094 33.425781 19.75 33.425781 Z M 26.820312 35.714844 C 26.804688 35.980469 26.699219 36.203125 26.496094 36.378906 C 26.289062 36.5625 26.046875 36.644531 25.773438 36.625 C 25.507812 36.617188 25.28125 36.519531 25.097656 36.324219 C 24.914062 36.128906 24.824219 35.898438 24.832031 35.632812 C 24.839844 35.363281 24.941406 35.140625 25.132812 34.953125 C 25.328125 34.769531 25.558594 34.679688 25.824219 34.6875 C 25.84375 34.6875 25.863281 34.6875 25.882812 34.6875 C 26.15625 34.703125 26.386719 34.8125 26.570312 35.015625 C 26.753906 35.210938 26.835938 35.445312 26.820312 35.714844 Z M 31.667969 32.117188 C 31.320312 31.945312 30.976562 31.945312 30.632812 32.121094 L 27.066406 33.9375 C 26.722656 33.699219 26.347656 33.566406 25.929688 33.546875 C 25.515625 33.527344 25.128906 33.621094 24.765625 33.824219 L 21.417969 32.121094 C 21.1875 32.003906 20.941406 31.96875 20.6875 32.015625 C 20.433594 32.0625 20.21875 32.179688 20.042969 32.375 C 19.964844 32.324219 19.878906 32.292969 19.785156 32.285156 C 13.734375 31.773438 11.699219 26.097656 11.25 24.542969 C 11.503906 24.414062 11.738281 24.257812 11.953125 24.070312 C 12.074219 23.964844 12.140625 23.835938 12.152344 23.675781 C 12.164062 23.519531 12.117188 23.382812 12.011719 23.261719 C 11.910156 23.140625 11.777344 23.078125 11.621094 23.066406 C 11.464844 23.054688 11.324219 23.101562 11.207031 23.203125 C 10.851562 23.53125 10.4375 23.699219 9.957031 23.710938 C 8.597656 23.710938 7.449219 22.007812 7.449219 19.996094 C 7.449219 17.980469 8.597656 16.28125 9.957031 16.28125 C 10.640625 16.3125 11.179688 16.613281 11.574219 17.171875 C 11.671875 17.296875 11.800781 17.367188 11.957031 17.382812 C 12.113281 17.402344 12.25 17.363281 12.375 17.261719 C 12.5 17.164062 12.570312 17.039062 12.585938 16.882812 C 12.605469 16.726562 12.566406 16.585938 12.46875 16.460938 C 12.175781 16.058594 11.808594 15.742188 11.367188 15.507812 C 10.925781 15.273438 10.453125 15.152344 9.957031 15.136719 C 9.210938 15.148438 8.5625 15.402344 8.007812 15.894531 C 7.691406 14.410156 7.28125 11.277344 9.242188 10.609375 C 11.09375 10.054688 14.023438 9.636719 14.738281 10.441406 C 14.75 10.453125 14.761719 10.460938 14.769531 10.46875 C 13.953125 12.617188 13.546875 14.839844 13.554688 17.136719 C 13.550781 18.757812 13.753906 20.355469 14.15625 21.925781 L 12.878906 21.925781 C 12.722656 21.925781 12.585938 21.980469 12.476562 22.089844 C 12.363281 22.203125 12.308594 22.335938 12.308594 22.496094 C 12.308594 22.652344 12.363281 22.789062 12.476562 22.898438 C 12.585938 23.011719 12.722656 23.066406 12.878906 23.066406 L 14.871094 23.066406 C 15.03125 23.066406 15.164062 23.011719 15.277344 22.894531 C 15.390625 22.78125 15.445312 22.644531 15.441406 22.484375 L 15.4375 22.332031 C 15.4375 22.28125 15.429688 22.230469 15.414062 22.183594 C 14.933594 20.535156 14.695312 18.855469 14.699219 17.136719 C 14.699219 9.574219 19.289062 3.421875 24.933594 3.421875 C 28.425781 3.421875 31.515625 5.777344 33.363281 9.367188 C 32.859375 9.179688 32.339844 9.109375 31.804688 9.148438 C 31.269531 9.1875 30.769531 9.339844 30.300781 9.597656 C 30.167969 9.683594 30.082031 9.800781 30.042969 9.953125 C 30.007812 10.105469 30.03125 10.25 30.113281 10.382812 C 30.195312 10.519531 30.3125 10.601562 30.464844 10.640625 C 30.617188 10.679688 30.761719 10.65625 30.894531 10.574219 C 30.960938 10.535156 32.542969 9.601562 34.171875 11.234375 C 34.84375 13.144531 35.179688 15.113281 35.171875 17.136719 C 35.171875 24.699219 30.578125 30.855469 24.933594 30.855469 C 23.925781 30.839844 22.953125 30.648438 22.015625 30.285156 C 21.078125 29.921875 20.230469 29.40625 19.476562 28.738281 C 19.355469 28.632812 19.21875 28.589844 19.0625 28.601562 C 18.902344 28.617188 18.773438 28.683594 18.671875 28.804688 C 18.570312 28.921875 18.527344 29.0625 18.539062 29.21875 C 18.550781 29.375 18.617188 29.507812 18.738281 29.609375 C 19.59375 30.363281 20.554688 30.949219 21.621094 31.359375 C 22.6875 31.769531 23.792969 31.984375 24.933594 31.996094 C 27.554688 31.996094 29.964844 30.832031 31.890625 28.882812 L 33.203125 29.808594 C 33.199219 29.824219 33.191406 29.835938 33.1875 29.851562 C 32.898438 30.75 32.390625 31.507812 31.667969 32.117188 Z M 32.304688 34.726562 L 32.300781 33.125 C 32.300781 33.109375 32.296875 33.097656 32.296875 33.085938 C 33.148438 32.386719 33.777344 31.519531 34.175781 30.492188 L 35.152344 31.179688 C 34.96875 31.953125 34.628906 32.652344 34.128906 33.273438 C 33.628906 33.894531 33.023438 34.378906 32.304688 34.726562 Z M 32.304688 34.726562 "/></g><path style=" stroke:none;fill-rule:nonzero;fill:#d9d9d9;fill-opacity:1;" d="M 24.882812 22.058594 C 24.871094 22.359375 24.9375 22.648438 25.070312 22.921875 C 25.207031 23.191406 25.402344 23.414062 25.652344 23.585938 C 26.148438 23.886719 26.6875 24.023438 27.269531 23.992188 C 28.21875 23.960938 29.136719 23.78125 30.027344 23.460938 C 31.40625 23.023438 32.167969 22.382812 32.292969 21.550781 C 32.488281 20.289062 31.09375 19.269531 30.933594 19.15625 C 30.914062 19.144531 30.894531 19.132812 30.875 19.121094 C 28.761719 17.988281 28.035156 14.214844 28.03125 14.175781 C 28 14.019531 27.921875 13.898438 27.792969 13.808594 C 27.660156 13.71875 27.519531 13.691406 27.363281 13.71875 C 27.210938 13.746094 27.085938 13.828125 26.996094 13.957031 C 26.90625 14.085938 26.878906 14.230469 26.90625 14.382812 C 26.9375 14.558594 27.726562 18.699219 30.304688 20.109375 C 30.617188 20.339844 31.230469 20.941406 31.164062 21.378906 C 31.109375 21.726562 30.570312 22.089844 29.660156 22.378906 C 28.714844 22.722656 26.964844 23.101562 26.296875 22.644531 C 26.085938 22.492188 25.996094 22.289062 26.027344 22.035156 C 26.023438 21.878906 25.964844 21.746094 25.851562 21.636719 C 25.734375 21.527344 25.601562 21.472656 25.441406 21.476562 C 25.285156 21.480469 25.152344 21.539062 25.042969 21.652344 C 24.933594 21.765625 24.878906 21.898438 24.882812 22.058594 Z M 24.882812 22.058594 "/><path style=" stroke:none;fill-rule:nonzero;fill:#d9d9d9;fill-opacity:1;" d="M 19.511719 11.449219 C 20.046875 11.101562 20.746094 11.042969 21.582031 11.28125 C 21.734375 11.324219 21.878906 11.304688 22.015625 11.226562 C 22.15625 11.152344 22.246094 11.035156 22.289062 10.886719 C 22.332031 10.734375 22.3125 10.589844 22.234375 10.449219 C 22.160156 10.3125 22.046875 10.222656 21.894531 10.179688 C 20.726562 9.851562 19.714844 9.957031 18.886719 10.492188 C 17.472656 11.410156 17.183594 13.261719 17.171875 13.339844 C 17.148438 13.496094 17.183594 13.636719 17.277344 13.765625 C 17.371094 13.894531 17.496094 13.96875 17.652344 13.992188 C 17.8125 14.015625 17.953125 13.980469 18.078125 13.882812 C 18.207031 13.789062 18.28125 13.664062 18.304688 13.507812 C 18.304688 13.492188 18.539062 12.082031 19.511719 11.449219 Z M 19.511719 11.449219 "/><path style=" stroke:none;fill-rule:nonzero;fill:#d9d9d9;fill-opacity:1;" d="M 22.023438 15.464844 C 21.878906 15.40625 21.730469 15.40625 21.585938 15.46875 C 21.441406 15.53125 21.339844 15.632812 21.28125 15.78125 L 20.921875 16.664062 C 20.859375 16.820312 20.863281 16.976562 20.941406 17.128906 C 21.015625 17.285156 21.136719 17.382812 21.300781 17.429688 C 21.90625 17.605469 22.527344 17.699219 23.160156 17.707031 C 23.722656 17.722656 24.257812 17.609375 24.765625 17.363281 C 25.085938 17.210938 25.300781 16.960938 25.410156 16.625 C 25.496094 16.328125 25.464844 16.046875 25.308594 15.777344 L 23.964844 13.425781 C 23.886719 13.289062 23.773438 13.199219 23.621094 13.15625 C 23.46875 13.117188 23.324219 13.132812 23.1875 13.210938 C 23.050781 13.289062 22.960938 13.40625 22.917969 13.558594 C 22.878906 13.710938 22.894531 13.855469 22.972656 13.992188 L 24.296875 16.3125 C 24.28125 16.328125 24.261719 16.339844 24.242188 16.347656 C 23.957031 16.496094 23.347656 16.679688 22.234375 16.472656 L 22.339844 16.210938 C 22.398438 16.0625 22.398438 15.917969 22.335938 15.773438 C 22.273438 15.625 22.171875 15.523438 22.023438 15.464844 Z M 22.023438 15.464844 "/><path style=" stroke:none;fill-rule:nonzero;fill:#d9d9d9;fill-opacity:1;" d="M 30.398438 17.039062 C 31.011719 17.28125 31.648438 17.40625 32.308594 17.421875 C 32.914062 17.441406 33.46875 17.28125 33.972656 16.945312 C 34.253906 16.75 34.445312 16.484375 34.539062 16.15625 C 34.636719 15.824219 34.617188 15.5 34.484375 15.183594 C 34.46875 15.152344 34.453125 15.125 34.4375 15.097656 L 32.785156 12.542969 C 32.699219 12.410156 32.578125 12.328125 32.425781 12.292969 C 32.269531 12.261719 32.128906 12.289062 31.996094 12.375 C 31.863281 12.457031 31.78125 12.578125 31.746094 12.730469 C 31.714844 12.886719 31.738281 13.027344 31.824219 13.160156 L 33.441406 15.664062 C 33.484375 15.808594 33.445312 15.921875 33.324219 16.003906 C 32.992188 16.234375 32.386719 16.421875 31.335938 16.140625 L 31.421875 15.902344 C 31.476562 15.753906 31.46875 15.609375 31.402344 15.464844 C 31.332031 15.324219 31.226562 15.222656 31.078125 15.171875 C 30.929688 15.117188 30.785156 15.125 30.640625 15.191406 C 30.496094 15.257812 30.398438 15.367188 30.347656 15.515625 L 30.058594 16.308594 C 30.007812 16.457031 30.011719 16.601562 30.078125 16.742188 C 30.144531 16.886719 30.253906 16.984375 30.398438 17.039062 Z M 30.398438 17.039062 "/><path style=" stroke:none;fill-rule:nonzero;fill:#d9d9d9;fill-opacity:1;" d="M 27.359375 24.796875 C 24.964844 25.191406 23.382812 23.414062 23.3125 23.335938 C 23.210938 23.214844 23.082031 23.152344 22.921875 23.140625 C 22.765625 23.128906 22.628906 23.171875 22.507812 23.277344 C 22.386719 23.378906 22.324219 23.507812 22.3125 23.667969 C 22.300781 23.824219 22.34375 23.964844 22.449219 24.082031 C 22.523438 24.167969 24.128906 25.996094 26.660156 25.996094 C 26.957031 25.996094 27.253906 25.972656 27.546875 25.921875 C 27.703125 25.898438 27.828125 25.820312 27.917969 25.691406 C 28.011719 25.5625 28.042969 25.421875 28.019531 25.265625 C 27.992188 25.109375 27.914062 24.984375 27.785156 24.894531 C 27.660156 24.800781 27.515625 24.769531 27.359375 24.796875 Z M 27.359375 24.796875 "/><path style=" stroke:none;fill-rule:nonzero;fill:#d9d9d9;fill-opacity:1;" d="M 32.167969 23.621094 C 31.816406 24.023438 30.878906 24.378906 29.652344 24.574219 C 29.503906 24.597656 29.382812 24.667969 29.292969 24.785156 C 29.199219 24.902344 29.160156 25.035156 29.171875 25.183594 C 29.183594 25.332031 29.242188 25.457031 29.351562 25.558594 C 29.460938 25.660156 29.589844 25.710938 29.738281 25.710938 C 29.769531 25.710938 29.800781 25.707031 29.828125 25.703125 C 30.910156 25.53125 32.34375 25.160156 33.03125 24.371094 C 33.132812 24.25 33.179688 24.113281 33.167969 23.953125 C 33.15625 23.796875 33.089844 23.667969 32.972656 23.566406 C 32.851562 23.460938 32.714844 23.417969 32.558594 23.425781 C 32.398438 23.4375 32.269531 23.503906 32.167969 23.621094 Z M 32.167969 23.621094 "/><path style=" stroke:none;fill-rule:nonzero;fill:#d9d9d9;fill-opacity:1;" d="M 27.367188 27.59375 C 23.089844 28.261719 21.730469 25.839844 21.671875 25.730469 C 21.597656 25.589844 21.488281 25.5 21.335938 25.453125 C 21.1875 25.40625 21.042969 25.417969 20.902344 25.492188 C 20.765625 25.5625 20.671875 25.675781 20.621094 25.824219 C 20.574219 25.972656 20.585938 26.117188 20.660156 26.257812 C 20.71875 26.375 22.050781 28.855469 25.933594 28.855469 C 26.472656 28.851562 27.007812 28.808594 27.542969 28.722656 C 27.699219 28.699219 27.824219 28.625 27.914062 28.496094 C 28.007812 28.367188 28.042969 28.226562 28.019531 28.070312 C 27.996094 27.914062 27.917969 27.789062 27.792969 27.699219 C 27.664062 27.605469 27.523438 27.570312 27.367188 27.59375 Z M 27.367188 27.59375 "/><path style=" stroke:none;fill-rule:nonzero;fill:#d9d9d9;fill-opacity:1;" d="M 8.851562 18.371094 C 8.703125 18.417969 8.59375 18.511719 8.519531 18.648438 C 8.445312 18.789062 8.429688 18.933594 8.476562 19.082031 C 8.523438 19.230469 8.613281 19.34375 8.753906 19.417969 C 8.890625 19.492188 9.035156 19.507812 9.183594 19.464844 C 9.316406 19.417969 9.453125 19.398438 9.59375 19.410156 C 9.734375 19.421875 9.867188 19.460938 9.988281 19.527344 C 10.113281 19.59375 10.21875 19.683594 10.304688 19.796875 C 10.386719 19.910156 10.445312 20.035156 10.476562 20.171875 C 10.527344 20.320312 10.621094 20.433594 10.761719 20.503906 C 10.902344 20.574219 11.046875 20.585938 11.199219 20.539062 C 11.347656 20.488281 11.460938 20.394531 11.53125 20.253906 C 11.601562 20.113281 11.613281 19.96875 11.566406 19.816406 C 11.484375 19.539062 11.355469 19.285156 11.171875 19.0625 C 10.992188 18.835938 10.773438 18.652344 10.515625 18.515625 C 10.261719 18.378906 9.988281 18.300781 9.699219 18.273438 C 9.410156 18.25 9.128906 18.28125 8.851562 18.371094 Z M 8.851562 18.371094 "/><g style="fill:#d9d9d9;fill-opacity:1;"><g transform="translate(12.975795, 7.071431)"><path style="stroke:none" d="M 0.5 -0.109375 C 0.53125 -0.109375 0.554688 -0.109375 0.578125 -0.109375 C 0.609375 -0.117188 0.632812 -0.125 0.65625 -0.125 L 0.65625 -0.015625 C 0.632812 -0.00390625 0.601562 0 0.5625 0 C 0.53125 0.0078125 0.503906 0.015625 0.484375 0.015625 C 0.273438 0.015625 0.171875 -0.0859375 0.171875 -0.296875 L 0.171875 -0.921875 L 0.03125 -0.921875 L 0.03125 -1 L 0.171875 -1.0625 L 0.25 -1.28125 L 0.34375 -1.28125 L 0.34375 -1.046875 L 0.640625 -1.046875 L 0.640625 -0.921875 L 0.34375 -0.921875 L 0.34375 -0.3125 C 0.34375 -0.25 0.351562 -0.195312 0.375 -0.15625 C 0.40625 -0.125 0.445312 -0.109375 0.5 -0.109375 Z M 0.5 -0.109375 "/></g></g></g></svg>