<svg xmlns="http://www.w3.org/2000/svg" xmlns:xlink="http://www.w3.org/1999/xlink" width="55" zoomAndPan="magnify" viewBox="0 0 41.25 41.250001" height="55" preserveAspectRatio="xMidYMid meet" version="1.2"><defs><clipPath id="09a28a4e59"><path d="M 0 0 L 40.511719 0 L 40.511719 40.511719 L 0 40.511719 Z M 0 0 "/></clipPath></defs><g id="b352fa10b6"><g clip-rule="nonzero" clip-path="url(#09a28a4e59)"><path style=" stroke:none;fill-rule:nonzero;fill:#d9d9d9;fill-opacity:1;" d="M 1.839844 0 C 0.824219 0 0 0.824219 0 1.839844 L 0 38.671875 C 0 39.6875 0.824219 40.511719 1.839844 40.511719 L 38.671875 40.511719 C 39.6875 40.511719 40.511719 39.6875 40.511719 38.671875 L 40.511719 1.839844 C 40.511719 0.824219 39.6875 0 38.671875 0 Z M 1.839844 0 "/></g><path style=" stroke:none;fill-rule:evenodd;fill:#b4b4b4;fill-opacity:1;" d="M 28.542969 22.097656 C 28.035156 22.097656 27.621094 22.511719 27.621094 23.019531 L 27.621094 23.941406 C 27.621094 24.449219 28.035156 24.859375 28.542969 24.859375 L 31.304688 24.859375 C 33.847656 24.859375 35.910156 26.921875 35.910156 29.464844 L 35.910156 30.386719 C 35.910156 32.925781 33.847656 34.988281 31.304688 34.988281 L 25.78125 34.988281 L 25.78125 31.304688 L 31.304688 31.304688 C 31.8125 31.304688 32.226562 30.894531 32.226562 30.386719 L 32.226562 29.464844 C 32.226562 28.957031 31.8125 28.542969 31.304688 28.542969 L 28.542969 28.542969 C 26 28.542969 23.941406 26.480469 23.941406 23.941406 L 23.941406 23.019531 C 23.941406 20.476562 26 18.414062 28.542969 18.414062 L 34.066406 18.414062 L 34.066406 22.097656 Z M 28.542969 22.097656 "/><path style=" stroke:none;fill-rule:evenodd;fill:#b4b4b4;fill-opacity:1;" d="M 19.335938 30.386719 L 19.335938 20.257812 L 23.019531 20.257812 L 23.019531 30.386719 C 23.019531 32.925781 20.957031 34.988281 18.414062 34.988281 L 15.652344 34.988281 C 13.109375 34.988281 11.050781 32.925781 11.050781 30.386719 L 11.050781 29.464844 L 14.730469 29.464844 L 14.730469 30.386719 C 14.730469 30.894531 15.144531 31.304688 15.652344 31.304688 L 18.414062 31.304688 C 18.921875 31.304688 19.335938 30.894531 19.335938 30.386719 Z M 19.335938 30.386719 "/><g style="fill:#d9d9d9;fill-opacity:1;"><g transform="translate(11.900809, 5.328127)"><path style="stroke:none" d="M 0.046875 0.46875 C -0.015625 0.46875 -0.0664062 0.460938 -0.109375 0.453125 L -0.109375 0.3125 C -0.0664062 0.320312 -0.0195312 0.328125 0.03125 0.328125 C 0.0703125 0.328125 0.101562 0.3125 0.125 0.28125 C 0.15625 0.257812 0.171875 0.222656 0.171875 0.171875 L 0.171875 -1.046875 L 0.328125 -1.046875 L 0.328125 0.15625 C 0.328125 0.363281 0.234375 0.46875 0.046875 0.46875 Z M 0.15625 -1.328125 C 0.15625 -1.367188 0.160156 -1.394531 0.171875 -1.40625 C 0.191406 -1.425781 0.21875 -1.4375 0.25 -1.4375 C 0.269531 -1.4375 0.289062 -1.425781 0.3125 -1.40625 C 0.332031 -1.382812 0.34375 -1.359375 0.34375 -1.328125 C 0.34375 -1.296875 0.332031 -1.269531 0.3125 -1.25 C 0.289062 -1.226562 0.269531 -1.21875 0.25 -1.21875 C 0.21875 -1.21875 0.191406 -1.226562 0.171875 -1.25 C 0.160156 -1.269531 0.15625 -1.296875 0.15625 -1.328125 Z M 0.15625 -1.328125 "/></g></g></g></svg>