<svg xmlns="http://www.w3.org/2000/svg" xmlns:xlink="http://www.w3.org/1999/xlink" width="55" zoomAndPan="magnify" viewBox="0 0 41.25 41.250001" height="55" preserveAspectRatio="xMidYMid meet" version="1.2"><defs><clipPath id="be5cefc831"><path d="M 1.105469 1.105469 L 39.410156 1.105469 L 39.410156 39.410156 L 1.105469 39.410156 Z M 1.105469 1.105469 "/></clipPath></defs><g id="61f0865d07"><path style=" stroke:none;fill-rule:nonzero;fill:#d9d9d9;fill-opacity:1;" d="M 10.035156 14.996094 L 12.867188 14.996094 C 13.019531 14.996094 13.144531 15.050781 13.25 15.15625 C 13.359375 15.261719 13.410156 15.390625 13.410156 15.539062 L 13.410156 31.121094 C 13.410156 31.273438 13.359375 31.402344 13.25 31.507812 C 13.144531 31.613281 13.019531 31.667969 12.867188 31.667969 L 10.035156 31.667969 C 9.882812 31.667969 9.757812 31.613281 9.648438 31.507812 C 9.542969 31.402344 9.492188 31.273438 9.492188 31.121094 L 9.492188 15.539062 C 9.492188 15.390625 9.542969 15.261719 9.648438 15.15625 C 9.757812 15.050781 9.882812 14.996094 10.035156 14.996094 Z M 10.035156 14.996094 "/><path style=" stroke:none;fill-rule:nonzero;fill:#d9d9d9;fill-opacity:1;" d="M 13.734375 11.152344 C 13.730469 9.816406 12.769531 8.847656 11.453125 8.847656 C 10.132812 8.847656 9.136719 9.84375 9.136719 11.160156 C 9.136719 11.773438 9.359375 12.347656 9.765625 12.769531 C 10.183594 13.203125 10.761719 13.441406 11.386719 13.441406 C 12.082031 13.441406 12.699219 13.199219 13.132812 12.75 C 13.535156 12.335938 13.75 11.769531 13.734375 11.160156 C 13.734375 11.160156 13.734375 11.15625 13.734375 11.152344 Z M 13.734375 11.152344 "/><path style=" stroke:none;fill-rule:nonzero;fill:#d9d9d9;fill-opacity:1;" d="M 29.25 16.09375 C 27.839844 14.832031 26.1875 14.640625 25.328125 14.640625 C 24.042969 14.640625 22.816406 14.984375 21.785156 15.636719 C 21.335938 15.917969 20.925781 16.257812 20.5625 16.644531 L 20.492188 15.503906 C 20.484375 15.363281 20.425781 15.242188 20.320312 15.140625 C 20.21875 15.042969 20.09375 14.996094 19.949219 14.996094 L 17.4375 14.996094 C 17.28125 14.996094 17.148438 15.054688 17.042969 15.167969 C 16.933594 15.285156 16.886719 15.421875 16.898438 15.578125 C 16.988281 16.769531 17.023438 18.019531 17.023438 19.757812 L 17.023438 31.121094 C 17.023438 31.273438 17.078125 31.402344 17.183594 31.507812 C 17.289062 31.613281 17.417969 31.667969 17.566406 31.667969 L 20.402344 31.667969 C 20.550781 31.667969 20.679688 31.613281 20.785156 31.507812 C 20.890625 31.402344 20.945312 31.273438 20.945312 31.121094 L 20.945312 21.753906 C 20.945312 21.3125 21.003906 20.898438 21.105469 20.621094 C 21.109375 20.609375 21.109375 20.601562 21.113281 20.59375 C 21.496094 19.34375 22.660156 18.078125 24.394531 18.078125 C 25.46875 18.078125 26.238281 18.445312 26.75 19.199219 C 27.210938 19.882812 27.457031 20.898438 27.457031 22.140625 L 27.457031 31.121094 C 27.457031 31.273438 27.507812 31.402344 27.613281 31.507812 C 27.722656 31.613281 27.847656 31.667969 28 31.667969 L 30.832031 31.667969 C 30.980469 31.667969 31.109375 31.613281 31.214844 31.507812 C 31.324219 31.402344 31.375 31.273438 31.375 31.121094 L 31.375 21.816406 C 31.375 20.492188 31.175781 19.316406 30.78125 18.324219 C 30.425781 17.433594 29.910156 16.683594 29.25 16.09375 Z M 29.25 16.09375 "/><g clip-rule="nonzero" clip-path="url(#be5cefc831)"><path style=" stroke:none;fill-rule:nonzero;fill:#d9d9d9;fill-opacity:1;" d="M 34.421875 1.105469 L 6.089844 1.105469 C 3.339844 1.105469 1.105469 3.34375 1.105469 6.089844 L 1.105469 34.421875 C 1.105469 37.171875 3.339844 39.410156 6.089844 39.410156 L 34.421875 39.410156 C 37.171875 39.410156 39.410156 37.171875 39.410156 34.421875 L 39.410156 6.089844 C 39.410156 3.34375 37.171875 1.105469 34.421875 1.105469 Z M 35.90625 6.332031 L 35.90625 34.179688 C 35.90625 34.410156 35.863281 34.628906 35.773438 34.839844 C 35.6875 35.050781 35.5625 35.238281 35.402344 35.402344 C 35.238281 35.5625 35.050781 35.6875 34.839844 35.773438 C 34.628906 35.863281 34.410156 35.90625 34.179688 35.90625 L 6.332031 35.90625 C 6.105469 35.90625 5.882812 35.863281 5.671875 35.773438 C 5.460938 35.6875 5.273438 35.5625 5.113281 35.402344 C 4.949219 35.238281 4.824219 35.050781 4.738281 34.839844 C 4.652344 34.628906 4.605469 34.410156 4.605469 34.179688 L 4.605469 6.332031 C 4.605469 6.105469 4.652344 5.882812 4.738281 5.671875 C 4.824219 5.460938 4.949219 5.273438 5.113281 5.113281 C 5.273438 4.949219 5.460938 4.824219 5.671875 4.738281 C 5.882812 4.652344 6.105469 4.605469 6.332031 4.605469 L 34.179688 4.605469 C 34.410156 4.605469 34.628906 4.652344 34.839844 4.738281 C 35.050781 4.824219 35.238281 4.949219 35.402344 5.113281 C 35.5625 5.273438 35.6875 5.460938 35.773438 5.671875 C 35.863281 5.882812 35.90625 6.105469 35.90625 6.332031 Z M 35.90625 6.332031 "/></g><g style="fill:#d9d9d9;fill-opacity:1;"><g transform="translate(4.062849, 18.562502)"><path style="stroke:none" d="M 0.5 -0.109375 C 0.53125 -0.109375 0.554688 -0.109375 0.578125 -0.109375 C 0.609375 -0.117188 0.632812 -0.125 0.65625 -0.125 L 0.65625 -0.015625 C 0.632812 -0.00390625 0.601562 0 0.5625 0 C 0.53125 0.0078125 0.503906 0.015625 0.484375 0.015625 C 0.273438 0.015625 0.171875 -0.0859375 0.171875 -0.296875 L 0.171875 -0.921875 L 0.03125 -0.921875 L 0.03125 -1 L 0.171875 -1.0625 L 0.25 -1.28125 L 0.34375 -1.28125 L 0.34375 -1.046875 L 0.640625 -1.046875 L 0.640625 -0.921875 L 0.34375 -0.921875 L 0.34375 -0.3125 C 0.34375 -0.25 0.351562 -0.195312 0.375 -0.15625 C 0.40625 -0.125 0.445312 -0.109375 0.5 -0.109375 Z M 0.5 -0.109375 "/></g></g></g></svg>