<svg xmlns="http://www.w3.org/2000/svg" xmlns:xlink="http://www.w3.org/1999/xlink" width="55" zoomAndPan="magnify" viewBox="0 0 41.25 41.250001" height="55" preserveAspectRatio="xMidYMid meet" version="1.2"><defs><clipPath id="bcb72c2e96"><path d="M 9 1.492188 L 34 1.492188 L 34 30 L 9 30 Z M 9 1.492188 "/></clipPath><clipPath id="e77e4d83a5"><path d="M 5.011719 25 L 19 25 L 19 39 L 5.011719 39 Z M 5.011719 25 "/></clipPath><clipPath id="7b48caf0a8"><path d="M 23 24 L 35.210938 24 L 35.210938 39 L 23 39 Z M 23 24 "/></clipPath></defs><g id="0749665893"><path style=" stroke:none;fill-rule:nonzero;fill:#d9d9d9;fill-opacity:1;" d="M 23.601562 36.128906 C 22.964844 36.429688 22.296875 36.585938 21.597656 36.59375 C 20.546875 36.582031 19.589844 36.273438 18.734375 35.667969 C 18.449219 36.390625 18.023438 37.015625 17.453125 37.542969 C 16.882812 38.070312 16.226562 38.445312 15.484375 38.671875 C 15.582031 38.671875 15.675781 38.671875 15.773438 38.671875 L 26.703125 38.671875 C 26.035156 38.476562 25.433594 38.160156 24.894531 37.71875 C 24.355469 37.277344 23.925781 36.746094 23.601562 36.128906 Z M 23.601562 36.128906 "/><g clip-rule="nonzero" clip-path="url(#bcb72c2e96)"><path style=" stroke:none;fill-rule:nonzero;fill:#d9d9d9;fill-opacity:1;" d="M 11.730469 28.6875 C 11.773438 28.675781 11.816406 28.65625 11.851562 28.632812 C 11.921875 28.019531 12 27.429688 12.089844 26.871094 C 12.070312 26.550781 12.121094 26.238281 12.238281 25.941406 C 12.871094 22.371094 13.757812 19.867188 14.984375 18.34375 C 15.082031 18.226562 15.191406 18.214844 15.3125 18.3125 C 15.429688 18.40625 15.441406 18.515625 15.347656 18.636719 C 15.222656 18.796875 15.09375 18.96875 14.976562 19.148438 C 14.046875 20.539062 13.3125 22.65625 12.785156 25.5 L 12.839844 25.5 C 12.941406 25.484375 13.042969 25.484375 13.140625 25.5 C 13.503906 25.578125 14.070312 25.878906 14.941406 26.757812 C 15.054688 21.660156 17.976562 17.546875 21.597656 17.546875 C 24.789062 17.546875 27.457031 20.761719 28.09375 25.039062 C 28.402344 24.421875 28.867188 23.957031 29.484375 23.648438 C 29.632812 23.59375 29.789062 23.5625 29.949219 23.5625 C 29.617188 22 29.039062 20.539062 28.21875 19.171875 C 28.097656 18.992188 27.976562 18.820312 27.851562 18.660156 C 27.808594 18.613281 27.789062 18.554688 27.796875 18.492188 C 27.804688 18.425781 27.832031 18.375 27.882812 18.335938 C 27.933594 18.292969 27.988281 18.277344 28.054688 18.285156 C 28.117188 18.289062 28.167969 18.316406 28.207031 18.367188 C 29.136719 19.539062 29.90625 21.289062 30.480469 23.660156 C 31.722656 24.121094 31.753906 26.210938 31.78125 27.910156 C 31.78125 28.714844 31.78125 29.550781 31.972656 29.765625 C 32.160156 29.976562 32.566406 29.929688 33.132812 29.691406 C 33.195312 28.953125 33.230469 28.296875 33.246094 27.746094 C 33.246094 26.871094 33.246094 26.308594 33.246094 26.308594 L 33.246094 25.71875 C 33.246094 21.078125 27.28125 13.054688 27.28125 13.054688 L 26.589844 7.023438 C 26.589844 1.488281 21.597656 1.539062 21.597656 1.539062 C 21.597656 1.539062 16.585938 1.488281 16.585938 7 L 15.917969 13.054688 C 15.917969 13.054688 9.949219 21.074219 9.949219 25.71875 L 9.949219 26.296875 C 9.949219 26.296875 9.925781 26.859375 9.949219 27.738281 C 9.949219 27.871094 9.949219 28.015625 9.949219 28.164062 C 10.707031 28.453125 11.480469 28.753906 11.730469 28.6875 Z M 21.574219 9.171875 C 22.964844 9.300781 25.183594 9.636719 25.285156 10.324219 C 25.359375 10.851562 24.5 11.863281 24.328125 12.058594 C 23.972656 12.460938 22.726562 13.785156 21.605469 13.785156 C 20.484375 13.785156 19.238281 12.460938 18.886719 12.058594 C 18.714844 11.863281 17.855469 10.851562 17.925781 10.324219 C 18.007812 9.621094 20.25 9.300781 21.574219 9.171875 Z M 21.574219 9.171875 "/></g><path style=" stroke:none;fill-rule:nonzero;fill:#d9d9d9;fill-opacity:1;" d="M 21.597656 13.320312 C 22.203125 13.320312 23.136719 12.703125 23.96875 11.75 C 24.601562 11.03125 24.835938 10.503906 24.816406 10.382812 C 24.699219 10.144531 23.183594 9.789062 21.570312 9.632812 C 20.003906 9.789062 18.488281 10.144531 18.371094 10.390625 C 18.542969 10.917969 18.824219 11.367188 19.226562 11.746094 C 20.058594 12.703125 20.988281 13.320312 21.597656 13.320312 Z M 21.597656 13.320312 "/><path style=" stroke:none;fill-rule:nonzero;fill:#d9d9d9;fill-opacity:1;" d="M 22.847656 33.308594 C 22.316406 28.421875 22.808594 27.410156 23.226562 27.078125 C 23.449219 26.902344 23.691406 26.867188 23.957031 26.972656 C 24.382812 27.183594 24.742188 27.476562 25.03125 27.851562 C 25.554688 28.421875 25.921875 28.78125 26.257812 28.585938 C 26.5 28.441406 26.84375 27.65625 27.1875 26.9375 C 27.363281 26.554688 27.542969 26.140625 27.746094 25.746094 C 27.28125 21.378906 24.726562 18.011719 21.613281 18.011719 C 18.195312 18.011719 15.414062 22.070312 15.414062 27.058594 C 15.414062 27.121094 15.414062 27.179688 15.414062 27.242188 C 15.980469 27.835938 16.660156 28.632812 17.484375 29.675781 C 17.808594 30.085938 18.105469 30.515625 18.375 30.960938 C 18.765625 31.597656 19.003906 32.28125 19.097656 33.019531 C 19.1875 33.757812 19.125 34.484375 18.90625 35.195312 C 19.703125 35.792969 20.601562 36.101562 21.601562 36.121094 C 22.230469 36.117188 22.835938 35.988281 23.410156 35.726562 C 23.285156 35.449219 23.1875 35.160156 23.117188 34.863281 C 22.996094 34.351562 22.90625 33.832031 22.847656 33.308594 Z M 22.847656 33.308594 "/><g clip-rule="nonzero" clip-path="url(#e77e4d83a5)"><path style=" stroke:none;fill-rule:nonzero;fill:#d9d9d9;fill-opacity:1;" d="M 17.105469 29.960938 C 16.453125 29.132812 15.902344 28.480469 15.429688 27.949219 L 15.191406 27.691406 L 14.953125 27.429688 C 13.878906 26.316406 13.3125 26.011719 13.015625 25.960938 C 12.976562 25.953125 12.933594 25.953125 12.890625 25.960938 C 12.792969 25.972656 12.722656 26.023438 12.683594 26.113281 C 12.683594 26.125 12.683594 26.132812 12.683594 26.144531 C 12.589844 26.390625 12.554688 26.644531 12.574219 26.90625 C 12.574219 27.035156 12.574219 27.167969 12.574219 27.296875 C 12.574219 27.425781 12.574219 27.445312 12.574219 27.519531 C 12.640625 28 12.550781 28.453125 12.300781 28.875 C 12.257812 28.925781 12.203125 28.972656 12.144531 29.007812 L 12.046875 29.070312 C 11.984375 29.101562 11.917969 29.128906 11.851562 29.148438 L 11.800781 29.148438 C 11.414062 29.21875 10.789062 28.988281 9.996094 28.683594 L 9.765625 28.589844 C 8.769531 28.195312 7.609375 27.742188 6.761719 27.742188 C 6.34375 27.699219 6.007812 27.84375 5.75 28.175781 C 5.128906 29.105469 6.519531 30.5625 7.644531 31.742188 C 8.335938 32.46875 8.878906 33.039062 8.9375 33.46875 C 9.042969 34.257812 8.21875 34.558594 7.492188 34.828125 C 7.109375 34.925781 6.765625 35.101562 6.460938 35.347656 C 6.347656 35.476562 6.355469 35.566406 6.375 35.628906 C 6.480469 35.988281 7.304688 36.769531 11.671875 38.039062 C 12.15625 38.179688 12.644531 38.289062 13.140625 38.371094 C 13.589844 38.441406 14.039062 38.445312 14.488281 38.386719 C 14.9375 38.328125 15.371094 38.210938 15.789062 38.03125 C 16.203125 37.851562 16.585938 37.617188 16.9375 37.328125 C 17.289062 37.042969 17.59375 36.710938 17.851562 36.339844 C 18.054688 36.03125 18.21875 35.707031 18.347656 35.359375 L 18.441406 35.132812 C 18.441406 35.054688 18.484375 34.964844 18.507812 34.886719 C 18.675781 34.257812 18.710938 33.621094 18.621094 32.976562 C 18.527344 32.332031 18.3125 31.730469 17.972656 31.175781 C 17.707031 30.753906 17.417969 30.347656 17.105469 29.960938 Z M 17.105469 29.960938 "/></g><g clip-rule="nonzero" clip-path="url(#7b48caf0a8)"><path style=" stroke:none;fill-rule:nonzero;fill:#d9d9d9;fill-opacity:1;" d="M 34.679688 29.640625 C 34.289062 29.675781 33.921875 29.792969 33.578125 29.988281 L 33.070312 30.207031 C 32.515625 30.417969 31.957031 30.519531 31.59375 30.027344 C 31.507812 29.898438 31.453125 29.757812 31.425781 29.601562 C 31.359375 29.234375 31.324219 28.867188 31.320312 28.492188 C 31.320312 28.304688 31.320312 28.101562 31.320312 27.890625 C 31.320312 26.539062 31.273438 24.914062 30.640625 24.28125 C 30.558594 24.195312 30.464844 24.128906 30.355469 24.082031 C 30.296875 24.054688 30.238281 24.035156 30.175781 24.019531 L 30.105469 24.019531 C 29.945312 24 29.792969 24.023438 29.640625 24.085938 C 29.09375 24.308594 28.617188 25.011719 28.199219 25.839844 L 28 26.242188 C 27.925781 26.402344 27.855469 26.554688 27.785156 26.707031 C 27.714844 26.859375 27.65625 26.988281 27.597656 27.128906 C 27.1875 28.058594 26.867188 28.765625 26.496094 28.984375 C 25.808594 29.390625 25.210938 28.738281 24.6875 28.164062 C 24.449219 27.851562 24.15625 27.601562 23.808594 27.410156 C 23.765625 27.394531 23.71875 27.386719 23.671875 27.382812 C 23.613281 27.382812 23.5625 27.402344 23.515625 27.441406 C 23.230469 27.671875 22.816406 28.734375 23.3125 33.257812 C 23.367188 33.757812 23.449219 34.253906 23.5625 34.742188 C 23.625 35.003906 23.710938 35.253906 23.8125 35.5 C 23.847656 35.570312 23.878906 35.640625 23.917969 35.707031 C 23.953125 35.777344 23.976562 35.847656 24.015625 35.917969 C 24.109375 36.09375 24.214844 36.261719 24.328125 36.425781 C 24.445312 36.585938 24.570312 36.742188 24.707031 36.890625 C 24.84375 37.035156 24.984375 37.171875 25.140625 37.300781 C 25.292969 37.429688 25.453125 37.546875 25.621094 37.65625 C 25.789062 37.765625 25.960938 37.863281 26.140625 37.949219 C 26.320312 38.035156 26.507812 38.109375 26.695312 38.171875 C 26.882812 38.238281 27.078125 38.289062 27.273438 38.328125 C 27.46875 38.363281 27.667969 38.390625 27.867188 38.40625 C 28.066406 38.417969 28.265625 38.421875 28.464844 38.410156 C 28.664062 38.398438 28.859375 38.375 29.058594 38.339844 C 29.253906 38.300781 29.445312 38.253906 29.636719 38.195312 C 29.828125 38.132812 30.011719 38.0625 30.195312 37.976562 C 30.375 37.894531 30.550781 37.796875 30.71875 37.691406 C 30.890625 37.585938 31.050781 37.46875 31.207031 37.34375 C 31.359375 37.21875 31.507812 37.082031 31.644531 36.9375 C 31.78125 36.792969 31.910156 36.640625 32.027344 36.480469 C 32.324219 36.074219 32.597656 35.648438 32.847656 35.210938 C 35.074219 31.246094 35.117188 30.109375 34.945312 29.78125 C 34.886719 29.679688 34.800781 29.632812 34.679688 29.640625 Z M 34.679688 29.640625 "/></g><g style="fill:#d9d9d9;fill-opacity:1;"><g transform="translate(19.899902, 20.625002)"><path style="stroke:none" d="M 0.5 -0.109375 C 0.53125 -0.109375 0.554688 -0.109375 0.578125 -0.109375 C 0.609375 -0.117188 0.632812 -0.125 0.65625 -0.125 L 0.65625 -0.015625 C 0.632812 -0.00390625 0.601562 0 0.5625 0 C 0.53125 0.0078125 0.503906 0.015625 0.484375 0.015625 C 0.273438 0.015625 0.171875 -0.0859375 0.171875 -0.296875 L 0.171875 -0.921875 L 0.03125 -0.921875 L 0.03125 -1 L 0.171875 -1.0625 L 0.25 -1.28125 L 0.34375 -1.28125 L 0.34375 -1.046875 L 0.640625 -1.046875 L 0.640625 -0.921875 L 0.34375 -0.921875 L 0.34375 -0.3125 C 0.34375 -0.25 0.351562 -0.195312 0.375 -0.15625 C 0.40625 -0.125 0.445312 -0.109375 0.5 -0.109375 Z M 0.5 -0.109375 "/></g></g></g></svg>