<svg xmlns="http://www.w3.org/2000/svg" xmlns:xlink="http://www.w3.org/1999/xlink" width="55" zoomAndPan="magnify" viewBox="0 0 41.25 41.250001" height="55" preserveAspectRatio="xMidYMid meet" version="1.2"><defs><clipPath id="4001963838"><path d="M 1.546875 7.792969 L 39 7.792969 L 39 32.835938 L 1.546875 32.835938 Z M 1.546875 7.792969 "/></clipPath></defs><g id="1c10c239de"><g clip-rule="nonzero" clip-path="url(#4001963838)"><path style=" stroke:none;fill-rule:nonzero;fill:#d9d9d9;fill-opacity:1;" d="M 35.628906 7.792969 L 4.882812 7.792969 C 3.054688 7.792969 1.558594 9.289062 1.558594 11.117188 L 1.558594 29.398438 C 1.558594 31.226562 3.054688 32.722656 4.882812 32.722656 L 35.628906 32.722656 C 37.457031 32.722656 38.953125 31.226562 38.953125 29.398438 L 38.953125 11.117188 C 38.953125 9.289062 37.457031 7.792969 35.628906 7.792969 Z M 4.882812 9.453125 L 35.628906 9.453125 C 35.753906 9.453125 35.835938 9.453125 35.960938 9.496094 L 21.292969 21.628906 C 20.671875 22.125 19.800781 22.125 19.175781 21.628906 L 4.550781 9.496094 C 4.675781 9.453125 4.757812 9.453125 4.882812 9.453125 Z M 3.222656 29.398438 L 3.222656 11.117188 C 3.222656 10.949219 3.261719 10.78125 3.304688 10.617188 L 14.9375 20.257812 L 3.304688 29.894531 C 3.261719 29.730469 3.222656 29.5625 3.222656 29.398438 Z M 35.628906 31.058594 L 4.882812 31.058594 C 4.757812 31.058594 4.675781 31.058594 4.550781 31.015625 L 16.226562 21.335938 L 18.09375 22.914062 C 18.71875 23.414062 19.464844 23.664062 20.214844 23.664062 C 20.960938 23.664062 21.710938 23.414062 22.332031 22.914062 L 24.203125 21.335938 L 35.878906 31.015625 C 35.835938 31.058594 35.753906 31.058594 35.628906 31.058594 Z M 37.292969 29.398438 C 37.292969 29.5625 37.25 29.730469 37.207031 29.894531 L 25.574219 20.257812 L 37.207031 10.617188 C 37.25 10.78125 37.292969 10.949219 37.292969 11.117188 Z M 37.292969 29.398438 "/></g><g style="fill:#d9d9d9;fill-opacity:1;"><g transform="translate(1.662331, 13.725449)"><path style="stroke:none" d="M 0.046875 0.46875 C -0.015625 0.46875 -0.0664062 0.460938 -0.109375 0.453125 L -0.109375 0.3125 C -0.0664062 0.320312 -0.0195312 0.328125 0.03125 0.328125 C 0.0703125 0.328125 0.101562 0.3125 0.125 0.28125 C 0.15625 0.257812 0.171875 0.222656 0.171875 0.171875 L 0.171875 -1.046875 L 0.328125 -1.046875 L 0.328125 0.15625 C 0.328125 0.363281 0.234375 0.46875 0.046875 0.46875 Z M 0.15625 -1.328125 C 0.15625 -1.367188 0.160156 -1.394531 0.171875 -1.40625 C 0.191406 -1.425781 0.21875 -1.4375 0.25 -1.4375 C 0.269531 -1.4375 0.289062 -1.425781 0.3125 -1.40625 C 0.332031 -1.382812 0.34375 -1.359375 0.34375 -1.328125 C 0.34375 -1.296875 0.332031 -1.269531 0.3125 -1.25 C 0.289062 -1.226562 0.269531 -1.21875 0.25 -1.21875 C 0.21875 -1.21875 0.191406 -1.226562 0.171875 -1.25 C 0.160156 -1.269531 0.15625 -1.296875 0.15625 -1.328125 Z M 0.15625 -1.328125 "/></g></g></g></svg>