<svg xmlns="http://www.w3.org/2000/svg" xmlns:xlink="http://www.w3.org/1999/xlink" width="55" zoomAndPan="magnify" viewBox="0 0 41.25 41.250001" height="55" preserveAspectRatio="xMidYMid meet" version="1.2"><defs><clipPath id="81376c32d9"><path d="M 3.125 3 L 37 3 L 37 37 L 3.125 37 Z M 3.125 3 "/></clipPath></defs><g id="48b8261efd"><g clip-rule="nonzero" clip-path="url(#81376c32d9)"><path style=" stroke:none;fill-rule:nonzero;fill:#d9d9d9;fill-opacity:1;" d="M 28.300781 6.117188 C 17.375 -0.308594 3.488281 7.539062 3.367188 20.207031 C 3.25 32.582031 16.34375 40.570312 27.246094 35.125 L 15.339844 17.609375 L 15.339844 28.453125 C 15.339844 29.652344 13.042969 29.652344 13.042969 28.453125 L 13.042969 13.917969 C 13.042969 12.964844 14.8125 12.886719 15.316406 13.714844 L 28.886719 34.191406 C 39.078125 27.625 38.941406 12.371094 28.300781 6.117188 Z M 26.769531 26.632812 L 24.464844 23.113281 L 24.464844 13.46875 C 24.464844 12.570312 26.769531 12.570312 26.769531 13.46875 Z M 26.769531 26.632812 "/></g><g style="fill:#d9d9d9;fill-opacity:1;"><g transform="translate(19.531598, 13.848217)"><path style="stroke:none" d="M 0.5 -0.109375 C 0.53125 -0.109375 0.554688 -0.109375 0.578125 -0.109375 C 0.609375 -0.117188 0.632812 -0.125 0.65625 -0.125 L 0.65625 -0.015625 C 0.632812 -0.00390625 0.601562 0 0.5625 0 C 0.53125 0.0078125 0.503906 0.015625 0.484375 0.015625 C 0.273438 0.015625 0.171875 -0.0859375 0.171875 -0.296875 L 0.171875 -0.921875 L 0.03125 -0.921875 L 0.03125 -1 L 0.171875 -1.0625 L 0.25 -1.28125 L 0.34375 -1.28125 L 0.34375 -1.046875 L 0.640625 -1.046875 L 0.640625 -0.921875 L 0.34375 -0.921875 L 0.34375 -0.3125 C 0.34375 -0.25 0.351562 -0.195312 0.375 -0.15625 C 0.40625 -0.125 0.445312 -0.109375 0.5 -0.109375 Z M 0.5 -0.109375 "/></g></g></g></svg>