<svg xmlns="http://www.w3.org/2000/svg" xmlns:xlink="http://www.w3.org/1999/xlink" width="55" zoomAndPan="magnify" viewBox="0 0 41.25 41.250001" height="55" preserveAspectRatio="xMidYMid meet" version="1.2"><defs><clipPath id="71f8d8be12"><path d="M 0.914062 2 L 39.957031 2 L 39.957031 37 L 0.914062 37 Z M 0.914062 2 "/></clipPath></defs><g id="88ee8c8929"><path style=" stroke:none;fill-rule:nonzero;fill:#d9d9d9;fill-opacity:1;" d="M 23.691406 19.398438 C 23.691406 17.550781 22.144531 16.050781 20.238281 16.050781 C 18.332031 16.050781 16.789062 17.550781 16.789062 19.398438 C 16.789062 21.246094 18.332031 22.742188 20.238281 22.742188 C 22.144531 22.742188 23.691406 21.246094 23.691406 19.398438 Z M 23.691406 19.398438 "/><g clip-rule="nonzero" clip-path="url(#71f8d8be12)"><path style=" stroke:none;fill-rule:evenodd;fill:#d9d9d9;fill-opacity:1;" d="M 31.449219 13.183594 C 32.175781 10.3125 33.09375 4.988281 29.863281 3.183594 C 26.648438 1.386719 22.464844 4.832031 20.257812 6.898438 C 18.054688 4.851562 13.753906 1.421875 10.527344 3.234375 C 7.316406 5.035156 8.304688 10.273438 9.050781 13.160156 C 6.054688 13.988281 0.914062 15.765625 0.914062 19.398438 C 0.914062 23.019531 6.046875 24.953125 9.027344 25.777344 C 8.28125 28.683594 7.339844 33.84375 10.554688 35.644531 C 13.792969 37.453125 18.082031 34.105469 20.3125 32.015625 C 22.535156 34.097656 26.675781 37.464844 29.890625 35.660156 C 33.117188 33.851562 32.277344 28.597656 31.53125 25.691406 C 34.417969 24.867188 39.5625 22.972656 39.5625 19.398438 C 39.5625 15.800781 34.398438 14.007812 31.449219 13.183594 Z M 31.082031 24.152344 C 30.59375 22.652344 29.933594 21.054688 29.125 19.40625 C 29.894531 17.792969 30.53125 16.21875 31.003906 14.726562 C 33.167969 15.335938 37.914062 16.722656 37.914062 19.398438 C 37.914062 22.09375 33.359375 23.496094 31.082031 24.152344 Z M 29.0625 34.277344 C 26.664062 35.621094 23.101562 32.398438 21.460938 30.867188 C 22.550781 29.714844 23.636719 28.371094 24.699219 26.878906 C 26.570312 26.71875 28.332031 26.457031 29.933594 26.097656 C 30.457031 28.152344 31.472656 32.925781 29.0625 34.277344 Z M 11.382812 34.257812 C 8.980469 32.917969 10.078125 28.308594 10.628906 26.171875 C 12.210938 26.507812 13.964844 26.753906 15.835938 26.902344 C 16.90625 28.359375 18.027344 29.699219 19.15625 30.875 C 17.761719 32.183594 13.792969 35.605469 11.382812 34.257812 Z M 2.566406 19.398438 C 2.566406 16.6875 7.28125 15.308594 9.496094 14.703125 C 9.976562 16.230469 10.613281 17.824219 11.378906 19.4375 C 10.601562 21.074219 9.960938 22.691406 9.472656 24.234375 C 7.363281 23.652344 2.566406 22.105469 2.566406 19.398438 Z M 11.355469 4.617188 C 13.765625 3.265625 17.5 6.558594 19.101562 8.039062 C 17.976562 9.210938 16.867188 10.539062 15.808594 11.992188 C 13.992188 12.152344 12.25 12.417969 10.652344 12.769531 C 10.050781 10.4375 8.949219 5.96875 11.355469 4.617188 Z M 25.882812 13.730469 C 27.113281 13.882812 28.296875 14.082031 29.40625 14.328125 C 29.070312 15.363281 28.65625 16.445312 28.167969 17.554688 C 27.460938 16.25 26.699219 14.972656 25.882812 13.730469 Z M 20.257812 9.183594 C 21.019531 9.984375 21.78125 10.878906 22.53125 11.847656 C 21.011719 11.777344 19.484375 11.777344 17.964844 11.84375 C 18.714844 10.886719 19.484375 9.992188 20.257812 9.183594 Z M 12.324219 17.554688 C 11.84375 16.449219 11.433594 15.359375 11.097656 14.3125 C 12.199219 14.070312 13.375 13.875 14.601562 13.726562 C 13.78125 14.96875 13.023438 16.246094 12.324219 17.554688 Z M 14.636719 25.179688 C 13.371094 25.042969 12.175781 24.859375 11.074219 24.625 C 11.414062 23.558594 11.835938 22.445312 12.328125 21.316406 C 13.03125 22.640625 13.804688 23.929688 14.636719 25.179688 Z M 20.304688 29.722656 C 19.519531 28.90625 18.742188 28 17.976562 27.023438 C 19.507812 27.082031 21.042969 27.082031 22.574219 27.015625 C 21.820312 28.007812 21.058594 28.914062 20.304688 29.722656 Z M 28.183594 21.261719 C 28.699219 22.402344 29.136719 23.507812 29.480469 24.554688 C 28.359375 24.804688 27.152344 25.003906 25.875 25.152344 C 26.699219 23.886719 27.472656 22.589844 28.183594 21.261719 Z M 23.777344 25.347656 C 21.4375 25.507812 19.082031 25.507812 16.742188 25.359375 C 15.410156 23.476562 14.226562 21.492188 13.203125 19.4375 C 14.21875 17.382812 15.394531 15.402344 16.71875 13.523438 C 19.0625 13.351562 21.421875 13.351562 23.765625 13.523438 C 25.078125 15.40625 26.253906 17.378906 27.292969 19.414062 C 26.265625 21.464844 25.082031 23.449219 23.777344 25.347656 Z M 29.039062 4.570312 C 31.449219 5.917969 30.375 10.703125 29.847656 12.785156 C 28.246094 12.425781 26.503906 12.160156 24.683594 11.992188 C 23.621094 10.527344 22.519531 9.195312 21.414062 8.039062 C 23.035156 6.527344 26.652344 3.234375 29.039062 4.570312 Z M 29.039062 4.570312 "/></g><g style="fill:#d9d9d9;fill-opacity:1;"><g transform="translate(20.003487, 20.625002)"><path style="stroke:none" d="M 0.328125 0 L 0.171875 0 L 0.171875 -1.046875 L 0.328125 -1.046875 Z M 0.15625 -1.328125 C 0.15625 -1.367188 0.160156 -1.394531 0.171875 -1.40625 C 0.191406 -1.425781 0.21875 -1.4375 0.25 -1.4375 C 0.269531 -1.4375 0.289062 -1.425781 0.3125 -1.40625 C 0.332031 -1.382812 0.34375 -1.359375 0.34375 -1.328125 C 0.34375 -1.296875 0.332031 -1.269531 0.3125 -1.25 C 0.289062 -1.226562 0.269531 -1.21875 0.25 -1.21875 C 0.21875 -1.21875 0.191406 -1.226562 0.171875 -1.25 C 0.160156 -1.269531 0.15625 -1.296875 0.15625 -1.328125 Z M 0.15625 -1.328125 "/></g></g></g></svg>