<svg xmlns="http://www.w3.org/2000/svg" xmlns:xlink="http://www.w3.org/1999/xlink" width="55" zoomAndPan="magnify" viewBox="0 0 41.25 41.250001" height="55" preserveAspectRatio="xMidYMid meet" version="1.2"><defs/><g id="e76dc45794"><path style=" stroke:none;fill-rule:nonzero;fill:#d9d9d9;fill-opacity:1;" d="M 34.765625 3.84375 C 34.253906 5.074219 33.601562 6.226562 32.816406 7.300781 C 32.390625 6.875 31.941406 6.46875 31.476562 6.082031 C 31.007812 5.699219 30.523438 5.339844 30.019531 5.003906 C 29.519531 4.667969 29 4.355469 28.464844 4.070312 C 27.933594 3.785156 27.386719 3.527344 26.828125 3.296875 C 26.269531 3.066406 25.699219 2.867188 25.121094 2.691406 C 24.542969 2.515625 23.953125 2.371094 23.359375 2.257812 C 22.769531 2.140625 22.171875 2.054688 21.566406 1.996094 C 20.964844 1.941406 20.363281 1.914062 19.757812 1.917969 C 19.152344 1.921875 18.550781 1.953125 17.949219 2.015625 C 17.347656 2.078125 16.75 2.171875 16.15625 2.292969 C 15.566406 2.414062 14.980469 2.566406 14.402344 2.746094 C 13.824219 2.925781 13.257812 3.136719 12.703125 3.371094 C 12.144531 3.609375 11.601562 3.871094 11.070312 4.160156 C 10.539062 4.453125 10.027344 4.765625 9.527344 5.109375 C 9.027344 5.449219 8.546875 5.816406 8.082031 6.203125 C 7.621094 6.59375 7.179688 7.003906 6.753906 7.4375 C 6.332031 7.871094 5.933594 8.324219 5.554688 8.796875 C 5.179688 9.269531 4.824219 9.757812 4.496094 10.265625 C 4.167969 10.773438 3.863281 11.296875 3.589844 11.832031 C 3.3125 12.371094 3.0625 12.921875 2.839844 13.484375 C 2.617188 14.046875 2.421875 14.617188 2.257812 15.199219 C 2.089844 15.78125 1.953125 16.367188 1.847656 16.964844 C 1.738281 17.558594 1.660156 18.15625 1.613281 18.761719 C 1.566406 19.363281 1.546875 19.96875 1.558594 20.570312 C 1.570312 21.175781 1.613281 21.78125 1.683594 22.378906 C 1.757812 22.980469 1.859375 23.574219 1.988281 24.167969 C 2.121094 24.757812 2.277344 25.339844 2.46875 25.914062 C 2.65625 26.488281 2.871094 27.050781 3.117188 27.605469 C 3.359375 28.160156 3.632812 28.699219 3.929688 29.226562 C 4.226562 29.75 4.550781 30.261719 4.898438 30.753906 C 5.25 31.25 5.621094 31.726562 6.015625 32.183594 C 6.410156 32.640625 6.828125 33.078125 7.269531 33.492188 L 7.945312 34.089844 C 9.234375 35.175781 10.648438 36.066406 12.183594 36.765625 C 13.722656 37.460938 15.324219 37.933594 16.992188 38.1875 C 18.660156 38.4375 20.328125 38.460938 22.003906 38.25 C 23.675781 38.039062 25.292969 37.605469 26.84375 36.949219 C 28.398438 36.292969 29.835938 35.4375 31.152344 34.386719 C 32.46875 33.332031 33.617188 32.117188 34.601562 30.746094 C 35.582031 29.375 36.359375 27.894531 36.929688 26.308594 C 37.503906 24.722656 37.851562 23.085938 37.96875 21.402344 C 38.46875 16.746094 37.101562 10.851562 34.765625 3.847656 Z M 9.871094 33.597656 C 9.738281 33.761719 9.582031 33.890625 9.402344 33.988281 C 9.21875 34.089844 9.023438 34.148438 8.816406 34.171875 C 8.613281 34.191406 8.410156 34.171875 8.210938 34.113281 C 8.011719 34.054688 7.832031 33.960938 7.667969 33.832031 C 7.507812 33.699219 7.378906 33.542969 7.28125 33.359375 C 7.179688 33.179688 7.121094 32.984375 7.097656 32.777344 C 7.078125 32.570312 7.097656 32.367188 7.15625 32.167969 C 7.214844 31.972656 7.308594 31.789062 7.4375 31.628906 C 7.570312 31.46875 7.726562 31.339844 7.910156 31.238281 C 8.089844 31.140625 8.285156 31.082031 8.492188 31.058594 C 8.699219 31.039062 8.902344 31.054688 9.101562 31.117188 C 9.300781 31.175781 9.480469 31.269531 9.640625 31.398438 C 9.800781 31.53125 9.929688 31.6875 10.03125 31.871094 C 10.128906 32.050781 10.1875 32.246094 10.210938 32.453125 C 10.230469 32.65625 10.214844 32.859375 10.15625 33.058594 C 10.09375 33.257812 10 33.4375 9.871094 33.597656 Z M 34.691406 28.121094 C 30.175781 34.132812 20.535156 32.105469 14.355469 32.398438 C 14.355469 32.398438 13.257812 32.460938 12.15625 32.640625 C 12.15625 32.640625 12.570312 32.464844 13.105469 32.265625 C 17.445312 30.753906 19.496094 30.464844 22.132812 29.105469 C 27.097656 26.582031 32.007812 21.054688 33.027344 15.3125 C 31.140625 20.835938 25.402344 25.589844 20.183594 27.519531 C 16.605469 28.839844 10.144531 30.125 10.144531 30.125 L 9.882812 29.984375 C 5.484375 27.847656 5.347656 18.320312 13.347656 15.25 C 16.847656 13.902344 20.199219 14.640625 23.980469 13.738281 C 28.019531 12.78125 32.691406 9.753906 34.59375 5.804688 C 36.71875 12.121094 39.28125 22.007812 34.6875 28.125 Z M 34.691406 28.121094 "/><g style="fill:#d9d9d9;fill-opacity:1;"><g transform="translate(20.003487, 20.625002)"><path style="stroke:none" d="M 0.328125 0 L 0.171875 0 L 0.171875 -1.046875 L 0.328125 -1.046875 Z M 0.15625 -1.328125 C 0.15625 -1.367188 0.160156 -1.394531 0.171875 -1.40625 C 0.191406 -1.425781 0.21875 -1.4375 0.25 -1.4375 C 0.269531 -1.4375 0.289062 -1.425781 0.3125 -1.40625 C 0.332031 -1.382812 0.34375 -1.359375 0.34375 -1.328125 C 0.34375 -1.296875 0.332031 -1.269531 0.3125 -1.25 C 0.289062 -1.226562 0.269531 -1.21875 0.25 -1.21875 C 0.21875 -1.21875 0.191406 -1.226562 0.171875 -1.25 C 0.160156 -1.269531 0.15625 -1.296875 0.15625 -1.328125 Z M 0.15625 -1.328125 "/></g></g></g></svg>