<svg xmlns="http://www.w3.org/2000/svg" xmlns:xlink="http://www.w3.org/1999/xlink" width="55" zoomAndPan="magnify" viewBox="0 0 41.25 41.250001" height="55" preserveAspectRatio="xMidYMid meet" version="1.2"><defs><clipPath id="affbe695fe"><path d="M 0 0 L 40.511719 0 L 40.511719 40.511719 L 0 40.511719 Z M 0 0 "/></clipPath></defs><g id="b6e8dc2758"><g clip-rule="nonzero" clip-path="url(#affbe695fe)"><path style=" stroke:none;fill-rule:nonzero;fill:#d9d9d9;fill-opacity:1;" d="M 20.191406 0.0351562 C 8.96875 0.0742188 0 9.199219 0.148438 20.417969 C 0.175781 22.695312 0.578125 24.898438 1.355469 27.039062 C 2.136719 29.175781 3.246094 31.125 4.691406 32.882812 C 4.921875 33.167969 5.050781 33.492188 5.085938 33.855469 C 5.117188 34.21875 5.042969 34.558594 4.863281 34.878906 L 3.132812 37.984375 C 2.652344 38.84375 3.433594 39.863281 4.390625 39.621094 L 10.257812 38.125 C 10.679688 38.019531 11.085938 38.058594 11.480469 38.25 C 14.105469 39.527344 16.878906 40.195312 19.796875 40.257812 C 31.078125 40.511719 40.339844 31.5 40.375 20.214844 C 40.410156 9.054688 31.351562 0 20.191406 0.0351562 Z M 20.261719 37.785156 C 19.683594 37.785156 19.105469 37.757812 18.53125 37.699219 C 17.957031 37.644531 17.386719 37.558594 16.820312 37.445312 C 16.253906 37.332031 15.695312 37.195312 15.140625 37.027344 C 14.589844 36.859375 14.046875 36.664062 13.511719 36.441406 C 12.976562 36.222656 12.457031 35.976562 11.945312 35.703125 C 11.4375 35.429688 10.941406 35.132812 10.460938 34.8125 C 9.980469 34.492188 9.519531 34.148438 9.074219 33.78125 C 8.625 33.417969 8.199219 33.027344 7.789062 32.621094 C 7.382812 32.210938 6.996094 31.785156 6.628906 31.339844 C 6.261719 30.890625 5.917969 30.429688 5.597656 29.949219 C 5.277344 29.46875 4.980469 28.972656 4.707031 28.464844 C 4.433594 27.953125 4.1875 27.433594 3.96875 26.898438 C 3.746094 26.367188 3.550781 25.820312 3.382812 25.269531 C 3.214844 24.71875 3.078125 24.15625 2.964844 23.589844 C 2.851562 23.023438 2.765625 22.453125 2.710938 21.878906 C 2.652344 21.304688 2.625 20.726562 2.625 20.148438 C 2.625 10.410156 10.519531 2.515625 20.261719 2.515625 C 29.960938 2.515625 37.832031 10.347656 37.894531 20.035156 C 37.957031 29.757812 29.980469 37.785156 20.261719 37.785156 Z M 20.261719 37.785156 "/></g><path style=" stroke:none;fill-rule:nonzero;fill:#d9d9d9;fill-opacity:1;" d="M 17.109375 11.578125 L 17.117188 11.59375 L 18.167969 13.679688 C 18.402344 14.144531 18.472656 14.628906 18.382812 15.140625 C 18.289062 15.652344 18.054688 16.085938 17.675781 16.441406 C 17.296875 16.792969 17.058594 17.222656 16.964844 17.730469 C 16.875 18.238281 16.941406 18.722656 17.171875 19.183594 C 17.800781 20.453125 18.898438 22.199219 20.566406 23.460938 C 20.949219 23.753906 21.378906 23.910156 21.859375 23.933594 C 22.339844 23.960938 22.785156 23.847656 23.195312 23.597656 L 23.875 23.1875 C 24.523438 22.789062 25.207031 22.726562 25.917969 23 L 28.609375 24.023438 C 28.898438 24.132812 29.15625 24.292969 29.382812 24.507812 C 29.609375 24.71875 29.785156 24.964844 29.910156 25.25 C 30.039062 25.53125 30.105469 25.828125 30.113281 26.136719 C 30.125 26.445312 30.074219 26.746094 29.964844 27.035156 C 29.933594 27.117188 29.894531 27.199219 29.855469 27.277344 L 29.109375 28.722656 C 28.988281 28.957031 28.832031 29.167969 28.636719 29.347656 C 28.445312 29.53125 28.226562 29.675781 27.984375 29.785156 C 27.742188 29.890625 27.492188 29.957031 27.226562 29.980469 C 26.960938 30 26.703125 29.980469 26.445312 29.910156 C 22.214844 28.816406 12.136719 25.015625 11.328125 13.515625 C 11.292969 13.050781 11.390625 12.613281 11.621094 12.203125 C 11.851562 11.796875 12.171875 11.488281 12.589844 11.273438 L 13.960938 10.566406 C 14.238281 10.425781 14.53125 10.34375 14.839844 10.316406 C 15.148438 10.292969 15.449219 10.324219 15.746094 10.421875 C 16.039062 10.515625 16.304688 10.664062 16.542969 10.863281 C 16.777344 11.0625 16.964844 11.300781 17.109375 11.578125 Z M 17.109375 11.578125 "/><g style="fill:#d9d9d9;fill-opacity:1;"><g transform="translate(4.166434, 9.305805)"><path style="stroke:none" d="M 0.046875 0.46875 C -0.015625 0.46875 -0.0664062 0.460938 -0.109375 0.453125 L -0.109375 0.3125 C -0.0664062 0.320312 -0.0195312 0.328125 0.03125 0.328125 C 0.0703125 0.328125 0.101562 0.3125 0.125 0.28125 C 0.15625 0.257812 0.171875 0.222656 0.171875 0.171875 L 0.171875 -1.046875 L 0.328125 -1.046875 L 0.328125 0.15625 C 0.328125 0.363281 0.234375 0.46875 0.046875 0.46875 Z M 0.15625 -1.328125 C 0.15625 -1.367188 0.160156 -1.394531 0.171875 -1.40625 C 0.191406 -1.425781 0.21875 -1.4375 0.25 -1.4375 C 0.269531 -1.4375 0.289062 -1.425781 0.3125 -1.40625 C 0.332031 -1.382812 0.34375 -1.359375 0.34375 -1.328125 C 0.34375 -1.296875 0.332031 -1.269531 0.3125 -1.25 C 0.289062 -1.226562 0.269531 -1.21875 0.25 -1.21875 C 0.21875 -1.21875 0.191406 -1.226562 0.171875 -1.25 C 0.160156 -1.269531 0.15625 -1.296875 0.15625 -1.328125 Z M 0.15625 -1.328125 "/></g></g></g></svg>