<svg xmlns="http://www.w3.org/2000/svg" xmlns:xlink="http://www.w3.org/1999/xlink" width="55" zoomAndPan="magnify" viewBox="0 0 41.25 41.250001" height="55" preserveAspectRatio="xMidYMid meet" version="1.2"><defs><clipPath id="5169cadf1b"><path d="M 0.28125 4 L 40 4 L 40 38 L 0.28125 38 Z M 0.28125 4 "/></clipPath></defs><g id="ff2675cf2f"><g clip-rule="nonzero" clip-path="url(#5169cadf1b)"><path style=" stroke:none;fill-rule:nonzero;fill:#d9d9d9;fill-opacity:1;" d="M 23.472656 7.980469 C 18.910156 3.421875 11.523438 3.421875 6.964844 7.980469 L 0.363281 34.152344 C 4.921875 29.59375 12.308594 29.59375 16.871094 34.152344 C 21.433594 38.714844 28.820312 38.714844 33.375 34.152344 L 39.976562 7.980469 C 35.421875 12.539062 28.035156 12.539062 23.472656 7.980469 Z M 34.96875 14.351562 L 33.132812 21.609375 C 31.699219 22.386719 30.105469 22.835938 28.425781 22.835938 C 26.054688 22.835938 23.8125 22.015625 22.011719 20.511719 L 24.019531 12.550781 C 26.328125 13.941406 28.964844 14.699219 31.726562 14.699219 C 32.828125 14.699219 33.914062 14.582031 34.96875 14.351562 Z M 15.21875 7.859375 C 17.453125 7.859375 19.554688 8.734375 21.136719 10.3125 C 21.152344 10.324219 21.164062 10.332031 21.171875 10.34375 L 19.191406 18.195312 C 15.902344 16.050781 11.878906 15.480469 8.210938 16.542969 L 9.925781 9.746094 C 11.414062 8.523438 13.265625 7.859375 15.21875 7.859375 Z M 5.375 27.78125 L 7.199219 20.554688 C 10.734375 18.644531 15.136719 19.015625 18.316406 21.667969 L 16.320312 29.582031 C 14.015625 28.191406 11.378906 27.433594 8.617188 27.433594 C 7.511719 27.429688 6.425781 27.550781 5.375 27.78125 Z M 25.125 34.273438 C 22.890625 34.273438 20.785156 33.402344 19.203125 31.816406 C 19.195312 31.808594 19.183594 31.796875 19.171875 31.785156 L 21.140625 23.96875 C 23.289062 25.378906 25.800781 26.136719 28.425781 26.136719 C 29.699219 26.136719 30.941406 25.9375 32.132812 25.585938 L 30.417969 32.382812 C 28.925781 33.605469 27.078125 34.273438 25.125 34.273438 Z M 25.125 34.273438 "/></g><g style="fill:#d9d9d9;fill-opacity:1;"><g transform="translate(19.899902, 20.625002)"><path style="stroke:none" d="M 0.5 -0.109375 C 0.53125 -0.109375 0.554688 -0.109375 0.578125 -0.109375 C 0.609375 -0.117188 0.632812 -0.125 0.65625 -0.125 L 0.65625 -0.015625 C 0.632812 -0.00390625 0.601562 0 0.5625 0 C 0.53125 0.0078125 0.503906 0.015625 0.484375 0.015625 C 0.273438 0.015625 0.171875 -0.0859375 0.171875 -0.296875 L 0.171875 -0.921875 L 0.03125 -0.921875 L 0.03125 -1 L 0.171875 -1.0625 L 0.25 -1.28125 L 0.34375 -1.28125 L 0.34375 -1.046875 L 0.640625 -1.046875 L 0.640625 -0.921875 L 0.34375 -0.921875 L 0.34375 -0.3125 C 0.34375 -0.25 0.351562 -0.195312 0.375 -0.15625 C 0.40625 -0.125 0.445312 -0.109375 0.5 -0.109375 Z M 0.5 -0.109375 "/></g></g></g></svg>