<svg xmlns="http://www.w3.org/2000/svg" xmlns:xlink="http://www.w3.org/1999/xlink" width="55" zoomAndPan="magnify" viewBox="0 0 41.25 41.250001" height="55" preserveAspectRatio="xMidYMid meet" version="1.2"><defs><clipPath id="a9b1c87ace"><path d="M 0.332031 0.332031 L 40.109375 0.332031 L 40.109375 40.109375 L 0.332031 40.109375 Z M 0.332031 0.332031 "/></clipPath></defs><g id="878de6b010"><g clip-rule="nonzero" clip-path="url(#a9b1c87ace)"><path style=" stroke:none;fill-rule:nonzero;fill:#d9d9d9;fill-opacity:1;" d="M 7.066406 0.332031 L 33.375 0.332031 C 35.226562 0.332031 36.910156 1.089844 38.128906 2.308594 C 39.351562 3.53125 40.105469 5.214844 40.105469 7.066406 L 40.105469 33.375 C 40.105469 35.226562 39.351562 36.910156 38.128906 38.128906 C 36.910156 39.351562 35.226562 40.105469 33.375 40.105469 L 7.066406 40.105469 C 5.214844 40.105469 3.53125 39.351562 2.308594 38.128906 C 1.089844 36.910156 0.332031 35.226562 0.332031 33.375 L 0.332031 7.066406 C 0.332031 5.214844 1.089844 3.53125 2.308594 2.308594 C 3.53125 1.089844 5.214844 0.332031 7.066406 0.332031 Z M 33.375 1.417969 L 7.066406 1.417969 C 5.511719 1.417969 4.101562 2.054688 3.078125 3.078125 C 2.054688 4.101562 1.417969 5.511719 1.417969 7.066406 L 1.417969 33.375 C 1.417969 34.925781 2.054688 36.335938 3.078125 37.359375 C 4.101562 38.382812 5.511719 39.019531 7.066406 39.019531 L 33.375 39.019531 C 34.925781 39.019531 36.335938 38.382812 37.359375 37.359375 C 38.382812 36.335938 39.019531 34.925781 39.019531 33.375 L 39.019531 7.066406 C 39.019531 5.511719 38.382812 4.101562 37.359375 3.078125 C 36.335938 2.054688 34.925781 1.417969 33.375 1.417969 Z M 33.375 1.417969 "/></g><path style=" stroke:none;fill-rule:nonzero;fill:#d9d9d9;fill-opacity:1;" d="M 8.277344 2.78125 L 32.160156 2.78125 C 33.671875 2.78125 35.046875 3.398438 36.042969 4.394531 C 37.039062 5.390625 37.660156 6.765625 37.660156 8.277344 L 37.660156 32.160156 C 37.660156 33.671875 37.039062 35.046875 36.042969 36.042969 C 35.046875 37.039062 33.671875 37.660156 32.160156 37.660156 L 8.277344 37.660156 C 6.765625 37.660156 5.390625 37.039062 4.394531 36.042969 C 3.398438 35.046875 2.78125 33.671875 2.78125 32.160156 L 2.78125 8.277344 C 2.78125 6.765625 3.398438 5.390625 4.394531 4.394531 C 5.390625 3.398438 6.765625 2.78125 8.277344 2.78125 Z M 32.160156 3.867188 L 8.277344 3.867188 C 7.066406 3.867188 5.964844 4.363281 5.164062 5.164062 C 4.363281 5.964844 3.867188 7.066406 3.867188 8.277344 L 3.867188 32.160156 C 3.867188 33.371094 4.363281 34.476562 5.164062 35.277344 C 5.964844 36.074219 7.066406 36.570312 8.277344 36.570312 L 32.160156 36.570312 C 33.371094 36.570312 34.476562 36.074219 35.277344 35.277344 C 36.074219 34.476562 36.570312 33.371094 36.570312 32.160156 L 36.570312 8.277344 C 36.570312 7.066406 36.074219 5.964844 35.277344 5.164062 C 34.476562 4.363281 33.371094 3.867188 32.160156 3.867188 Z M 32.160156 3.867188 "/><path style=" stroke:none;fill-rule:nonzero;fill:#d9d9d9;fill-opacity:1;" d="M 9.085938 9.332031 L 16.148438 9.332031 C 16.34375 9.332031 16.511719 9.433594 16.609375 9.585938 L 31.789062 30.242188 C 31.96875 30.484375 31.914062 30.824219 31.671875 31 C 31.578125 31.074219 31.464844 31.105469 31.351562 31.105469 L 31.351562 31.109375 L 24.289062 31.109375 C 24.097656 31.109375 23.925781 31.007812 23.828125 30.855469 L 8.648438 10.195312 C 8.472656 9.953125 8.523438 9.613281 8.765625 9.4375 C 8.863281 9.367188 8.972656 9.332031 9.085938 9.332031 Z M 15.875 10.417969 L 10.160156 10.417969 L 24.5625 30.019531 L 30.28125 30.019531 Z M 15.875 10.417969 "/><path style=" stroke:none;fill-rule:nonzero;fill:#d9d9d9;fill-opacity:1;" d="M 26.136719 9.332031 L 29.824219 9.332031 C 30.121094 9.332031 30.367188 9.574219 30.367188 9.875 C 30.367188 10.019531 30.3125 10.148438 30.21875 10.246094 L 23.203125 19.226562 C 23.019531 19.460938 22.679688 19.503906 22.441406 19.320312 C 22.402344 19.289062 22.367188 19.253906 22.339844 19.214844 L 20.550781 16.78125 C 20.398438 16.574219 20.417969 16.289062 20.582031 16.101562 L 25.707031 9.542969 C 25.816406 9.40625 25.972656 9.332031 26.132812 9.332031 Z M 28.710938 10.417969 L 26.398438 10.417969 L 21.667969 16.46875 L 22.789062 17.996094 Z M 19.542969 23.910156 L 14.085938 30.898438 C 13.976562 31.035156 13.820312 31.105469 13.65625 31.105469 L 13.65625 31.109375 L 9.96875 31.109375 C 9.667969 31.109375 9.425781 30.863281 9.425781 30.5625 C 9.425781 30.421875 9.480469 30.289062 9.570312 30.195312 L 16.921875 20.785156 C 17.105469 20.550781 17.445312 20.507812 17.683594 20.691406 C 17.722656 20.722656 17.757812 20.761719 17.785156 20.800781 L 19.574219 23.230469 C 19.726562 23.441406 19.707031 23.722656 19.542969 23.910156 Z M 13.394531 30.019531 L 18.457031 23.542969 L 17.335938 22.015625 L 11.082031 30.019531 Z M 13.394531 30.019531 "/><g style="fill:#d9d9d9;fill-opacity:1;"><g transform="translate(4.062849, 18.562502)"><path style="stroke:none" d="M 0.5 -0.109375 C 0.53125 -0.109375 0.554688 -0.109375 0.578125 -0.109375 C 0.609375 -0.117188 0.632812 -0.125 0.65625 -0.125 L 0.65625 -0.015625 C 0.632812 -0.00390625 0.601562 0 0.5625 0 C 0.53125 0.0078125 0.503906 0.015625 0.484375 0.015625 C 0.273438 0.015625 0.171875 -0.0859375 0.171875 -0.296875 L 0.171875 -0.921875 L 0.03125 -0.921875 L 0.03125 -1 L 0.171875 -1.0625 L 0.25 -1.28125 L 0.34375 -1.28125 L 0.34375 -1.046875 L 0.640625 -1.046875 L 0.640625 -0.921875 L 0.34375 -0.921875 L 0.34375 -0.3125 C 0.34375 -0.25 0.351562 -0.195312 0.375 -0.15625 C 0.40625 -0.125 0.445312 -0.109375 0.5 -0.109375 Z M 0.5 -0.109375 "/></g></g></g></svg>